0
SECTION
2
HEADER
9
$INSUNITS
70
4
9
$ACADVER
1
AC1014
9
$HANDSEED
5
FFFF
0
ENDSEC
0
SECTION
2
TABLES
0
TABLE
2
VPORT
5
8
100
AcDbSymbolTable
0
ENDTAB
0
TABLE
2
LTYPE
5
5
100
AcDbSymbolTable
0
LTYPE
5
14
100
AcDbSymbolTableRecord
100
AcDbLinetypeTableRecord
2
BYBLOCK
70
0
0
LTYPE
5
15
100
AcDbSymbolTableRecord
100
AcDbLinetypeTableRecord
2
BYLAYER
70
0
0
LTYPE
5
16
100
AcDbSymbolTableRecord
100
AcDbLinetypeTableRecord
2
DASHED
70
0
3
Dashed __ __ __ __ __ __ __ __ __ __ __ __ __ _
72
65
73
2
40
0.75
49
0.5
74
0
49
-0.25
74
0
0
ENDTAB
0
TABLE
2
LAYER
5
2
100
AcDbSymbolTable
70
3
0
LAYER
5
50
100
AcDbSymbolTableRecord
100
AcDbLayerTableRecord
2
1
70
0
62
7
6
DASHED
0
LAYER
5
51
100
AcDbSymbolTableRecord
100
AcDbLayerTableRecord
2
0
70
0
62
7
6
CONTINUOUS
0
ENDTAB
0
TABLE
2
STYLE
5
3
100
AcDbSymbolTable
70
1
0
STYLE
5
11
100
AcDbSymbolTableRecord
100
AcDbTextStyleTableRecord
2
STANDARD
70
0
0
ENDTAB
0
TABLE
2
VIEW
5
6
100
AcDbSymbolTable
70
0
0
ENDTAB
0
TABLE
2
UCS
5
7
100
AcDbSymbolTable
70
0
0
ENDTAB
0
TABLE
2
APPID
5
9
100
AcDbSymbolTable
70
2
0
APPID
5
12
100
AcDbSymbolTableRecord
100
AcDbRegAppTableRecord
2
ACAD
70
0
0
ENDTAB
0
TABLE
2
DIMSTYLE
5
A
100
AcDbSymbolTable
70
1
0
ENDTAB
0
TABLE
2
BLOCK_RECORD
5
1
100
AcDbSymbolTable
70
1
0
BLOCK_RECORD
5
1F
100
AcDbSymbolTableRecord
100
AcDbBlockTableRecord
2
*MODEL_SPACE
0
BLOCK_RECORD
5
1B
100
AcDbSymbolTableRecord
100
AcDbBlockTableRecord
2
*PAPER_SPACE
0
ENDTAB
0
ENDSEC
0
SECTION
2
BLOCKS
0
BLOCK
5
20
100
AcDbEntity
100
AcDbBlockBegin
2
*MODEL_SPACE
0
ENDBLK
5
21
100
AcDbEntity
100
AcDbBlockEnd
0
BLOCK
5
1C
100
AcDbEntity
100
AcDbBlockBegin
2
*PAPER_SPACE
0
ENDBLK
5
1D
100
AcDbEntity
100
AcDbBlockEnd
0
ENDSEC
0
SECTION
2
ENTITIES
0
LWPOLYLINE
5
100
100
AcDbEntity
8
0
100
AcDbPolyline
90
4
70
1
43
0.0
10
120
20
-70
10
-130
20
-70
10
-130
20
80
10
120
20
80
0
CIRCLE
5
101
100
AcDbEntity
8
0
100
AcDbCircle
10
101.65000000000001
20
3.8000000000000078
30
0
40
1.5000000000000002
210
0
220
0
230
1
0
CIRCLE
5
102
100
AcDbEntity
8
0
100
AcDbCircle
10
8.4500000000000064
20
3.8000000000000078
30
0
40
1.5000000000000002
210
0
220
0
230
1
0
LWPOLYLINE
5
103
100
AcDbEntity
8
0
100
AcDbPolyline
90
4
70
1
43
0.0
10
104.15000000000001
20
11.300000000000008
10
5.9500000000000064
20
11.300000000000008
10
5.9500000000000064
20
51.300000000000018
10
104.15000000000001
20
51.300000000000018
0
CIRCLE
5
104
100
AcDbEntity
8
0
100
AcDbCircle
10
101.65000000000001
20
58.800000000000018
30
0
40
1.5000000000000002
210
0
220
0
230
1
0
CIRCLE
5
105
100
AcDbEntity
8
0
100
AcDbCircle
10
8.4500000000000064
20
58.800000000000018
30
0
40
1.5000000000000002
210
0
220
0
230
1
0
CIRCLE
5
106
100
AcDbEntity
8
0
100
AcDbCircle
10
47.906969868710554
20
-24.343366937692835
30
0
40
2
210
0
220
0
230
1
0
CIRCLE
5
107
100
AcDbEntity
8
0
100
AcDbCircle
10
23.906324603532244
20
-24.316717176597258
30
0
40
2
210
0
220
0
230
1
0
CIRCLE
5
108
100
AcDbEntity
8
0
100
AcDbCircle
10
54.190000238418605
20
-62.700000000000024
30
0
40
2
210
0
220
0
230
1
0
CIRCLE
5
109
100
AcDbEntity
8
0
100
AcDbCircle
10
18.230000238418587
20
-62.700000000000024
30
0
40
2
210
0
220
0
230
1
0
LWPOLYLINE
5
110
100
AcDbEntity
8
0
100
AcDbPolyline
90
4
70
1
43
0.0
10
-103.83533413929008
20
42.380977339743573
10
-105.84851342488749
20
32.362961598015964
10
-103.64971818290539
20
32.382219496721163
10
-101.62253383770759
20
42.400357900174612
0
SPLINE
5
111
100
AcDbEntity
8
0
100
AcDbSpline
70
0
71
2
72
6
73
3
74
0
42
0.000000001
43
0.0000000001
44
0.0000000001
40
0
40
0
40
0
40
1
40
1
40
1
10
-99.557865156218099
20
35.345340787708565
30
0
10
-99.561912997126711
20
35.807508206195223
30
0
10
-99.440406199582
20
36.326799238975013
30
0
0
SPLINE
5
112
100
AcDbEntity
8
0
100
AcDbSpline
70
0
71
2
72
6
73
3
74
0
42
0.000000001
43
0.0000000001
44
0.0000000001
40
0
40
0
40
0
40
1
40
1
40
1
10
-99.440406199582
20
36.326799238975013
30
0
10
-99.319021470390453
20
36.860095639243625
30
0
10
-99.07085549029965
20
37.310465607260845
30
0
0
SPLINE
5
113
100
AcDbEntity
8
0
100
AcDbSpline
70
0
71
2
72
6
73
3
74
0
42
0.000000001
43
0.0000000001
44
0.0000000001
40
0
40
0
40
0
40
1
40
1
40
1
10
-99.07085549029965
20
37.310465607260845
30
0
10
-98.822689510208832
20
37.760835575278051
30
0
10
-98.433123610727165
20
38.058376752148305
30
0
0
SPLINE
5
114
100
AcDbEntity
8
0
100
AcDbSpline
70
0
71
2
72
6
73
3
74
0
42
0.000000001
43
0.0000000001
44
0.0000000001
40
0
40
0
40
0
40
1
40
1
40
1
10
-98.433123610727165
20
38.058376752148305
30
0
10
-98.02967500813341
20
38.370045359640287
30
0
10
-97.483477800129492
20
38.374829165928375
30
0
0
SPLINE
5
115
100
AcDbEntity
8
0
100
AcDbSpline
70
0
71
2
72
6
73
3
74
0
42
0.000000001
43
0.0000000001
44
0.0000000001
40
0
40
0
40
0
40
1
40
1
40
1
10
-97.483477800129492
20
38.374829165928375
30
0
10
-96.685188839479281
20
38.381820889235833
30
0
10
-96.359270142208999
20
37.950484817284973
30
0
0
SPLINE
5
116
100
AcDbEntity
8
0
100
AcDbSpline
70
0
71
2
72
6
73
3
74
0
42
0.000000001
43
0.0000000001
44
0.0000000001
40
0
40
0
40
0
40
1
40
1
40
1
10
-96.359270142208999
20
37.950484817284973
30
0
10
-96.019346087890369
20
37.519272005734415
30
0
10
-96.012967676026136
20
36.791008664380094
30
0
0
SPLINE
5
117
100
AcDbEntity
8
0
100
AcDbSpline
70
0
71
2
72
6
73
3
74
0
42
0.000000001
43
0.0000000001
44
0.0000000001
40
0
40
0
40
0
40
1
40
1
40
1
10
-96.012967676026136
20
36.791008664380094
30
0
10
-96.00891983511751
20
36.328841245893429
30
0
10
-96.130303973505704
20
35.795545446868609
30
0
0
SPLINE
5
118
100
AcDbEntity
8
0
100
AcDbSpline
70
0
71
2
72
6
73
3
74
0
42
0.000000001
43
0.0000000001
44
0.0000000001
40
0
40
0
40
0
40
1
40
1
40
1
10
-96.130303973505704
20
35.795545446868609
30
0
10
-96.25168869747705
20
35.262248450576408
30
0
10
-96.513736779436158
20
34.797750461134072
30
0
0
SPLINE
5
119
100
AcDbEntity
8
0
100
AcDbSpline
70
0
71
2
72
6
73
3
74
0
42
0.000000001
43
0.0000000001
44
0.0000000001
40
0
40
0
40
0
40
1
40
1
40
1
10
-96.513736779436158
20
34.797750461134072
30
0
10
-96.761902759526933
20
34.347380493116866
30
0
10
-97.165351367340946
20
34.03571248164846
30
0
0
SPLINE
5
120
100
AcDbEntity
8
0
100
AcDbSpline
70
0
71
2
72
6
73
3
74
0
42
0.000000001
43
0.0000000001
44
0.0000000001
40
0
40
0
40
0
40
1
40
1
40
1
10
-97.165351367340946
20
34.03571248164846
30
0
10
-97.554917266822585
20
33.738171304778206
30
0
10
-98.115119837095136
20
33.733264834113399
30
0
0
SPLINE
5
121
100
AcDbEntity
8
0
100
AcDbSpline
70
0
71
2
72
6
73
3
74
0
42
0.000000001
43
0.0000000001
44
0.0000000001
40
0
40
0
40
0
40
1
40
1
40
1
10
-98.115119837095136
20
33.733264834113399
30
0
10
-98.465246741527309
20
33.730198287337799
30
0
10
-98.732446622904661
20
33.853913592705226
30
0
0
SPLINE
5
122
100
AcDbEntity
8
0
100
AcDbSpline
70
0
71
2
72
6
73
3
74
0
42
0.000000001
43
0.0000000001
44
0.0000000001
40
0
40
0
40
0
40
1
40
1
40
1
10
-98.732446622904661
20
33.853913592705226
30
0
10
-98.999769754241882
20
33.991633063073891
30
0
10
-99.183797879834614
20
34.21411949082696
30
0
0
SPLINE
5
123
100
AcDbEntity
8
0
100
AcDbSpline
70
0
71
2
72
6
73
3
74
0
42
0.000000001
43
0.0000000001
44
0.0000000001
40
0
40
0
40
0
40
1
40
1
40
1
10
-99.183797879834614
20
34.21411949082696
30
0
10
-99.367826601450915
20
34.436605913359806
30
0
10
-99.468437652945937
20
34.729853931008464
30
0
0
SPLINE
5
124
100
AcDbEntity
8
0
100
AcDbSpline
70
0
71
2
72
6
73
3
74
0
42
0.000000001
43
0.0000000001
44
0.0000000001
40
0
40
0
40
0
40
1
40
1
40
1
10
-99.468437652945937
20
34.729853931008464
30
0
10
-99.555043938195951
20
35.023224607813631
30
0
10
-99.557865156218099
20
35.345340787708565
30
0
0
SPLINE
5
125
100
AcDbEntity
8
0
100
AcDbSpline
70
0
71
2
72
6
73
3
74
0
42
0.000000001
43
0.0000000001
44
0.0000000001
40
0
40
0
40
0
40
1
40
1
40
1
10
-101.54658457869745
20
35.327922814238391
30
0
10
-101.53296912521273
20
33.773360979743842
30
0
10
-100.62977565583412
20
32.996927737036053
30
0
0
SPLINE
5
126
100
AcDbEntity
8
0
100
AcDbSpline
70
0
71
2
72
6
73
3
74
0
42
0.000000001
43
0.0000000001
44
0.0000000001
40
0
40
0
40
0
40
1
40
1
40
1
10
-100.62977565583412
20
32.996927737036053
30
0
10
-99.712700372158594
20
32.234621321096114
30
0
10
-98.200153432422695
20
32.247868791891094
30
0
0
SPLINE
5
127
100
AcDbEntity
8
0
100
AcDbSpline
70
0
71
2
72
6
73
3
74
0
42
0.000000001
43
0.0000000001
44
0.0000000001
40
0
40
0
40
0
40
1
40
1
40
1
10
-98.200153432422695
20
32.247868791891094
30
0
10
-97.205793572177086
20
32.25657777993122
30
0
10
-96.438581286816145
20
32.61345108413758
30
0
0
SPLINE
5
128
100
AcDbEntity
8
0
100
AcDbSpline
70
0
71
2
72
6
73
3
74
0
42
0.000000001
43
0.0000000001
44
0.0000000001
40
0
40
0
40
0
40
1
40
1
40
1
10
-96.438581286816145
20
32.61345108413758
30
0
10
-95.657364831233764
20
32.970447042280249
30
0
10
-95.116563548913916
20
33.591453686308547
30
0
0
SPLINE
5
129
100
AcDbEntity
8
0
100
AcDbSpline
70
0
71
2
72
6
73
3
74
0
42
0.000000001
43
0.0000000001
44
0.0000000001
40
0
40
0
40
0
40
1
40
1
40
1
10
-95.116563548913916
20
33.591453686308547
30
0
10
-94.575763458641262
20
34.212460319896451
30
0
10
-94.302899215125478
20
35.04121204836909
30
0
0
SPLINE
5
130
100
AcDbEntity
8
0
100
AcDbSpline
70
0
71
2
72
6
73
3
74
0
42
0.000000001
43
0.0000000001
44
0.0000000001
40
0
40
0
40
0
40
1
40
1
40
1
10
-94.302899215125478
20
35.04121204836909
30
0
10
-94.016152273717807
20
35.884091803487046
30
0
10
-94.024493273847995
20
36.836436172950393
30
0
0
SPLINE
5
131
100
AcDbEntity
8
0
100
AcDbSpline
70
0
71
2
72
6
73
3
74
0
42
0.000000001
43
0.0000000001
44
0.0000000001
40
0
40
0
40
0
40
1
40
1
40
1
10
-94.024493273847995
20
36.836436172950393
30
0
10
-94.031362337998928
20
37.62072036735556
30
0
10
-94.288483220466475
20
38.192719786853772
30
0
0
SPLINE
5
132
100
AcDbEntity
8
0
100
AcDbSpline
70
0
71
2
72
6
73
3
74
0
42
0.000000001
43
0.0000000001
44
0.0000000001
40
0
40
0
40
0
40
1
40
1
40
1
10
-94.288483220466475
20
38.192719786853772
30
0
10
-94.531597553838438
20
38.764842477192701
30
0
10
-94.983072667192303
20
39.139053727142624
30
0
0
SPLINE
5
133
100
AcDbEntity
8
0
100
AcDbSpline
70
0
71
2
72
6
73
3
74
0
42
0.000000001
43
0.0000000001
44
0.0000000001
40
0
40
0
40
0
40
1
40
1
40
1
10
-94.983072667192303
20
39.139053727142624
30
0
10
-95.43454659371919
20
39.513265583556546
30
0
10
-96.066368792840223
20
39.689811940019133
30
0
0
SPLINE
5
134
100
AcDbEntity
8
0
100
AcDbSpline
70
0
71
2
72
6
73
3
74
0
42
0.000000001
43
0.0000000001
44
0.0000000001
40
0
40
0
40
0
40
1
40
1
40
1
10
-96.066368792840223
20
39.689811940019133
30
0
10
-96.684308884872721
20
39.880485721883225
30
0
10
-97.426576992472036
20
39.873984650862468
30
0
0
SPLINE
5
135
100
AcDbEntity
8
0
100
AcDbSpline
70
0
71
2
72
6
73
3
74
0
42
0.000000001
43
0.0000000001
44
0.0000000001
40
0
40
0
40
0
40
1
40
1
40
1
10
-97.426576992472036
20
39.873984650862468
30
0
10
-98.392926724204003
20
39.86552098635557
30
0
10
-99.160016345188282
20
39.494642319880612
30
0
0
SPLINE
5
136
100
AcDbEntity
8
0
100
AcDbSpline
70
0
71
2
72
6
73
3
74
0
42
0.000000001
43
0.0000000001
44
0.0000000001
40
0
40
0
40
0
40
1
40
1
40
1
10
-99.160016345188282
20
39.494642319880612
30
0
10
-99.927228039745799
20
39.13776961691805
30
0
10
-100.46802872604204
20
38.516762978109952
30
0
0
SPLINE
5
137
100
AcDbEntity
8
0
100
AcDbSpline
70
0
71
2
72
6
73
3
74
0
42
0.000000001
43
0.0000000001
44
0.0000000001
40
0
40
0
40
0
40
1
40
1
40
1
10
-100.46802872604204
20
38.516762978109952
30
0
10
-100.9948240500697
20
37.895879003678573
30
0
10
-101.28169335262214
20
37.067004017415719
30
0
0
SPLINE
5
138
100
AcDbEntity
8
0
100
AcDbSpline
70
0
71
2
72
6
73
3
74
0
42
0.000000001
43
0.0000000001
44
0.0000000001
40
0
40
0
40
0
40
1
40
1
40
1
10
-101.28169335262214
20
37.067004017415719
30
0
10
-101.55468025529441
20
36.25225705518811
30
0
10
-101.54658457869745
20
35.327922814238391
30
0
0
LWPOLYLINE
5
139
100
AcDbEntity
8
0
100
AcDbPolyline
90
8
70
1
43
0.0
10
-89.533975307069355
20
40.657423876762373
10
-91.171204589031092
20
32.491511142525198
10
-88.95840384043089
20
32.510891706871398
10
-87.321175750516318
20
40.676804430668156
10
-84.324091403534567
20
40.703054053945067
10
-83.948139765490453
20
42.555157075750287
10
-92.295159254598715
20
42.482050652404261
10
-92.67110970059565
20
40.62994764103945
0
LINE
5
140
100
AcDbEntity
8
0
100
AcDbLine
10
-78.962335698017498
20
42.598824675107494
30
0
11
-80.947505893486138
21
32.58105424781855
31
0
0
LINE
5
141
100
AcDbEntity
8
0
100
AcDbLine
10
-80.947505893486138
20
32.58105424781855
30
0
11
-78.762714677375982
21
32.600189493851708
31
0
0
LINE
5
142
100
AcDbEntity
8
0
100
AcDbLine
10
-78.762714677375982
20
32.600189493851708
30
0
11
-78.03784321578641
21
36.192109673773352
31
0
0
LINE
5
143
100
AcDbEntity
8
0
100
AcDbLine
10
-78.03784321578641
20
36.192109673773352
30
0
11
-75.320860153940913
21
36.215906061717867
31
0
0
SPLINE
5
144
100
AcDbEntity
8
0
100
AcDbSpline
70
0
71
2
72
6
73
3
74
0
42
0.000000001
43
0.0000000001
44
0.0000000001
40
0
40
0
40
0
40
1
40
1
40
1
10
-75.320860153940885
20
36.215906061717867
30
0
10
-74.536576555559336
20
36.222775120648606
30
0
10
-73.83840799933769
20
36.466994604577451
30
0
0
SPLINE
5
145
100
AcDbEntity
8
0
100
AcDbSpline
70
0
71
2
72
6
73
3
74
0
42
0.000000001
43
0.0000000001
44
0.0000000001
40
0
40
0
40
0
40
1
40
1
40
1
10
-73.83840799933769
20
36.466994604577451
30
0
10
-73.14023944311603
20
36.711214088506296
30
0
10
-72.611972773912541
20
37.164037286635704
30
0
0
SPLINE
5
146
100
AcDbEntity
8
0
100
AcDbSpline
70
0
71
2
72
6
73
3
74
0
42
0.000000001
43
0.0000000001
44
0.0000000001
40
0
40
0
40
0
40
1
40
1
40
1
10
-72.611972773912541
20
37.164037286635704
30
0
10
-72.069701934487625
20
37.616983138701421
30
0
10
-71.76723117403148
20
38.263914669041121
30
0
0
SPLINE
5
147
100
AcDbEntity
8
0
100
AcDbSpline
70
0
71
2
72
6
73
3
74
0
42
0.000000001
43
0.0000000001
44
0.0000000001
40
0
40
0
40
0
40
1
40
1
40
1
10
-71.76723117403148
20
38.263914669041121
30
0
10
-71.450881286604769
20
38.924973598681333
30
0
10
-71.458118333445455
20
39.751272687845152
30
0
0
SPLINE
5
148
100
AcDbEntity
8
0
100
AcDbSpline
70
0
71
2
72
6
73
3
74
0
42
0.000000001
43
0.0000000001
44
0.0000000001
40
0
40
0
40
0
40
1
40
1
40
1
10
-71.458118333445455
20
39.751272687845152
30
0
10
-71.465355380286155
20
40.57757177700897
30
0
10
-71.736357773818625
20
41.13544377632585
30
0
0
SPLINE
5
149
100
AcDbEntity
8
0
100
AcDbSpline
70
0
71
2
72
6
73
3
74
0
42
0.000000001
43
0.0000000001
44
0.0000000001
40
0
40
0
40
0
40
1
40
1
40
1
10
-71.736357773818625
20
41.13544377632585
30
0
10
-71.993355997129683
20
41.693438429579039
30
0
10
-72.458466105968029
20
42.025512141274405
30
0
0
SPLINE
5
150
100
AcDbEntity
8
0
100
AcDbSpline
70
0
71
2
72
6
73
3
74
0
42
0.000000001
43
0.0000000001
44
0.0000000001
40
0
40
0
40
0
40
1
40
1
40
1
10
-72.458466105968029
20
42.025512141274405
30
0
10
-72.923576214806403
20
42.357585852969777
30
0
10
-73.569037576356791
20
42.491994038612788
30
0
0
SPLINE
5
151
100
AcDbEntity
8
0
100
AcDbSpline
70
0
71
2
72
6
73
3
74
0
42
0.000000001
43
0.0000000001
44
0.0000000001
40
0
40
0
40
0
40
1
40
1
40
1
10
-73.569037576356791
20
42.491994038612788
30
0
10
-74.200615042747955
20
42.640529665317935
30
0
10
-74.956887916592308
20
42.633905935140646
30
0
0
LINE
5
152
100
AcDbEntity
8
0
100
AcDbLine
10
-74.956887916592308
20
42.633905935140646
30
0
11
-78.962335698017498
21
42.598824675107494
31
0
0
LINE
5
153
100
AcDbEntity
8
0
100
AcDbLine
10
-77.688675689833502
20
37.90391732028057
30
0
11
-77.098703672637583
21
40.906398178529635
31
0
0
LINE
5
154
100
AcDbEntity
8
0
100
AcDbLine
10
-77.098703672637583
20
40.906398178529635
30
0
11
-75.22202327415377
21
40.922834870917356
31
0
0
SPLINE
5
155
100
AcDbEntity
8
0
100
AcDbSpline
70
0
71
2
72
6
73
3
74
0
42
0.000000001
43
0.0000000001
44
0.0000000001
40
0
40
0
40
0
40
1
40
1
40
1
10
-75.222023274153742
20
40.922834870917356
30
0
10
-74.927916626748868
20
40.925410770626492
30
0
10
-74.66133005681472
20
40.871721084554906
30
0
0
SPLINE
5
156
100
AcDbEntity
8
0
100
AcDbSpline
70
0
71
2
72
6
73
3
74
0
42
0.000000001
43
0.0000000001
44
0.0000000001
40
0
40
0
40
0
40
1
40
1
40
1
10
-74.66133005681472
20
40.871721084554906
30
0
10
-74.380739316659145
20
40.818154052419651
30
0
10
-74.1554316708839
20
40.680065998117421
30
0
0
SPLINE
5
157
100
AcDbEntity
8
0
100
AcDbSpline
70
0
71
2
72
6
73
3
74
0
42
0.000000001
43
0.0000000001
44
0.0000000001
40
0
40
0
40
0
40
1
40
1
40
1
10
-74.1554316708839
20
40.680065998117421
30
0
10
-73.930246689485401
20
40.555983306083817
30
0
10
-73.801991709315942
20
40.30499611841126
30
0
0
SPLINE
5
158
100
AcDbEntity
8
0
100
AcDbSpline
70
0
71
2
72
6
73
3
74
0
42
0.000000001
43
0.0000000001
44
0.0000000001
40
0
40
0
40
0
40
1
40
1
40
1
10
-73.801991709315942
20
40.30499611841126
30
0
10
-73.659857602175919
20
40.068136330039216
30
0
10
-73.656545731867098
20
39.689999297093451
30
0
0
SPLINE
5
159
100
AcDbEntity
8
0
100
AcDbSpline
70
0
71
2
72
6
73
3
74
0
42
0.000000001
43
0.0000000001
44
0.0000000001
40
0
40
0
40
0
40
1
40
1
40
1
10
-73.656545731867098
20
39.689999297093451
30
0
10
-73.648695378803382
20
38.793675184657353
30
0
10
-74.135069817624952
20
38.355225331486309
30
0
0
SPLINE
5
160
100
AcDbEntity
8
0
100
AcDbSpline
70
0
71
2
72
6
73
3
74
0
42
0.000000001
43
0.0000000001
44
0.0000000001
40
0
40
0
40
0
40
1
40
1
40
1
10
-74.135069817624952
20
38.355225331486309
30
0
10
-74.607562745381628
20
37.930902898496598
30
0
10
-75.447865408743269
20
37.923543202939811
30
0
0
LINE
5
161
100
AcDbEntity
8
0
100
AcDbLine
10
-75.447865408743269
20
37.923543202939811
30
0
11
-77.688675689833502
21
37.90391732028057
31
0
0
SPLINE
5
162
100
AcDbEntity
8
0
100
AcDbSpline
70
0
71
2
72
6
73
3
74
0
42
0.000000001
43
0.0000000001
44
0.0000000001
40
0
40
0
40
0
40
1
40
1
40
1
10
-69.460979982242392
20
35.608940942446033
30
0
10
-69.465027823150933
20
36.071108360932691
30
0
10
-69.343519237535503
20
36.590399409373106
30
0
0
SPLINE
5
163
100
AcDbEntity
8
0
100
AcDbSpline
70
0
71
2
72
6
73
3
74
0
42
0.000000001
43
0.0000000001
44
0.0000000001
40
0
40
0
40
0
40
1
40
1
40
1
10
-69.343519237535503
20
36.590399409373106
30
0
10
-69.222135700391135
20
37.1236957992013
30
0
10
-68.973969124276749
20
37.574065772438715
30
0
0
SPLINE
5
164
100
AcDbEntity
8
0
100
AcDbSpline
70
0
71
2
72
6
73
3
74
0
42
0.000000001
43
0.0000000001
44
0.0000000001
40
0
40
0
40
0
40
1
40
1
40
1
10
-68.973969124276749
20
37.574065772438715
30
0
10
-68.725804932256693
20
38.024435724795325
30
0
10
-68.336237840727847
20
38.321976912105981
30
0
0
SPLINE
5
165
100
AcDbEntity
8
0
100
AcDbSpline
70
0
71
2
72
6
73
3
74
0
42
0.000000001
43
0.0000000001
44
0.0000000001
40
0
40
0
40
0
40
1
40
1
40
1
10
-68.336237840727847
20
38.321976912105981
30
0
10
-67.932789238134092
20
38.63364551959797
30
0
10
-67.386590838082981
20
38.638429336326467
30
0
0
SPLINE
5
166
100
AcDbEntity
8
0
100
AcDbSpline
70
0
71
2
72
6
73
3
74
0
42
0.000000001
43
0.0000000001
44
0.0000000001
40
0
40
0
40
0
40
1
40
1
40
1
10
-67.386590838082981
20
38.638429336326467
30
0
10
-66.588303069479963
20
38.645421049193509
30
0
10
-66.26238318016253
20
38.214084987683052
30
0
0
SPLINE
5
167
100
AcDbEntity
8
0
100
AcDbSpline
70
0
71
2
72
6
73
3
74
0
42
0.000000001
43
0.0000000001
44
0.0000000001
40
0
40
0
40
0
40
1
40
1
40
1
10
-66.26238318016253
20
38.214084987683052
30
0
10
-65.922459125843872
20
37.7828721761325
30
0
10
-65.916080713979611
20
37.054608834778179
30
0
0
SPLINE
5
168
100
AcDbEntity
8
0
100
AcDbSpline
70
0
71
2
72
6
73
3
74
0
42
0.000000001
43
0.0000000001
44
0.0000000001
40
0
40
0
40
0
40
1
40
1
40
1
10
-65.916080713979611
20
37.054608834778179
30
0
10
-65.91203287307107
20
36.592441416291521
30
0
10
-66.033418799529969
20
36.059145601606076
30
0
0
SPLINE
5
169
100
AcDbEntity
8
0
100
AcDbSpline
70
0
71
2
72
6
73
3
74
0
42
0.000000001
43
0.0000000001
44
0.0000000001
40
0
40
0
40
0
40
1
40
1
40
1
10
-66.033418799529969
20
36.059145601606076
30
0
10
-66.154802331454164
20
35.525848615754292
30
0
10
-66.416850413413258
20
35.061350626311956
30
0
0
SPLINE
5
170
100
AcDbEntity
8
0
100
AcDbSpline
70
0
71
2
72
6
73
3
74
0
42
0.000000001
43
0.0000000001
44
0.0000000001
40
0
40
0
40
0
40
1
40
1
40
1
10
-66.416850413413258
20
35.061350626311956
30
0
10
-66.665016989527658
20
34.610980653074549
30
0
10
-67.068465597341614
20
34.299312641606143
30
0
0
SPLINE
5
171
100
AcDbEntity
8
0
100
AcDbSpline
70
0
71
2
72
6
73
3
74
0
42
0.000000001
43
0.0000000001
44
0.0000000001
40
0
40
0
40
0
40
1
40
1
40
1
10
-67.068465597341614
20
34.299312641606143
30
0
10
-67.458030304776102
20
34.001771475176298
30
0
10
-68.018232875048653
20
33.996865004511491
30
0
0
SPLINE
5
172
100
AcDbEntity
8
0
100
AcDbSpline
70
0
71
2
72
6
73
3
74
0
42
0.000000001
43
0.0000000001
44
0.0000000001
40
0
40
0
40
0
40
1
40
1
40
1
10
-68.018232875048653
20
33.996865004511491
30
0
10
-68.368360971527977
20
33.993798447295475
30
0
10
-68.635560852905328
20
34.117513752662909
30
0
0
SPLINE
5
173
100
AcDbEntity
8
0
100
AcDbSpline
70
0
71
2
72
6
73
3
74
0
42
0.000000001
43
0.0000000001
44
0.0000000001
40
0
40
0
40
0
40
1
40
1
40
1
10
-68.635560852905328
20
34.117513752662909
30
0
10
-68.90288338821901
20
34.25523322825179
30
0
10
-69.086912109835311
20
34.477719650784636
30
0
0
SPLINE
5
174
100
AcDbEntity
8
0
100
AcDbSpline
70
0
71
2
72
6
73
3
74
0
42
0.000000001
43
0.0000000001
44
0.0000000001
40
0
40
0
40
0
40
1
40
1
40
1
10
-69.086912109835311
20
34.477719650784636
30
0
10
-69.270940831451611
20
34.700206073317496
30
0
10
-69.371553074993798
20
34.99345408052573
30
0
0
SPLINE
5
175
100
AcDbEntity
8
0
100
AcDbSpline
70
0
71
2
72
6
73
3
74
0
42
0.000000001
43
0.0000000001
44
0.0000000001
40
0
40
0
40
0
40
1
40
1
40
1
10
-69.371553074993798
20
34.99345408052573
30
0
10
-69.458158764220229
20
35.286824762551106
30
0
10
-69.460979982242392
20
35.608940942446033
30
0
0
SPLINE
5
176
100
AcDbEntity
8
0
100
AcDbSpline
70
0
71
2
72
6
73
3
74
0
42
0.000000001
43
0.0000000001
44
0.0000000001
40
0
40
0
40
0
40
1
40
1
40
1
10
-71.449698510686375
20
35.591522976806175
30
0
10
-71.436083057201643
20
34.036961142311611
30
0
10
-70.532889885834805
20
33.260527896993736
30
0
0
SPLINE
5
177
100
AcDbEntity
8
0
100
AcDbSpline
70
0
71
2
72
6
73
3
74
0
42
0.000000001
43
0.0000000001
44
0.0000000001
40
0
40
0
40
0
40
1
40
1
40
1
10
-70.532889885834805
20
33.260527896993736
30
0
10
-69.615815198182872
20
32.498221475833581
30
0
10
-68.103267066399809
20
32.511468957068971
30
0
0
SPLINE
5
178
100
AcDbEntity
8
0
100
AcDbSpline
70
0
71
2
72
6
73
3
74
0
42
0.000000001
43
0.0000000001
44
0.0000000001
40
0
40
0
40
0
40
1
40
1
40
1
10
-68.103267066399809
20
32.511468957068971
30
0
10
-67.108906610130617
20
32.520177950329305
30
0
10
-66.341696112840438
20
32.877051238875055
30
0
0
SPLINE
5
179
100
AcDbEntity
8
0
100
AcDbSpline
70
0
71
2
72
6
73
3
74
0
42
0.000000001
43
0.0000000001
44
0.0000000001
40
0
40
0
40
0
40
1
40
1
40
1
10
-66.341696112840438
20
32.877051238875055
30
0
10
-65.560476677140102
20
33.23404722311875
30
0
10
-65.019677778914627
20
33.85505384626623
30
0
0
SPLINE
5
180
100
AcDbEntity
8
0
100
AcDbSpline
70
0
71
2
72
6
73
3
74
0
42
0.000000001
43
0.0000000001
44
0.0000000001
40
0
40
0
40
0
40
1
40
1
40
1
10
-65.019677778914627
20
33.85505384626623
30
0
10
-64.478878880689138
20
34.476060469413731
30
0
10
-64.206013445126175
20
35.304812208326773
30
0
0
SPLINE
5
181
100
AcDbEntity
8
0
100
AcDbSpline
70
0
71
2
72
6
73
3
74
0
42
0.000000001
43
0.0000000001
44
0.0000000001
40
0
40
0
40
0
40
1
40
1
40
1
10
-64.206013445126175
20
35.304812208326773
30
0
10
-63.919266503718504
20
36.147691963444728
30
0
10
-63.927607503848662
20
37.100036332908076
30
0
0
SPLINE
5
182
100
AcDbEntity
8
0
100
AcDbSpline
70
0
71
2
72
6
73
3
74
0
42
0.000000001
43
0.0000000001
44
0.0000000001
40
0
40
0
40
0
40
1
40
1
40
1
10
-63.927607503848662
20
37.100036332908076
30
0
10
-63.934476567999603
20
37.884320527313243
30
0
10
-64.191595066372827
20
38.456319967692274
30
0
0
SPLINE
5
183
100
AcDbEntity
8
0
100
AcDbSpline
70
0
71
2
72
6
73
3
74
0
42
0.000000001
43
0.0000000001
44
0.0000000001
40
0
40
0
40
0
40
1
40
1
40
1
10
-64.191595066372827
20
38.456319967692274
30
0
10
-64.434714167933507
20
39.028442616269572
30
0
10
-64.886188089240193
20
39.402653876659897
30
0
0
SPLINE
5
184
100
AcDbEntity
8
0
100
AcDbSpline
70
0
71
2
72
6
73
3
74
0
42
0.000000001
43
0.0000000001
44
0.0000000001
40
0
40
0
40
0
40
1
40
1
40
1
10
-64.886188089240193
20
39.402653876659897
30
0
10
-65.33766201576708
20
39.776865733073812
30
0
10
-65.969482426817322
20
39.95341210519701
30
0
0
SPLINE
5
185
100
AcDbEntity
8
0
100
AcDbSpline
70
0
71
2
72
6
73
3
74
0
42
0.000000001
43
0.0000000001
44
0.0000000001
40
0
40
0
40
0
40
1
40
1
40
1
10
-65.969482426817322
20
39.95341210519701
30
0
10
-66.587423710896999
20
40.144085876620707
30
0
10
-67.32969241451994
20
40.137584800379727
30
0
0
SPLINE
5
186
100
AcDbEntity
8
0
100
AcDbSpline
70
0
71
2
72
6
73
3
74
0
42
0.000000001
43
0.0000000001
44
0.0000000001
40
0
40
0
40
0
40
1
40
1
40
1
10
-67.32969241451994
20
40.137584800379727
30
0
10
-68.296042146251892
20
40.129121135872829
30
0
10
-69.063129979165353
20
39.758242485058503
30
0
0
SPLINE
5
187
100
AcDbEntity
8
0
100
AcDbSpline
70
0
71
2
72
6
73
3
74
0
42
0.000000001
43
0.0000000001
44
0.0000000001
40
0
40
0
40
0
40
1
40
1
40
1
10
-69.063129979165353
20
39.758242485058503
30
0
10
-69.830342865770106
20
39.401369771655524
30
0
10
-70.371141763995581
20
38.780363148508037
30
0
0
SPLINE
5
188
100
AcDbEntity
8
0
100
AcDbSpline
70
0
71
2
72
6
73
3
74
0
42
0.000000001
43
0.0000000001
44
0.0000000001
40
0
40
0
40
0
40
1
40
1
40
1
10
-70.371141763995581
20
38.780363148508037
30
0
10
-70.897938876094003
20
38.15947915841604
30
0
10
-71.184808476658191
20
37.330604169543093
30
0
0
SPLINE
5
189
100
AcDbEntity
8
0
100
AcDbSpline
70
0
71
2
72
6
73
3
74
0
42
0.000000001
43
0.0000000001
44
0.0000000001
40
0
40
0
40
0
40
1
40
1
40
1
10
-71.184808476658191
20
37.330604169543093
30
0
10
-71.457794187283312
20
36.515857217755901
30
0
10
-71.449698510686375
20
35.591522976806175
30
0
0
LWPOLYLINE
5
190
100
AcDbEntity
8
0
100
AcDbPolyline
90
16
70
1
43
0.0
10
-55.360253794298863
20
32.805157292823509
10
-51.642300798061285
20
40.078895100279759
10
-53.743059840559766
20
40.060495840506938
10
-56.023623773775817
20
34.984304859961327
10
-56.051632114218684
20
34.984059552088723
10
-56.319994047907898
20
40.037926054568004
10
-58.336723300889098
20
40.020262760174688
10
-60.518880523487937
20
34.902915545947927
10
-60.546888863930818
20
34.902670238075295
10
-60.871640229384226
20
39.998060977806347
10
-62.90237365258686
20
39.980275029476722
10
-62.040667358716554
20
32.746647648416399
10
-59.953912486439478
20
32.764924254252904
10
-57.757628429242502
20
37.868388760147397
10
-57.729620088799621
20
37.868634068020015
10
-57.433004496354513
20
32.787003340923306
0
LINE
5
191
100
AcDbEntity
8
0
100
AcDbLine
10
-46.29547723128514
20
37.282478219009988
30
0
11
-49.614680142256205
21
37.253407356830074
31
0
0
SPLINE
5
192
100
AcDbEntity
8
0
100
AcDbSpline
70
0
71
2
72
6
73
3
74
0
42
0.000000001
43
0.0000000001
44
0.0000000001
40
0
40
0
40
0
40
1
40
1
40
1
10
-49.614680142256205
20
37.253407356830074
30
0
10
-49.505335797752785
20
37.562499489470184
30
0
10
-49.353733624272031
20
37.843950051429189
30
0
0
SPLINE
5
193
100
AcDbEntity
8
0
100
AcDbSpline
70
0
71
2
72
6
73
3
74
0
42
0.000000001
43
0.0000000001
44
0.0000000001
40
0
40
0
40
0
40
1
40
1
40
1
10
-49.353733624272031
20
37.843950051429189
30
0
10
-49.188127285790053
20
38.125523863348093
30
0
10
-48.951882011348786
20
38.337684771390734
30
0
0
SPLINE
5
194
100
AcDbEntity
8
0
100
AcDbSpline
70
0
71
2
72
6
73
3
74
0
42
0.000000001
43
0.0000000001
44
0.0000000001
40
0
40
0
40
0
40
1
40
1
40
1
10
-48.951882011348786
20
38.337684771390734
30
0
10
-48.715631973939033
20
38.549846317218609
30
0
10
-48.394620939380758
20
38.678712805099892
30
0
0
SPLINE
5
195
100
AcDbEntity
8
0
100
AcDbSpline
70
0
71
2
72
6
73
3
74
0
42
0.000000001
43
0.0000000001
44
0.0000000001
40
0
40
0
40
0
40
1
40
1
40
1
10
-48.394620939380758
20
38.678712805099892
30
0
10
-48.073609910042691
20
38.807579889004771
30
0
10
-47.653456194267498
20
38.811259757663983
30
0
0
SPLINE
5
196
100
AcDbEntity
8
0
100
AcDbSpline
70
0
71
2
72
6
73
3
74
0
42
0.000000001
43
0.0000000001
44
0.0000000001
40
0
40
0
40
0
40
1
40
1
40
1
10
-47.653456194267498
20
38.811259757663983
30
0
10
-47.219298308270901
20
38.815062280259525
30
0
10
-46.951978151831383
20
38.677342187766243
30
0
0
SPLINE
5
197
100
AcDbEntity
8
0
100
AcDbSpline
70
0
71
2
72
6
73
3
74
0
42
0.000000001
43
0.0000000001
44
0.0000000001
40
0
40
0
40
0
40
1
40
1
40
1
10
-46.951978151831383
20
38.677342187766243
30
0
10
-46.684775886359652
20
38.553626903279621
30
0
10
-46.542762059502024
20
38.330772498057001
30
0
0
SPLINE
5
198
100
AcDbEntity
8
0
100
AcDbSpline
70
0
71
2
72
6
73
3
74
0
42
0.000000001
43
0.0000000001
44
0.0000000001
40
0
40
0
40
0
40
1
40
1
40
1
10
-46.542762059502024
20
38.330772498057001
30
0
10
-46.400748232644389
20
38.107918092834382
30
0
10
-46.35628248664765
20
37.828184769507047
30
0
0
SPLINE
5
199
100
AcDbEntity
8
0
100
AcDbSpline
70
0
71
2
72
6
73
3
74
0
42
0.000000001
43
0.0000000001
44
0.0000000001
40
0
40
0
40
0
40
1
40
1
40
1
10
-46.35628248664765
20
37.828184769507047
30
0
10
-46.297930466617565
20
37.562579504146278
30
0
10
-46.29547723128514
20
37.282478219009988
30
0
0
LINE
5
200
100
AcDbEntity
8
0
100
AcDbLine
10
-49.813712667739068
20
35.991111085125276
30
0
11
-44.477785271975527
21
36.037845199936839
31
0
0
SPLINE
5
201
100
AcDbEntity
8
0
100
AcDbSpline
70
0
71
2
72
6
73
3
74
0
42
0.000000001
43
0.0000000001
44
0.0000000001
40
0
40
0
40
0
40
1
40
1
40
1
10
-44.477785271975527
20
36.037845199936839
30
0
10
-44.371016832401423
20
36.641044576005413
30
0
10
-44.375677979532995
20
37.17323701776435
30
0
0
SPLINE
5
202
100
AcDbEntity
8
0
100
AcDbSpline
70
0
71
2
72
6
73
3
74
0
42
0.000000001
43
0.0000000001
44
0.0000000001
40
0
40
0
40
0
40
1
40
1
40
1
10
-44.375677979532995
20
37.17323701776435
30
0
10
-44.38254703846372
20
37.957520616145928
30
0
10
-44.639792969402372
20
38.543525377031933
30
0
0
SPLINE
5
203
100
AcDbEntity
8
0
100
AcDbSpline
70
0
71
2
72
6
73
3
74
0
42
0.000000001
43
0.0000000001
44
0.0000000001
40
0
40
0
40
0
40
1
40
1
40
1
10
-44.639792969402372
20
38.543525377031933
30
0
10
-44.883152626307592
20
39.143658195884477
30
0
10
-45.334749211991003
20
39.531874818543429
30
0
0
SPLINE
5
204
100
AcDbEntity
8
0
100
AcDbSpline
70
0
71
2
72
6
73
3
74
0
42
0.000000001
43
0.0000000001
44
0.0000000001
40
0
40
0
40
0
40
1
40
1
40
1
10
-45.334749211991003
20
39.531874818543429
30
0
10
-45.772464286609498
20
39.934218861383705
30
0
10
-46.404407362036466
20
40.124770595775487
30
0
0
SPLINE
5
205
100
AcDbEntity
8
0
100
AcDbSpline
70
0
71
2
72
6
73
3
74
0
42
0.000000001
43
0.0000000001
44
0.0000000001
40
0
40
0
40
0
40
1
40
1
40
1
10
-46.404407362036466
20
40.124770595775487
30
0
10
-47.02234626202177
20
40.315444388080017
30
0
10
-47.778623904054854
20
40.308820616141105
30
0
0
SPLINE
5
206
100
AcDbEntity
8
0
100
AcDbSpline
70
0
71
2
72
6
73
3
74
0
42
0.000000001
43
0.0000000001
44
0.0000000001
40
0
40
0
40
0
40
1
40
1
40
1
10
-47.778623904054854
20
40.308820616141105
30
0
10
-48.702956356933811
20
40.300724955204778
30
0
10
-49.441913190247888
20
39.916086846018032
30
0
0
SPLINE
5
207
100
AcDbEntity
8
0
100
AcDbSpline
70
0
71
2
72
6
73
3
74
0
42
0.000000001
43
0.0000000001
44
0.0000000001
40
0
40
0
40
0
40
1
40
1
40
1
10
-49.441913190247888
20
39.916086846018032
30
0
10
-50.180992687938691
20
39.545454099099899
30
0
10
-50.693660581344595
20
38.910687421556418
30
0
0
SPLINE
5
208
100
AcDbEntity
8
0
100
AcDbSpline
70
0
71
2
72
6
73
3
74
0
42
0.000000001
43
0.0000000001
44
0.0000000001
40
0
40
0
40
0
40
1
40
1
40
1
10
-50.693660581344595
20
38.910687421556418
30
0
10
-51.19244696890577
20
38.290048760217879
30
0
10
-51.465430295436569
20
37.475301829311491
30
0
0
SPLINE
5
209
100
AcDbEntity
8
0
100
AcDbSpline
70
0
71
2
72
6
73
3
74
0
42
0.000000001
43
0.0000000001
44
0.0000000001
40
0
40
0
40
0
40
1
40
1
40
1
10
-51.465430295436569
20
37.475301829311491
30
0
10
-51.738541054532774
20
36.674560218912077
30
0
10
-51.730936019782106
20
35.806245638966018
30
0
0
SPLINE
5
210
100
AcDbEntity
8
0
100
AcDbSpline
70
0
71
2
72
6
73
3
74
0
42
0.000000001
43
0.0000000001
44
0.0000000001
40
0
40
0
40
0
40
1
40
1
40
1
10
-51.730936019782106
20
35.806245638966018
30
0
10
-51.724066960851403
20
35.021962040584441
30
0
10
-51.494834143764514
20
34.435712526087777
30
0
0
SPLINE
5
211
100
AcDbEntity
8
0
100
AcDbSpline
70
0
71
2
72
6
73
3
74
0
42
0.000000001
43
0.0000000001
44
0.0000000001
40
0
40
0
40
0
40
1
40
1
40
1
10
-51.494834143764514
20
34.435712526087777
30
0
10
-51.251597146015826
20
33.849584473480235
30
0
10
-50.827886236398534
20
33.44711718068006
30
0
0
SPLINE
5
212
100
AcDbEntity
8
0
100
AcDbSpline
70
0
71
2
72
6
73
3
74
0
42
0.000000001
43
0.0000000001
44
0.0000000001
40
0
40
0
40
0
40
1
40
1
40
1
10
-50.827886236398534
20
33.44711718068006
30
0
10
-50.404302759346685
20
33.058655208386853
30
0
10
-49.814372205024434
20
32.867736704233302
30
0
0
SPLINE
5
213
100
AcDbEntity
8
0
100
AcDbSpline
70
0
71
2
72
6
73
3
74
0
42
0.000000001
43
0.0000000001
44
0.0000000001
40
0
40
0
40
0
40
1
40
1
40
1
10
-49.814372205024434
20
32.867736704233302
30
0
10
-49.210437470040347
20
32.676939661968873
30
0
10
-48.482172936638861
20
32.683318084273537
30
0
0
SPLINE
5
214
100
AcDbEntity
8
0
100
AcDbSpline
70
0
71
2
72
6
73
3
74
0
42
0.000000001
43
0.0000000001
44
0.0000000001
40
0
40
0
40
0
40
1
40
1
40
1
10
-48.482172936638861
20
32.683318084273537
30
0
10
-47.697886954162911
20
32.690187164085089
30
0
10
-47.111022936175864
20
32.849394372316496
30
0
0
SPLINE
5
215
100
AcDbEntity
8
0
100
AcDbSpline
70
0
71
2
72
6
73
3
74
0
42
0.000000001
43
0.0000000001
44
0.0000000001
40
0
40
0
40
0
40
1
40
1
40
1
10
-47.111022936175864
20
32.849394372316496
30
0
10
-46.510154758407786
20
33.008725426531392
30
0
10
-46.064691255835172
20
33.320761420689557
30
0
0
SPLINE
5
216
100
AcDbEntity
8
0
100
AcDbSpline
70
0
71
2
72
6
73
3
74
0
42
0.000000001
43
0.0000000001
44
0.0000000001
40
0
40
0
40
0
40
1
40
1
40
1
10
-46.064691255835172
20
33.320761420689557
30
0
10
-45.619350428079699
20
33.6468039691635
30
0
10
-45.301283270700111
20
34.111791403184739
30
0
0
SPLINE
5
217
100
AcDbEntity
8
0
100
AcDbSpline
70
0
71
2
72
6
73
3
74
0
42
0.000000001
43
0.0000000001
44
0.0000000001
40
0
40
0
40
0
40
1
40
1
40
1
10
-45.301283270700111
20
34.111791403184739
30
0
10
-44.983216123760926
20
34.576780029253143
30
0
10
-44.750528043161772
20
35.195088098755186
30
0
0
LINE
5
218
100
AcDbEntity
8
0
100
AcDbLine
10
-44.750528043161772
20
35.195088098755186
30
0
11
-46.739244187511403
21
35.177670153996146
31
0
0
SPLINE
5
219
100
AcDbEntity
8
0
100
AcDbSpline
70
0
71
2
72
6
73
3
74
0
42
0.000000001
43
0.0000000001
44
0.0000000001
40
0
40
0
40
0
40
1
40
1
40
1
10
-46.739244187511403
20
35.177670153996146
30
0
10
-46.84981514446082
20
35.008628067900602
30
0
10
-46.988271777476385
20
34.825335311663821
30
0
0
SPLINE
5
220
100
AcDbEntity
8
0
100
AcDbSpline
70
0
71
2
72
6
73
3
74
0
42
0.000000001
43
0.0000000001
44
0.0000000001
40
0
40
0
40
0
40
1
40
1
40
1
10
-46.988271777476385
20
34.825335311663821
30
0
10
-47.112719482522223
20
34.642166443172172
30
0
10
-47.293561377080536
20
34.500520578123457
30
0
0
SPLINE
5
221
100
AcDbEntity
8
0
100
AcDbSpline
70
0
71
2
72
6
73
3
74
0
42
0.000000001
43
0.0000000001
44
0.0000000001
40
0
40
0
40
0
40
1
40
1
40
1
10
-47.293561377080536
20
34.500520578123457
30
0
10
-47.46039434366913
20
34.358998600819874
30
0
10
-47.697620901802942
20
34.258877014784559
30
0
0
SPLINE
5
222
100
AcDbEntity
8
0
100
AcDbSpline
70
0
71
2
72
6
73
3
74
0
42
0.000000001
43
0.0000000001
44
0.0000000001
40
0
40
0
40
0
40
1
40
1
40
1
10
-47.697620901802942
20
34.258877014784559
30
0
10
-47.920965964532449
20
34.172884637001331
30
0
10
-48.215072611937345
20
34.17030873729221
30
0
0
SPLINE
5
223
100
AcDbEntity
8
0
100
AcDbSpline
70
0
71
2
72
6
73
3
74
0
42
0.000000001
43
0.0000000001
44
0.0000000001
40
0
40
0
40
0
40
1
40
1
40
1
10
-48.215072611937345
20
34.17030873729221
30
0
10
-49.027366934856147
20
34.163194349608034
30
0
10
-49.422942071465101
20
34.551901629773873
30
0
0
SPLINE
5
224
100
AcDbEntity
8
0
100
AcDbSpline
70
0
71
2
72
6
73
3
74
0
42
0.000000001
43
0.0000000001
44
0.0000000001
40
0
40
0
40
0
40
1
40
1
40
1
10
-49.422942071465101
20
34.551901629773873
30
0
10
-49.818521976262808
20
34.940608868178074
30
0
10
-49.824041758370818
20
35.570837057746502
30
0
0
LINE
5
225
100
AcDbEntity
8
0
100
AcDbLine
10
-49.824041758370818
20
35.570837057746502
30
0
11
-49.825636363946977
21
35.75290319109687
31
0
0
SPLINE
5
226
100
AcDbEntity
8
0
100
AcDbSpline
70
0
71
2
72
6
73
3
74
0
42
0.000000001
43
0.0000000001
44
0.0000000001
40
0
40
0
40
0
40
1
40
1
40
1
10
-49.825636363946977
20
35.75290319109687
30
0
10
-49.826127000573052
20
35.808922256076954
30
0
10
-49.82661765807994
20
35.864943705151376
30
0
0
SPLINE
5
227
100
AcDbEntity
8
0
100
AcDbSpline
70
0
71
2
72
6
73
3
74
0
42
0.000000001
43
0.0000000001
44
0.0000000001
40
0
40
0
40
0
40
1
40
1
40
1
10
-49.82661765807994
20
35.864943705151376
30
0
10
-49.827108294705994
20
35.920962770131453
30
0
10
-49.813712667739068
20
35.991111085125276
30
0
0
LINE
5
228
100
AcDbEntity
8
0
100
AcDbLine
10
-42.525004264887187
20
40.158747907739389
30
0
11
-43.960129701181543
21
32.905003986512952
31
0
0
LINE
5
229
100
AcDbEntity
8
0
100
AcDbLine
10
-43.960129701181543
20
32.905003986512952
30
0
11
-41.985417727053338
21
32.922299277335675
31
0
0
LINE
5
230
100
AcDbEntity
8
0
100
AcDbLine
10
-41.985417727053338
20
32.922299277335675
30
0
11
-41.341264189892399
21
36.135347054955638
31
0
0
SPLINE
5
231
100
AcDbEntity
8
0
100
AcDbSpline
70
0
71
2
72
6
73
3
74
0
42
0.000000001
43
0.0000000001
44
0.0000000001
40
0
40
0
40
0
40
1
40
1
40
1
10
-41.341264189892399
20
36.135347054955623
30
0
10
-41.247273302873531
20
36.598373134519747
30
0
10
-41.096897741838774
20
37.019873743023297
30
0
0
SPLINE
5
232
100
AcDbEntity
8
0
100
AcDbSpline
70
0
71
2
72
6
73
3
74
0
42
0.000000001
43
0.0000000001
44
0.0000000001
40
0
40
0
40
0
40
1
40
1
40
1
10
-41.096897741838774
20
37.019873743023297
30
0
10
-40.932640680179524
20
37.45550296375535
30
0
10
-40.66949102380508
20
37.793955055993749
30
0
0
SPLINE
5
233
100
AcDbEntity
8
0
100
AcDbSpline
70
0
71
2
72
6
73
3
74
0
42
0.000000001
43
0.0000000001
44
0.0000000001
40
0
40
0
40
0
40
1
40
1
40
1
10
-40.66949102380508
20
37.793955055993749
30
0
10
-40.392332429020513
20
38.132529843930101
30
0
10
-40.001909086609579
20
38.332035262550463
30
0
0
SPLINE
5
234
100
AcDbEntity
8
0
100
AcDbSpline
70
0
71
2
72
6
73
3
74
0
42
0.000000001
43
0.0000000001
44
0.0000000001
40
0
40
0
40
0
40
1
40
1
40
1
10
-40.001909086609579
20
38.332035262550463
30
0
10
-39.59747680578851
20
38.53166337686875
30
0
10
-39.023267681200167
20
38.536692522350691
30
0
0
SPLINE
5
235
100
AcDbEntity
8
0
100
AcDbSpline
70
0
71
2
72
6
73
3
74
0
42
0.000000001
43
0.0000000001
44
0.0000000001
40
0
40
0
40
0
40
1
40
1
40
1
10
-39.023267681200167
20
38.536692522350691
30
0
10
-38.813195591501277
20
38.538532414918663
30
0
10
-38.602750750923931
20
38.498357454489629
30
0
0
SPLINE
5
236
100
AcDbEntity
8
0
100
AcDbSpline
70
0
71
2
72
6
73
3
74
0
42
0.000000001
43
0.0000000001
44
0.0000000001
40
0
40
0
40
0
40
1
40
1
40
1
10
-38.602750750923931
20
38.498357454489629
30
0
10
-38.392305905126378
20
38.458181898036997
30
0
10
-38.181861064549032
20
38.418006937607963
30
0
0
LINE
5
237
100
AcDbEntity
8
0
100
AcDbLine
10
-38.181861064549032
20
38.418006937607963
30
0
11
-37.792643610977578
21
40.354262978009558
31
0
0
SPLINE
5
238
100
AcDbEntity
8
0
100
AcDbSpline
70
0
71
2
72
6
73
3
74
0
42
0.000000001
43
0.0000000001
44
0.0000000001
40
0
40
0
40
0
40
1
40
1
40
1
10
-37.792643610977578
20
40.354262978009558
30
0
10
-38.101122416513853
20
40.393579915146347
30
0
10
-38.409233234140174
20
40.390881361500909
30
0
0
SPLINE
5
239
100
AcDbEntity
8
0
100
AcDbSpline
70
0
71
2
72
6
73
3
74
0
42
0.000000001
43
0.0000000001
44
0.0000000001
40
0
40
0
40
0
40
1
40
1
40
1
10
-38.409233234140174
20
40.390881361500909
30
0
10
-39.207523386837536
20
40.383889627753035
30
0
10
-39.890336106700474
20
39.985736813804586
30
0
0
SPLINE
5
240
100
AcDbEntity
8
0
100
AcDbSpline
70
0
71
2
72
6
73
3
74
0
42
0.000000001
43
0.0000000001
44
0.0000000001
40
0
40
0
40
0
40
1
40
1
40
1
10
-39.890336106700474
20
39.985736813804586
30
0
10
-40.55926732593889
20
39.60171261208464
30
0
10
-40.888762748610588
20
38.842495280698621
30
0
0
LINE
5
241
100
AcDbEntity
8
0
100
AcDbLine
10
-40.888762748610588
20
38.842495280698621
30
0
11
-40.917021180775393
21
38.870260059577987
31
0
0
LINE
5
242
100
AcDbEntity
8
0
100
AcDbLine
10
-40.917021180775393
20
38.870260059577987
30
0
11
-40.634322080276277
21
40.1753072331826
31
0
0
LINE
5
243
100
AcDbEntity
8
0
100
AcDbLine
10
-40.634322080276277
20
40.1753072331826
30
0
11
-42.525004264887187
21
40.158747907739389
31
0
0
LINE
5
244
100
AcDbEntity
8
0
100
AcDbLine
10
23.85101909510221
20
-38.128874630868623
30
0
11
21.764187782607852
21
-38.12508475940848
31
0
0
SPLINE
5
245
100
AcDbEntity
8
0
100
AcDbSpline
70
0
71
2
72
6
73
3
74
0
42
0.000000001
43
0.0000000001
44
0.0000000001
40
0
40
0
40
0
40
1
40
1
40
1
10
21.764187782607856
20
-38.12508475940848
30
0
10
21.760855748740134
20
-39.959815219951423
30
0
10
22.781711476646045
20
-40.816012577523608
30
0
0
SPLINE
5
246
100
AcDbEntity
8
0
100
AcDbSpline
70
0
71
2
72
6
73
3
74
0
42
0.000000001
43
0.0000000001
44
0.0000000001
40
0
40
0
40
0
40
1
40
1
40
1
10
22.781711476646045
20
-40.816012577523608
30
0
10
23.816572787518233
20
-41.672235370481417
30
0
10
25.91740968297885
20
-41.67605067732719
30
0
0
SPLINE
5
247
100
AcDbEntity
8
0
100
AcDbSpline
70
0
71
2
72
6
73
3
74
0
42
0.000000001
43
0.0000000001
44
0.0000000001
40
0
40
0
40
0
40
1
40
1
40
1
10
25.91740968297885
20
-41.67605067732719
30
0
10
26.631694176771603
20
-41.677347881562739
30
0
10
27.360314909318433
20
-41.49659770512713
30
0
0
SPLINE
5
248
100
AcDbEntity
8
0
100
AcDbSpline
70
0
71
2
72
6
73
3
74
0
42
0.000000001
43
0.0000000001
44
0.0000000001
40
0
40
0
40
0
40
1
40
1
40
1
10
27.360314909318433
20
-41.49659770512713
30
0
10
28.088910205946842
20
-41.329853405023911
30
0
10
28.663851405226399
20
-40.938740063358487
30
0
0
SPLINE
5
249
100
AcDbEntity
8
0
100
AcDbSpline
70
0
71
2
72
6
73
3
74
0
42
0.000000001
43
0.0000000001
44
0.0000000001
40
0
40
0
40
0
40
1
40
1
40
1
10
28.663851405226399
20
-40.938740063358487
30
0
10
29.252797884792887
20
-40.547652156528997
30
0
10
29.618087513357878
20
-39.91806215437785
30
0
0
SPLINE
5
250
100
AcDbEntity
8
0
100
AcDbSpline
70
0
71
2
72
6
73
3
74
0
42
0.000000001
43
0.0000000001
44
0.0000000001
40
0
40
0
40
0
40
1
40
1
40
1
10
29.618087513357878
20
-39.91806215437785
30
0
10
29.997383016090303
20
-39.28849878023604
30
0
10
29.999010880229029
20
-38.392141768417687
30
0
0
SPLINE
5
251
100
AcDbEntity
8
0
100
AcDbSpline
70
0
71
2
72
6
73
3
74
0
42
0.000000001
43
0.0000000001
44
0.0000000001
40
0
40
0
40
0
40
1
40
1
40
1
10
29.999010880229029
20
-38.392141768417687
30
0
10
30.000231779415554
20
-37.719873413508466
30
0
10
29.80499304998559
20
-37.257333532032014
30
0
0
SPLINE
5
252
100
AcDbEntity
8
0
100
AcDbSpline
70
0
71
2
72
6
73
3
74
0
42
0.000000001
43
0.0000000001
44
0.0000000001
40
0
40
0
40
0
40
1
40
1
40
1
10
29.80499304998559
20
-37.257333532032014
30
0
10
29.609754321638093
20
-36.794793054510095
30
0
10
29.246194298720518
20
-36.472003731604254
30
0
0
SPLINE
5
253
100
AcDbEntity
8
0
100
AcDbSpline
70
0
71
2
72
6
73
3
74
0
42
0.000000001
43
0.0000000001
44
0.0000000001
40
0
40
0
40
0
40
1
40
1
40
1
10
29.246194298720518
20
-36.472003731604254
30
0
10
28.896639557172321
20
-36.149239247488872
30
0
10
28.406800113591775
20
-35.9522709124115
30
0
0
SPLINE
5
254
100
AcDbEntity
8
0
100
AcDbSpline
70
0
71
2
72
6
73
3
74
0
42
0.000000001
43
0.0000000001
44
0.0000000001
40
0
40
0
40
0
40
1
40
1
40
1
10
28.406800113591775
20
-35.9522709124115
30
0
10
27.916986701975112
20
-35.741296702084213
30
0
10
27.329032201576918
20
-35.586167352859626
30
0
0
SPLINE
5
255
100
AcDbEntity
8
0
100
AcDbSpline
70
0
71
2
72
6
73
3
74
0
42
0.000000001
43
0.0000000001
44
0.0000000001
40
0
40
0
40
0
40
1
40
1
40
1
10
27.329032201576918
20
-35.586167352859626
30
0
10
27.077033533511681
20
-35.529687202831958
30
0
10
26.671024076771769
20
-35.444916106494894
30
0
0
SPLINE
5
256
100
AcDbEntity
8
0
100
AcDbSpline
70
0
71
2
72
6
73
3
74
0
42
0.000000001
43
0.0000000001
44
0.0000000001
40
0
40
0
40
0
40
1
40
1
40
1
10
26.671024076771769
20
-35.444916106494894
30
0
10
26.265040353972985
20
-35.346139134366666
30
0
10
25.873163949910069
20
-35.191365880422424
30
0
0
SPLINE
5
257
100
AcDbEntity
8
0
100
AcDbSpline
70
0
71
2
72
6
73
3
74
0
42
0.000000001
43
0.0000000001
44
0.0000000001
40
0
40
0
40
0
40
1
40
1
40
1
10
25.873163949910069
20
-35.191365880422424
30
0
10
25.495318560075212
20
-35.022612185522945
30
0
10
25.215639395835066
20
-34.784008348692623
30
0
0
SPLINE
5
258
100
AcDbEntity
8
0
100
AcDbSpline
70
0
71
2
72
6
73
3
74
0
42
0.000000001
43
0.0000000001
44
0.0000000001
40
0
40
0
40
0
40
1
40
1
40
1
10
25.215639395835066
20
-34.784008348692623
30
0
10
24.949991244740506
20
-34.531424666952525
30
0
10
24.950652564546871
20
-34.167279630901326
30
0
0
SPLINE
5
259
100
AcDbEntity
8
0
100
AcDbSpline
70
0
71
2
72
6
73
3
74
0
42
0.000000001
43
0.0000000001
44
0.0000000001
40
0
40
0
40
0
40
1
40
1
40
1
10
24.950652564546871
20
-34.167279630901326
30
0
10
24.951288449517293
20
-33.817139875137052
30
0
10
25.105782211794185
20
-33.579325131044364
30
0
0
SPLINE
5
260
100
AcDbEntity
8
0
100
AcDbSpline
70
0
71
2
72
6
73
3
74
0
42
0.000000001
43
0.0000000001
44
0.0000000001
40
0
40
0
40
0
40
1
40
1
40
1
10
25.105782211794185
20
-33.579325131044364
30
0
10
25.260275975153554
20
-33.341509790906237
30
0
10
25.512630738499137
20
-33.201911844598641
30
0
0
SPLINE
5
261
100
AcDbEntity
8
0
100
AcDbSpline
70
0
71
2
72
6
73
3
74
0
42
0.000000001
43
0.0000000001
44
0.0000000001
40
0
40
0
40
0
40
1
40
1
40
1
10
25.512630738499137
20
-33.201911844598641
30
0
10
25.765010936680657
20
-33.048308618004107
30
0
10
26.073235401001895
20
-32.992845883063147
30
0
0
SPLINE
5
262
100
AcDbEntity
8
0
100
AcDbSpline
70
0
71
2
72
6
73
3
74
0
42
0.000000001
43
0.0000000001
44
0.0000000001
40
0
40
0
40
0
40
1
40
1
40
1
10
26.073235401001895
20
-32.992845883063147
30
0
10
26.395490879551176
20
-32.923402707166964
30
0
10
26.703613602363738
20
-32.923962285464654
30
0
0
SPLINE
5
263
100
AcDbEntity
8
0
100
AcDbSpline
70
0
71
2
72
6
73
3
74
0
42
0.000000001
43
0.0000000001
44
0.0000000001
40
0
40
0
40
0
40
1
40
1
40
1
10
26.703613602363738
20
-32.923962285464654
30
0
10
27.081764514747331
20
-32.924649041189426
30
0
10
27.417745781916217
20
-33.009292960099408
30
0
0
SPLINE
5
264
100
AcDbEntity
8
0
100
AcDbSpline
70
0
71
2
72
6
73
3
74
0
42
0.000000001
43
0.0000000001
44
0.0000000001
40
0
40
0
40
0
40
1
40
1
40
1
10
27.417745781916217
20
-33.009292960099408
30
0
10
27.753752483921019
20
-33.079931598722482
30
0
10
27.991516357800585
20
-33.262436219595962
30
0
0
SPLINE
5
265
100
AcDbEntity
8
0
100
AcDbSpline
70
0
71
2
72
6
73
3
74
0
42
0.000000001
43
0.0000000001
44
0.0000000001
40
0
40
0
40
0
40
1
40
1
40
1
10
27.991516357800585
20
-33.262436219595962
30
0
10
28.243286106930082
20
-33.444966872433312
30
0
10
28.368802467360482
20
-33.739312637849224
30
0
0
SPLINE
5
266
100
AcDbEntity
8
0
100
AcDbSpline
70
0
71
2
72
6
73
3
74
0
42
0.000000001
43
0.0000000001
44
0.0000000001
40
0
40
0
40
0
40
1
40
1
40
1
10
28.368802467360482
20
-33.739312637849224
30
0
10
28.508349542913756
20
-34.019678557814139
30
0
10
28.493580604183855
20
-34.439821067231044
30
0
0
LINE
5
267
100
AcDbEntity
8
0
100
AcDbLine
10
28.493580604183855
20
-34.439821067231044
30
0
11
30.580412070346181
21
-34.443610938970259
31
0
0
SPLINE
5
268
100
AcDbEntity
8
0
100
AcDbSpline
70
0
71
2
72
6
73
3
74
0
42
0.000000001
43
0.0000000001
44
0.0000000001
40
0
40
0
40
0
40
1
40
1
40
1
10
30.580412070346181
20
-34.443610938970259
30
0
10
30.581989064813051
20
-33.575264487725768
30
0
10
30.274960062677465
20
-32.972465340135358
30
0
0
SPLINE
5
269
100
AcDbEntity
8
0
100
AcDbSpline
70
0
71
2
72
6
73
3
74
0
42
0.000000001
43
0.0000000001
44
0.0000000001
40
0
40
0
40
0
40
1
40
1
40
1
10
30.274960062677465
20
-32.972465340135358
30
0
10
29.981962372792673
20
-32.355685752130967
30
0
10
29.464467867873154
20
-31.962588449963995
30
0
0
SPLINE
5
270
100
AcDbEntity
8
0
100
AcDbSpline
70
0
71
2
72
6
73
3
74
0
42
0.000000001
43
0.0000000001
44
0.0000000001
40
0
40
0
40
0
40
1
40
1
40
1
10
29.464467867873154
20
-31.962588449963995
30
0
10
28.960979239286022
20
-31.56951658371543
30
0
10
28.275010828615883
20
-31.400203309977041
30
0
0
SPLINE
5
271
100
AcDbEntity
8
0
100
AcDbSpline
70
0
71
2
72
6
73
3
74
0
42
0.000000001
43
0.0000000001
44
0.0000000001
40
0
40
0
40
0
40
1
40
1
40
1
10
28.275010828615883
20
-31.400203309977041
30
0
10
27.603073730196535
20
-31.21690959582466
30
0
10
26.832767221187872
20
-31.21551065062167
30
0
0
SPLINE
5
272
100
AcDbEntity
8
0
100
AcDbSpline
70
0
71
2
72
6
73
3
74
0
42
0.000000001
43
0.0000000001
44
0.0000000001
40
0
40
0
40
0
40
1
40
1
40
1
10
26.832767221187872
20
-31.21551065062167
30
0
10
26.104476851062735
20
-31.214188010467719
30
0
10
25.389861696825573
20
-31.3949636222805
30
0
0
SPLINE
5
273
100
AcDbEntity
8
0
100
AcDbSpline
70
0
71
2
72
6
73
3
74
0
42
0.000000001
43
0.0000000001
44
0.0000000001
40
0
40
0
40
0
40
1
40
1
40
1
10
25.389861696825573
20
-31.3949636222805
30
0
10
24.689277556816482
20
-31.561758793138061
30
0
10
24.128367520776358
20
-31.938891694118873
30
0
0
SPLINE
5
274
100
AcDbEntity
8
0
100
AcDbSpline
70
0
71
2
72
6
73
3
74
0
42
0.000000001
43
0.0000000001
44
0.0000000001
40
0
40
0
40
0
40
1
40
1
40
1
10
24.128367520776358
20
-31.938891694118873
30
0
10
23.567483068583531
20
-32.302019315083371
30
0
10
23.216275325000947
20
-32.889617719659967
30
0
0
SPLINE
5
275
100
AcDbEntity
8
0
100
AcDbSpline
70
0
71
2
72
6
73
3
74
0
42
0.000000001
43
0.0000000001
44
0.0000000001
40
0
40
0
40
0
40
1
40
1
40
1
10
23.216275325000947
20
-32.889617719659967
30
0
10
22.86506750691267
20
-33.477216124101254
30
0
10
22.863541383200143
20
-34.317551418726424
30
0
0
SPLINE
5
276
100
AcDbEntity
8
0
100
AcDbSpline
70
0
71
2
72
6
73
3
74
0
42
0.000000001
43
0.0000000001
44
0.0000000001
40
0
40
0
40
0
40
1
40
1
40
1
10
22.863541383200143
20
-34.317551418726424
30
0
10
22.862371355850431
20
-34.961808020970857
30
0
10
23.07164117293167
20
-35.410368057672862
30
0
0
SPLINE
5
277
100
AcDbEntity
8
0
100
AcDbSpline
70
0
71
2
72
6
73
3
74
0
42
0.000000001
43
0.0000000001
44
0.0000000001
40
0
40
0
40
0
40
1
40
1
40
1
10
23.07164117293167
20
-35.410368057672862
30
0
10
23.294916493816903
20
-35.858953529616706
30
0
10
23.64449637326075
20
-36.167712136858462
30
0
0
SPLINE
5
278
100
AcDbEntity
8
0
100
AcDbSpline
70
0
71
2
72
6
73
3
74
0
42
0.000000001
43
0.0000000001
44
0.0000000001
40
0
40
0
40
0
40
1
40
1
40
1
10
23.64449637326075
20
-36.167712136858462
30
0
10
24.00808183101427
20
-36.47649617947738
30
0
10
24.455904390654464
20
-36.67338820815263
30
0
0
SPLINE
5
279
100
AcDbEntity
8
0
100
AcDbSpline
70
0
71
2
72
6
73
3
74
0
42
0.000000001
43
0.0000000001
44
0.0000000001
40
0
40
0
40
0
40
1
40
1
40
1
10
24.455904390654464
20
-36.67338820815263
30
0
10
24.903726801283291
20
-36.87028023655725
30
0
10
25.379662110040115
20
-37.011200822477576
30
0
0
SPLINE
5
280
100
AcDbEntity
8
0
100
AcDbSpline
70
0
71
2
72
6
73
3
74
0
42
0.000000001
43
0.0000000001
44
0.0000000001
40
0
40
0
40
0
40
1
40
1
40
1
10
25.379662110040115
20
-37.011200822477576
30
0
10
25.841591840487276
20
-37.152095973020735
30
0
10
26.289541428543171
20
-37.278959811854307
30
0
0
SPLINE
5
281
100
AcDbEntity
8
0
100
AcDbSpline
70
0
71
2
72
6
73
3
74
0
42
0.000000001
43
0.0000000001
44
0.0000000001
40
0
40
0
40
0
40
1
40
1
40
1
10
26.289541428543171
20
-37.278959811854307
30
0
10
26.751496593826261
20
-37.405849682110535
30
0
10
27.101331125064529
20
-37.574552506796913
30
0
0
SPLINE
5
282
100
AcDbEntity
8
0
100
AcDbSpline
70
0
71
2
72
6
73
3
74
0
42
0.000000001
43
0.0000000001
44
0.0000000001
40
0
40
0
40
0
40
1
40
1
40
1
10
27.101331125064529
20
-37.574552506796913
30
0
10
27.465170936589715
20
-37.743280766319202
30
0
10
27.688827787591215
20
-37.981782861640866
30
0
0
SPLINE
5
283
100
AcDbEntity
8
0
100
AcDbSpline
70
0
71
2
72
6
73
3
74
0
42
0.000000001
43
0.0000000001
44
0.0000000001
40
0
40
0
40
0
40
1
40
1
40
1
10
27.688827787591215
20
-37.981782861640866
30
0
10
27.912510074511125
20
-38.206279080630132
30
0
10
27.911848755787236
20
-38.57042352063587
30
0
0
SPLINE
5
284
100
AcDbEntity
8
0
100
AcDbSpline
70
0
71
2
72
6
73
3
74
0
42
0.000000001
43
0.0000000001
44
0.0000000001
40
0
40
0
40
0
40
1
40
1
40
1
10
27.911848755787236
20
-38.57042352063587
30
0
10
27.911161998979999
20
-38.948575029064934
30
0
10
27.728605911306722
20
-39.214350058481358
30
0
0
SPLINE
5
285
100
AcDbEntity
8
0
100
AcDbSpline
70
0
71
2
72
6
73
3
74
0
42
0.000000001
43
0.0000000001
44
0.0000000001
40
0
40
0
40
0
40
1
40
1
40
1
10
27.728605911306722
20
-39.214350058481358
30
0
10
27.560055699965833
20
-39.480150523816192
30
0
10
27.279638909246593
20
-39.647708755988774
30
0
0
SPLINE
5
286
100
AcDbEntity
8
0
100
AcDbSpline
70
0
71
2
72
6
73
3
74
0
42
0.000000001
43
0.0000000001
44
0.0000000001
40
0
40
0
40
0
40
1
40
1
40
1
10
27.279638909246593
20
-39.647708755988774
30
0
10
27.013227994859733
20
-39.815292424079765
30
0
10
26.676941204059638
20
-39.898716040389942
30
0
0
SPLINE
5
287
100
AcDbEntity
8
0
100
AcDbSpline
70
0
71
2
72
6
73
3
74
0
42
0.000000001
43
0.0000000001
44
0.0000000001
40
0
40
0
40
0
40
1
40
1
40
1
10
26.676941204059638
20
-39.898716040389942
30
0
10
26.340654713447229
20
-39.98213846515042
30
0
10
26.004520834015349
20
-39.981528016098402
30
0
0
SPLINE
5
288
100
AcDbEntity
8
0
100
AcDbSpline
70
0
71
2
72
6
73
3
74
0
42
0.000000001
43
0.0000000001
44
0.0000000001
40
0
40
0
40
0
40
1
40
1
40
1
10
26.004520834015349
20
-39.981528016098402
30
0
10
25.528331171486851
20
-39.980663213274703
30
0
10
25.122322011687196
20
-39.895892713524326
30
0
0
SPLINE
5
289
100
AcDbEntity
8
0
100
AcDbSpline
70
0
71
2
72
6
73
3
74
0
42
0.000000001
43
0.0000000001
44
0.0000000001
40
0
40
0
40
0
40
1
40
1
40
1
10
25.122322011687196
20
-39.895892713524326
30
0
10
24.716338289970889
20
-39.797115145350645
30
0
10
24.422602675584265
20
-39.58649762580793
30
0
0
SPLINE
5
290
100
AcDbEntity
8
0
100
AcDbSpline
70
0
71
2
72
6
73
3
74
0
42
0.000000001
43
0.0000000001
44
0.0000000001
40
0
40
0
40
0
40
1
40
1
40
1
10
24.422602675584265
20
-39.58649762580793
30
0
10
24.128866912186279
20
-39.375880105994597
30
0
10
23.975441435750433
20
-39.025460561081474
30
0
0
SPLINE
5
291
100
AcDbEntity
8
0
100
AcDbSpline
70
0
71
2
72
6
73
3
74
0
42
0.000000001
43
0.0000000001
44
0.0000000001
40
0
40
0
40
0
40
1
40
1
40
1
10
23.975441435750433
20
-39.025460561081474
30
0
10
23.822041395232986
20
-38.661035139835967
30
0
10
23.85101909510221
20
-38.128874630868623
30
0
0
LINE
5
292
100
AcDbEntity
8
0
100
AcDbLine
10
36.262531494177203
20
-36.736846669634929
30
0
11
38.251323018103697
21
-36.740458492110271
31
0
0
SPLINE
5
293
100
AcDbEntity
8
0
100
AcDbSpline
70
0
71
2
72
6
73
3
74
0
42
0.000000001
43
0.0000000001
44
0.0000000001
40
0
40
0
40
0
40
1
40
1
40
1
10
38.251323018103697
20
-36.740458492110271
30
0
10
38.238615537556548
20
-36.026148862586787
30
0
10
37.973449765101215
20
-35.507458893316681
30
0
0
SPLINE
5
294
100
AcDbEntity
8
0
100
AcDbSpline
70
0
71
2
72
6
73
3
74
0
42
0.000000001
43
0.0000000001
44
0.0000000001
40
0
40
0
40
0
40
1
40
1
40
1
10
37.973449765101215
20
-35.507458893316681
30
0
10
37.722291059986745
20
-34.988794958175397
30
0
10
37.274697568293661
20
-34.665852426961067
30
0
0
SPLINE
5
295
100
AcDbEntity
8
0
100
AcDbSpline
70
0
71
2
72
6
73
3
74
0
42
0.000000001
43
0.0000000001
44
0.0000000001
40
0
40
0
40
0
40
1
40
1
40
1
10
37.274697568293661
20
-34.665852426961067
30
0
10
36.841108759759571
20
-34.342935925545682
30
0
10
36.253154856489331
20
-34.187805981358103
30
0
0
SPLINE
5
296
100
AcDbEntity
8
0
100
AcDbSpline
70
0
71
2
72
6
73
3
74
0
42
0.000000001
43
0.0000000001
44
0.0000000001
40
0
40
0
40
0
40
1
40
1
40
1
10
36.253154856489331
20
-34.187805981358103
30
0
10
35.66519976112815
20
-34.032676035005565
30
0
10
35.006937878596766
20
-34.03148057281993
30
0
0
SPLINE
5
297
100
AcDbEntity
8
0
100
AcDbSpline
70
0
71
2
72
6
73
3
74
0
42
0.000000001
43
0.0000000001
44
0.0000000001
40
0
40
0
40
0
40
1
40
1
40
1
10
35.006937878596766
20
-34.03148057281993
30
0
10
34.026546800874996
20
-34.029700095335713
30
0
10
33.269584847309886
20
-34.392472218147809
30
0
0
SPLINE
5
298
100
AcDbEntity
8
0
100
AcDbSpline
70
0
71
2
72
6
73
3
74
0
42
0.000000001
43
0.0000000001
44
0.0000000001
40
0
40
0
40
0
40
1
40
1
40
1
10
33.269584847309886
20
-34.392472218147809
30
0
10
32.512647138654749
20
-34.741237866417094
30
0
10
31.979291166419287
20
-35.370522645124694
30
0
0
SPLINE
5
299
100
AcDbEntity
8
0
100
AcDbSpline
70
0
71
2
72
6
73
3
74
0
42
0.000000001
43
0.0000000001
44
0.0000000001
40
0
40
0
40
0
40
1
40
1
40
1
10
31.979291166419287
20
-35.370522645124694
30
0
10
31.459965314343691
20
-35.985826981253375
30
0
10
31.178353060356329
20
-36.811647692002786
30
0
0
SPLINE
5
300
100
AcDbEntity
8
0
100
AcDbSpline
70
0
71
2
72
6
73
3
74
0
42
0.000000001
43
0.0000000001
44
0.0000000001
40
0
40
0
40
0
40
1
40
1
40
1
10
31.178353060356329
20
-36.811647692002786
30
0
10
30.910772119702234
20
-37.62348736629275
30
0
10
30.909093383726702
20
-38.547856130775891
30
0
0
SPLINE
5
301
100
AcDbEntity
8
0
100
AcDbSpline
70
0
71
2
72
6
73
3
74
0
42
0.000000001
43
0.0000000001
44
0.0000000001
40
0
40
0
40
0
40
1
40
1
40
1
10
30.909093383726702
20
-38.547856130775891
30
0
10
30.906193751812072
20
-40.144491462031866
30
0
10
31.745154938942232
20
-40.902319409429126
30
0
0
SPLINE
5
302
100
AcDbEntity
8
0
100
AcDbSpline
70
0
71
2
72
6
73
3
74
0
42
0.000000001
43
0.0000000001
44
0.0000000001
40
0
40
0
40
0
40
1
40
1
40
1
10
31.745154938942232
20
-40.902319409429126
30
0
10
32.598147438323217
20
-41.64616691641239
30
0
10
34.124754580008137
20
-41.648939370899939
30
0
0
SPLINE
5
303
100
AcDbEntity
8
0
100
AcDbSpline
70
0
71
2
72
6
73
3
74
0
42
0.000000001
43
0.0000000001
44
0.0000000001
40
0
40
0
40
0
40
1
40
1
40
1
10
34.124754580008137
20
-41.648939370899939
30
0
10
35.55332416363909
20
-41.651533780453526
30
0
10
36.479015567734962
20
-40.924922444326661
30
0
0
SPLINE
5
304
100
AcDbEntity
8
0
100
AcDbSpline
70
0
71
2
72
6
73
3
74
0
42
0.000000001
43
0.0000000001
44
0.0000000001
40
0
40
0
40
0
40
1
40
1
40
1
10
36.479015567734962
20
-40.924922444326661
30
0
10
37.418737091990678
20
-40.184330665620855
30
0
10
37.869382830026346
20
-38.826603203630299
30
0
0
LINE
5
305
100
AcDbEntity
8
0
100
AcDbLine
10
37.869382830026346
20
-38.826603203630299
30
0
11
35.880590114008925
21
-38.822991378990011
31
0
0
SPLINE
5
306
100
AcDbEntity
8
0
100
AcDbSpline
70
0
71
2
72
6
73
3
74
0
42
0.000000001
43
0.0000000001
44
0.0000000001
40
0
40
0
40
0
40
1
40
1
40
1
10
35.880590114008925
20
-38.822991378990011
30
0
10
35.796073968571477
20
-39.08894445767033
30
0
10
35.655559751557895
20
-39.340791108435546
30
0
0
SPLINE
5
307
100
AcDbEntity
8
0
100
AcDbSpline
70
0
71
2
72
6
73
3
74
0
42
0.000000001
43
0.0000000001
44
0.0000000001
40
0
40
0
40
0
40
1
40
1
40
1
10
35.655559751557895
20
-39.340791108435546
30
0
10
35.529078038886055
20
-39.578657320951727
30
0
10
35.318662811893454
20
-39.760347412627908
30
0
0
SPLINE
5
308
100
AcDbEntity
8
0
100
AcDbSpline
70
0
71
2
72
6
73
3
74
0
42
0.000000001
43
0.0000000001
44
0.0000000001
40
0
40
0
40
0
40
1
40
1
40
1
10
35.318662811893454
20
-39.760347412627908
30
0
10
35.122254651159245
20
-39.942064134478372
30
0
10
34.855945478281065
20
-40.053625489330713
30
0
0
SPLINE
5
309
100
AcDbEntity
8
0
100
AcDbSpline
70
0
71
2
72
6
73
3
74
0
42
0.000000001
43
0.0000000001
44
0.0000000001
40
0
40
0
40
0
40
1
40
1
40
1
10
34.855945478281065
20
-40.053625489330713
30
0
10
34.603640989644354
20
-40.165212277936519
30
0
10
34.267507110212463
20
-40.1646018288845
30
0
0
SPLINE
5
310
100
AcDbEntity
8
0
100
AcDbSpline
70
0
71
2
72
6
73
3
74
0
42
0.000000001
43
0.0000000001
44
0.0000000001
40
0
40
0
40
0
40
1
40
1
40
1
10
34.267507110212463
20
-40.1646018288845
30
0
10
33.889356793874335
20
-40.163915074242198
30
0
10
33.623478830858303
20
-40.037381297642625
30
0
0
SPLINE
5
311
100
AcDbEntity
8
0
100
AcDbSpline
70
0
71
2
72
6
73
3
74
0
42
0.000000001
43
0.0000000001
44
0.0000000001
40
0
40
0
40
0
40
1
40
1
40
1
10
33.623478830858303
20
-40.037381297642625
30
0
10
33.371607934100666
20
-39.910874151217321
30
0
10
33.203922526665941
20
-39.700484357978191
30
0
0
SPLINE
5
312
100
AcDbEntity
8
0
100
AcDbSpline
70
0
71
2
72
6
73
3
74
0
42
0.000000001
43
0.0000000001
44
0.0000000001
40
0
40
0
40
0
40
1
40
1
40
1
10
33.203922526665941
20
-39.700484357978191
30
0
10
33.036237117066285
20
-39.490095756829987
30
0
10
32.966717635038599
20
-39.209857013209685
30
0
0
SPLINE
5
313
100
AcDbEntity
8
0
100
AcDbSpline
70
0
71
2
72
6
73
3
74
0
42
0.000000001
43
0.0000000001
44
0.0000000001
40
0
40
0
40
0
40
1
40
1
40
1
10
32.966717635038599
20
-39.209857013209685
30
0
10
32.897223588929315
20
-38.915612393256971
30
0
10
32.897808602062931
20
-38.593484390157485
30
0
0
SPLINE
5
314
100
AcDbEntity
8
0
100
AcDbSpline
70
0
71
2
72
6
73
3
74
0
42
0.000000001
43
0.0000000001
44
0.0000000001
40
0
40
0
40
0
40
1
40
1
40
1
10
32.897808602062931
20
-38.593484390157485
30
0
10
32.898647970050703
20
-38.131300007915925
30
0
10
32.997654455536427
20
-37.599266677458118
30
0
0
SPLINE
5
315
100
AcDbEntity
8
0
100
AcDbSpline
70
0
71
2
72
6
73
3
74
0
42
0.000000001
43
0.0000000001
44
0.0000000001
40
0
40
0
40
0
40
1
40
1
40
1
10
32.997654455536427
20
-37.599266677458118
30
0
10
33.110691062264493
20
-37.053252308375917
30
0
10
33.349624366365845
20
-36.591500921967956
30
0
0
SPLINE
5
316
100
AcDbEntity
8
0
100
AcDbSpline
70
0
71
2
72
6
73
3
74
0
42
0.000000001
43
0.0000000001
44
0.0000000001
40
0
40
0
40
0
40
1
40
1
40
1
10
33.349624366365845
20
-36.591500921967956
30
0
10
33.5885588636406
20
-36.129748941679473
30
0
10
33.981249199772876
20
-35.836343689714546
30
0
0
SPLINE
5
317
100
AcDbEntity
8
0
100
AcDbSpline
70
0
71
2
72
6
73
3
74
0
42
0.000000001
43
0.0000000001
44
0.0000000001
40
0
40
0
40
0
40
1
40
1
40
1
10
33.981249199772876
20
-35.836343689714546
30
0
10
34.373964970741099
20
-35.528933157462681
30
0
10
34.934188103127561
20
-35.529950572549389
30
0
0
SPLINE
5
318
100
AcDbEntity
8
0
100
AcDbSpline
70
0
71
2
72
6
73
3
74
0
42
0.000000001
43
0.0000000001
44
0.0000000001
40
0
40
0
40
0
40
1
40
1
40
1
10
34.934188103127561
20
-35.529950572549389
30
0
10
35.606455861991321
20
-35.531171470653426
30
0
10
35.928076349638388
20
-35.811868052145229
30
0
0
SPLINE
5
319
100
AcDbEntity
8
0
100
AcDbSpline
70
0
71
2
72
6
73
3
74
0
42
0.000000001
43
0.0000000001
44
0.0000000001
40
0
40
0
40
0
40
1
40
1
40
1
10
35.928076349638388
20
-35.811868052145229
30
0
10
36.263701521526905
20
-36.092590067390489
30
0
10
36.262531494177203
20
-36.736846669634929
30
0
0
LINE
5
320
100
AcDbEntity
8
0
100
AcDbLine
10
39.40034180593004
20
-36.434421473472874
30
0
11
41.263082827046851
21
-36.437804377012462
31
0
0
SPLINE
5
321
100
AcDbEntity
8
0
100
AcDbSpline
70
0
71
2
72
6
73
3
74
0
42
0.000000001
43
0.0000000001
44
0.0000000001
40
0
40
0
40
0
40
1
40
1
40
1
10
41.263082827046851
20
-36.437804377012462
30
0
10
41.362114748450978
20
-35.891765170222271
30
0
10
41.78274053057531
20
-35.640427823045869
30
0
0
SPLINE
5
322
100
AcDbEntity
8
0
100
AcDbSpline
70
0
71
2
72
6
73
3
74
0
42
0.000000001
43
0.0000000001
44
0.0000000001
40
0
40
0
40
0
40
1
40
1
40
1
10
41.78274053057531
20
-35.640427823045869
30
0
10
42.203390556527118
20
-35.375084597372123
30
0
10
42.735601936248806
20
-35.376051140622017
30
0
0
SPLINE
5
323
100
AcDbEntity
8
0
100
AcDbSpline
70
0
71
2
72
6
73
3
74
0
42
0.000000001
43
0.0000000001
44
0.0000000001
40
0
40
0
40
0
40
1
40
1
40
1
10
42.735601936248806
20
-35.376051140622017
30
0
10
42.931679436538595
20
-35.376407234819894
30
0
10
43.141687698578998
20
-35.41880580005283
30
0
0
SPLINE
5
324
100
AcDbEntity
8
0
100
AcDbSpline
70
0
71
2
72
6
73
3
74
0
42
0.000000001
43
0.0000000001
44
0.0000000001
40
0
40
0
40
0
40
1
40
1
40
1
10
43.141687698578998
20
-35.41880580005283
30
0
10
43.365726080779226
20
-35.44722392270684
30
0
10
43.547620849728631
20
-35.545593333296146
30
0
0
SPLINE
5
325
100
AcDbEntity
8
0
100
AcDbSpline
70
0
71
2
72
6
73
3
74
0
42
0.000000001
43
0.0000000001
44
0.0000000001
40
0
40
0
40
0
40
1
40
1
40
1
10
43.547620849728631
20
-35.545593333296146
30
0
10
43.743520301837016
20
-35.643988773684391
30
0
10
43.869266772211631
20
-35.812284634501019
30
0
0
SPLINE
5
326
100
AcDbEntity
8
0
100
AcDbSpline
70
0
71
2
72
6
73
3
74
0
42
0.000000001
43
0.0000000001
44
0.0000000001
40
0
40
0
40
0
40
1
40
1
40
1
10
43.869266772211631
20
-35.812284634501019
30
0
10
43.99501085840437
20
-35.980580490987762
30
0
10
43.994502150861017
20
-36.260692057180997
30
0
0
SPLINE
5
327
100
AcDbEntity
8
0
100
AcDbSpline
70
0
71
2
72
6
73
3
74
0
42
0.000000001
43
0.0000000001
44
0.0000000001
40
0
40
0
40
0
40
1
40
1
40
1
10
43.994502150861017
20
-36.260692057180997
30
0
10
43.993866265890595
20
-36.610831812945271
30
0
10
43.825467474721776
20
-36.792598806257189
30
0
0
SPLINE
5
328
100
AcDbEntity
8
0
100
AcDbSpline
70
0
71
2
72
6
73
3
74
0
42
0.000000001
43
0.0000000001
44
0.0000000001
40
0
40
0
40
0
40
1
40
1
40
1
10
43.825467474721776
20
-36.792598806257189
30
0
10
43.657096502570752
20
-36.960360523612053
30
0
10
43.306779890715987
20
-37.057763986996946
30
0
0
SPLINE
5
329
100
AcDbEntity
8
0
100
AcDbSpline
70
0
71
2
72
6
73
3
74
0
42
0.000000001
43
0.0000000001
44
0.0000000001
40
0
40
0
40
0
40
1
40
1
40
1
10
43.306779890715987
20
-37.057763986996946
30
0
10
42.970493400103599
20
-37.141186411757417
30
0
10
42.452210397950637
20
-37.182262335212698
30
0
0
SPLINE
5
330
100
AcDbEntity
8
0
100
AcDbSpline
70
0
71
2
72
6
73
3
74
0
42
0.000000001
43
0.0000000001
44
0.0000000001
40
0
40
0
40
0
40
1
40
1
40
1
10
42.452210397950637
20
-37.182262335212698
30
0
10
41.933927395797674
20
-37.223338258667972
30
0
10
41.2334952730886
20
-37.306099362539626
30
0
0
SPLINE
5
331
100
AcDbEntity
8
0
100
AcDbSpline
70
0
71
2
72
6
73
3
74
0
42
0.000000001
43
0.0000000001
44
0.0000000001
40
0
40
0
40
0
40
1
40
1
40
1
10
41.2334952730886
20
-37.306099362539626
30
0
10
39.916690526244849
20
-37.457770095432402
30
0
10
39.18725586271114
20
-38.086698181731727
30
0
0
SPLINE
5
332
100
AcDbEntity
8
0
100
AcDbSpline
70
0
71
2
72
6
73
3
74
0
42
0.000000001
43
0.0000000001
44
0.0000000001
40
0
40
0
40
0
40
1
40
1
40
1
10
39.18725586271114
20
-38.086698181731727
30
0
10
38.471827074427338
20
-38.715652299994929
30
0
10
38.469919421680999
20
-39.766070375196819
30
0
0
SPLINE
5
333
100
AcDbEntity
8
0
100
AcDbSpline
70
0
71
2
72
6
73
3
74
0
42
0.000000001
43
0.0000000001
44
0.0000000001
40
0
40
0
40
0
40
1
40
1
40
1
10
38.469919421680999
20
-39.766070375196819
30
0
10
38.469232664873772
20
-40.144221883625882
30
0
10
38.608651969119435
20
-40.494614799988433
30
0
0
SPLINE
5
334
100
AcDbEntity
8
0
100
AcDbSpline
70
0
71
2
72
6
73
3
74
0
42
0.000000001
43
0.0000000001
44
0.0000000001
40
0
40
0
40
0
40
1
40
1
40
1
10
38.608651969119435
20
-40.494614799988433
30
0
10
38.74809789920949
20
-40.83100303427446
30
0
10
39.041732067945233
20
-41.09764405968798
30
0
0
SPLINE
5
335
100
AcDbEntity
8
0
100
AcDbSpline
70
0
71
2
72
6
73
3
74
0
42
0.000000001
43
0.0000000001
44
0.0000000001
40
0
40
0
40
0
40
1
40
1
40
1
10
39.041732067945233
20
-41.09764405968798
30
0
10
39.335391674764317
20
-41.350278016678189
30
0
10
39.76928451356855
20
-41.505128768303628
30
0
0
SPLINE
5
336
100
AcDbEntity
8
0
100
AcDbSpline
70
0
71
2
72
6
73
3
74
0
42
0.000000001
43
0.0000000001
44
0.0000000001
40
0
40
0
40
0
40
1
40
1
40
1
10
39.76928451356855
20
-41.505128768303628
30
0
10
40.217183230870106
20
-41.660003763756535
30
0
10
40.805416923830428
20
-41.661072048515109
30
0
0
SPLINE
5
337
100
AcDbEntity
8
0
100
AcDbSpline
70
0
71
2
72
6
73
3
74
0
42
0.000000001
43
0.0000000001
44
0.0000000001
40
0
40
0
40
0
40
1
40
1
40
1
10
40.805416923830428
20
-41.661072048515109
30
0
10
41.435668245787944
20
-41.662216641028891
30
0
10
42.024283471029491
20
-41.453200357074337
30
0
0
SPLINE
5
338
100
AcDbEntity
8
0
100
AcDbSpline
70
0
71
2
72
6
73
3
74
0
42
0.000000001
43
0.0000000001
44
0.0000000001
40
0
40
0
40
0
40
1
40
1
40
1
10
42.024283471029491
20
-41.453200357074337
30
0
10
42.61292532211543
20
-41.230179391043265
30
0
10
43.019926756941175
20
-40.768733827371719
30
0
0
LINE
5
339
100
AcDbEntity
8
0
100
AcDbLine
10
43.019926756941175
20
-40.768733827371719
30
0
11
43.018629553246868
21
-41.483018023141732
31
0
0
LINE
5
340
100
AcDbEntity
8
0
100
AcDbLine
10
43.018629553246868
20
-41.483018023141732
30
0
11
45.007421077173355
21
-41.486629845617067
31
0
0
SPLINE
5
341
100
AcDbEntity
8
0
100
AcDbSpline
70
0
71
2
72
6
73
3
74
0
42
0.000000001
43
0.0000000001
44
0.0000000001
40
0
40
0
40
0
40
1
40
1
40
1
10
45.007421077173355
20
-41.486629845617067
30
0
10
44.937825289555413
20
-41.248407538903024
30
0
10
44.93815594999981
20
-41.066334722854677
30
0
0
SPLINE
5
342
100
AcDbEntity
8
0
100
AcDbSpline
70
0
71
2
72
6
73
3
74
0
42
0.000000001
43
0.0000000001
44
0.0000000001
40
0
40
0
40
0
40
1
40
1
40
1
10
44.93815594999981
20
-41.066334722854677
30
0
10
44.938537480116089
20
-40.85625134623249
30
0
10
44.953053256082775
20
-40.576165218122604
30
0
0
SPLINE
5
343
100
AcDbEntity
8
0
100
AcDbSpline
70
0
71
2
72
6
73
3
74
0
42
0.000000001
43
0.0000000001
44
0.0000000001
40
0
40
0
40
0
40
1
40
1
40
1
10
44.953053256082775
20
-40.576165218122604
30
0
10
44.981599152209313
20
-40.282098647433784
30
0
10
45.037976367554904
20
-40.086122886487715
30
0
0
LINE
5
344
100
AcDbEntity
8
0
100
AcDbLine
10
45.037976367554904
20
-40.086122886487715
30
0
11
45.687522932204764
21
-37.174132624345326
31
0
0
SPLINE
5
345
100
AcDbEntity
8
0
100
AcDbSpline
70
0
71
2
72
6
73
3
74
0
42
0.000000001
43
0.0000000001
44
0.0000000001
40
0
40
0
40
0
40
1
40
1
40
1
10
45.687522932204764
20
-37.174132624345326
30
0
10
45.842855765529144
20
-36.474132901424376
30
0
10
45.84379687394312
20
-35.955926801989627
30
0
0
SPLINE
5
346
100
AcDbEntity
8
0
100
AcDbSpline
70
0
71
2
72
6
73
3
74
0
42
0.000000001
43
0.0000000001
44
0.0000000001
40
0
40
0
40
0
40
1
40
1
40
1
10
45.84379687394312
20
-35.955926801989627
30
0
10
45.858923098961817
20
-35.339706794447856
30
0
10
45.565466976242547
20
-34.975027614934888
30
0
0
SPLINE
5
347
100
AcDbEntity
8
0
100
AcDbSpline
70
0
71
2
72
6
73
3
74
0
42
0.000000001
43
0.0000000001
44
0.0000000001
40
0
40
0
40
0
40
1
40
1
40
1
10
45.565466976242547
20
-34.975027614934888
30
0
10
45.28604097368315
20
-34.596367992843
30
0
10
44.838218563054333
20
-34.399475964438373
30
0
0
SPLINE
5
348
100
AcDbEntity
8
0
100
AcDbSpline
70
0
71
2
72
6
73
3
74
0
42
0.000000001
43
0.0000000001
44
0.0000000001
40
0
40
0
40
0
40
1
40
1
40
1
10
44.838218563054333
20
-34.399475964438373
30
0
10
44.390421588343898
20
-34.188578059701349
30
0
10
43.858337384966831
20
-34.117583922925874
30
0
0
SPLINE
5
349
100
AcDbEntity
8
0
100
AcDbSpline
70
0
71
2
72
6
73
3
74
0
42
0.000000001
43
0.0000000001
44
0.0000000001
40
0
40
0
40
0
40
1
40
1
40
1
10
43.858337384966831
20
-34.117583922925874
30
0
10
43.326253182672218
20
-34.046589190104932
30
0
10
42.836058239856804
20
-34.045698952445306
30
0
0
SPLINE
5
350
100
AcDbEntity
8
0
100
AcDbSpline
70
0
71
2
72
6
73
3
74
0
42
0.000000001
43
0.0000000001
44
0.0000000001
40
0
40
0
40
0
40
1
40
1
40
1
10
42.836058239856804
20
-34.045698952445306
30
0
10
42.219811602140744
20
-34.044579793684974
30
0
10
41.645354866577065
20
-34.169587447654514
30
0
0
SPLINE
5
351
100
AcDbEntity
8
0
100
AcDbSpline
70
0
71
2
72
6
73
3
74
0
42
0.000000001
43
0.0000000001
44
0.0000000001
40
0
40
0
40
0
40
1
40
1
40
1
10
41.645354866577065
20
-34.169587447654514
30
0
10
41.070922374840862
20
-34.280589223126697
30
0
10
40.608229285055948
20
-34.559861421332158
30
0
0
SPLINE
5
352
100
AcDbEntity
8
0
100
AcDbSpline
70
0
71
2
72
6
73
3
74
0
42
0.000000001
43
0.0000000001
44
0.0000000001
40
0
40
0
40
0
40
1
40
1
40
1
10
40.608229285055948
20
-34.559861421332158
30
0
10
40.145536195271028
20
-34.839133619537613
30
0
10
39.822568824183776
20
-35.300732988645571
30
0
0
SPLINE
5
353
100
AcDbEntity
8
0
100
AcDbSpline
70
0
71
2
72
6
73
3
74
0
42
0.000000001
43
0.0000000001
44
0.0000000001
40
0
40
0
40
0
40
1
40
1
40
1
10
39.822568824183776
20
-35.300732988645571
30
0
10
39.49962688901492
20
-35.748326481421124
30
0
10
39.40034180593004
20
-36.434421473472874
30
0
0
LINE
5
354
100
AcDbEntity
8
0
100
AcDbLine
10
43.599165343412373
20
-38.010677451185799
30
0
11
43.401816075346666
21
-38.710599676425545
31
0
0
SPLINE
5
355
100
AcDbEntity
8
0
100
AcDbSpline
70
0
71
2
72
6
73
3
74
0
42
0.000000001
43
0.0000000001
44
0.0000000001
40
0
40
0
40
0
40
1
40
1
40
1
10
43.401816075346666
20
-38.710599676425545
30
0
10
43.317249058072406
20
-39.004564507770638
30
0
10
43.190665603891887
20
-39.298453033525462
30
0
0
SPLINE
5
356
100
AcDbEntity
8
0
100
AcDbSpline
70
0
71
2
72
6
73
3
74
0
42
0.000000001
43
0.0000000001
44
0.0000000001
40
0
40
0
40
0
40
1
40
1
40
1
10
43.190665603891887
20
-39.298453033525462
30
0
10
43.064079765529506
20
-39.592341554950401
30
0
10
42.839558112786797
20
-39.830028526111775
30
0
0
SPLINE
5
357
100
AcDbEntity
8
0
100
AcDbSpline
70
0
71
2
72
6
73
3
74
0
42
0.000000001
43
0.0000000001
44
0.0000000001
40
0
40
0
40
0
40
1
40
1
40
1
10
42.839558112786797
20
-39.830028526111775
30
0
10
42.629066578038987
20
-40.053736246785135
30
0
10
42.306659976257876
20
-40.207213491290929
30
0
0
SPLINE
5
358
100
AcDbEntity
8
0
100
AcDbSpline
70
0
71
2
72
6
73
3
74
0
42
0.000000001
43
0.0000000001
44
0.0000000001
40
0
40
0
40
0
40
1
40
1
40
1
10
42.306659976257876
20
-40.207213491290929
30
0
10
41.998283496801569
20
-40.346709101126876
30
0
10
41.536097922469075
20
-40.345869730974158
30
0
0
SPLINE
5
359
100
AcDbEntity
8
0
100
AcDbSpline
70
0
71
2
72
6
73
3
74
0
42
0.000000001
43
0.0000000001
44
0.0000000001
40
0
40
0
40
0
40
1
40
1
40
1
10
41.536097922469075
20
-40.345869730974158
30
0
10
41.10192529289229
20
-40.345081234823198
30
0
10
40.766147507658282
20
-40.148393285481376
30
0
0
SPLINE
5
360
100
AcDbEntity
8
0
100
AcDbSpline
70
0
71
2
72
6
73
3
74
0
42
0.000000001
43
0.0000000001
44
0.0000000001
40
0
40
0
40
0
40
1
40
1
40
1
10
40.766147507658282
20
-40.148393285481376
30
0
10
40.444401036840027
20
-39.937723703634639
30
0
10
40.445138661154168
20
-39.531562826722642
30
0
0
SPLINE
5
361
100
AcDbEntity
8
0
100
AcDbSpline
70
0
71
2
72
6
73
3
74
0
42
0.000000001
43
0.0000000001
44
0.0000000001
40
0
40
0
40
0
40
1
40
1
40
1
10
40.445138661154168
20
-39.531562826722642
30
0
10
40.445749110206187
20
-39.195428947290765
30
0
10
40.572181145297101
20
-38.98557329751339
30
0
0
SPLINE
5
362
100
AcDbEntity
8
0
100
AcDbSpline
70
0
71
2
72
6
73
3
74
0
42
0.000000001
43
0.0000000001
44
0.0000000001
40
0
40
0
40
0
40
1
40
1
40
1
10
40.572181145297101
20
-38.98557329751339
30
0
10
40.698637422050545
20
-38.7617129613296
30
0
10
40.894945031202077
20
-38.636019746973666
30
0
0
SPLINE
5
363
100
AcDbEntity
8
0
100
AcDbSpline
70
0
71
2
72
6
73
3
74
0
42
0.000000001
43
0.0000000001
44
0.0000000001
40
0
40
0
40
0
40
1
40
1
40
1
10
40.894945031202077
20
-38.636019746973666
30
0
10
41.105257326760018
20
-38.510350774280248
30
0
10
41.371464758129534
20
-38.454811732666556
30
0
0
SPLINE
5
364
100
AcDbEntity
8
0
100
AcDbSpline
70
0
71
2
72
6
73
3
74
0
42
0.000000001
43
0.0000000001
44
0.0000000001
40
0
40
0
40
0
40
1
40
1
40
1
10
41.371464758129534
20
-38.454811732666556
30
0
10
41.637698817508372
20
-38.385266816885412
30
0
10
41.917860063447492
20
-38.357763769599018
30
0
0
SPLINE
5
365
100
AcDbEntity
8
0
100
AcDbSpline
70
0
71
2
72
6
73
3
74
0
42
0.000000001
43
0.0000000001
44
0.0000000001
40
0
40
0
40
0
40
1
40
1
40
1
10
41.917860063447492
20
-38.357763769599018
30
0
10
42.352084754787064
20
-38.330541707341077
30
0
10
42.786334882045047
20
-38.289313768750723
30
0
0
SPLINE
5
366
100
AcDbEntity
8
0
100
AcDbSpline
70
0
71
2
72
6
73
3
74
0
42
0.000000001
43
0.0000000001
44
0.0000000001
40
0
40
0
40
0
40
1
40
1
40
1
10
42.786334882045047
20
-38.289313768750723
30
0
10
43.220608061039549
20
-38.234079949498103
30
0
10
43.599165343412373
20
-38.010677451185799
30
0
0
LINE
5
367
100
AcDbEntity
8
0
100
AcDbLine
10
47.947738525625702
20
-34.251060961988003
30
0
11
46.435991852895242
21
-41.489224257335593
31
0
0
LINE
5
368
100
AcDbEntity
8
0
100
AcDbLine
10
46.435991852895242
20
-41.489224257335593
30
0
11
48.410776308398411
21
-41.492810641727573
31
0
0
LINE
5
369
100
AcDbEntity
8
0
100
AcDbLine
10
48.410776308398411
20
-41.492810641727573
30
0
11
49.230095175666591
21
-37.642751561506074
31
0
0
SPLINE
5
370
100
AcDbEntity
8
0
100
AcDbSpline
70
0
71
2
72
6
73
3
74
0
42
0.000000001
43
0.0000000001
44
0.0000000001
40
0
40
0
40
0
40
1
40
1
40
1
10
49.230095175666619
20
-37.642751561506074
30
0
10
49.314817189385721
20
-37.264753264632901
30
0
10
49.469539571493158
20
-36.90088861323477
30
0
0
SPLINE
5
371
100
AcDbEntity
8
0
100
AcDbSpline
70
0
71
2
72
6
73
3
74
0
42
0.000000001
43
0.0000000001
44
0.0000000001
40
0
40
0
40
0
40
1
40
1
40
1
10
49.469539571493158
20
-36.90088861323477
30
0
10
49.638266640006997
20
-36.537048203499175
30
0
10
49.87687166892826
20
-36.257369041423964
30
0
0
SPLINE
5
372
100
AcDbEntity
8
0
100
AcDbSpline
70
0
71
2
72
6
73
3
74
0
42
0.000000001
43
0.0000000001
44
0.0000000001
40
0
40
0
40
0
40
1
40
1
40
1
10
49.87687166892826
20
-36.257369041423964
30
0
10
50.129478997909146
20
-35.977715308772332
30
0
10
50.465918101867032
20
-35.810258818108416
30
0
0
SPLINE
5
373
100
AcDbEntity
8
0
100
AcDbSpline
70
0
71
2
72
6
73
3
74
0
42
0.000000001
43
0.0000000001
44
0.0000000001
40
0
40
0
40
0
40
1
40
1
40
1
10
50.465918101867032
20
-35.810258818108416
30
0
10
50.816389709084156
20
-35.62882248524091
30
0
10
51.264568214993353
20
-35.629636417310287
30
0
0
SPLINE
5
374
100
AcDbEntity
8
0
100
AcDbSpline
70
0
71
2
72
6
73
3
74
0
42
0.000000001
43
0.0000000001
44
0.0000000001
40
0
40
0
40
0
40
1
40
1
40
1
10
51.264568214993353
20
-35.629636417310287
30
0
10
51.614706778666687
20
-35.63027230011577
30
0
10
51.90844269107604
20
-35.840889820199713
30
0
0
SPLINE
5
375
100
AcDbEntity
8
0
100
AcDbSpline
70
0
71
2
72
6
73
3
74
0
42
0.000000001
43
0.0000000001
44
0.0000000001
40
0
40
0
40
0
40
1
40
1
40
1
10
51.90844269107604
20
-35.840889820199713
30
0
10
52.21618328664438
20
-36.051533370082595
30
0
10
52.215598273510778
20
-36.373661373182074
30
0
0
SPLINE
5
376
100
AcDbEntity
8
0
100
AcDbSpline
70
0
71
2
72
6
73
3
74
0
42
0.000000001
43
0.0000000001
44
0.0000000001
40
0
40
0
40
0
40
1
40
1
40
1
10
52.215598273510778
20
-36.373661373182074
30
0
10
52.215318483820674
20
-36.527723032611085
30
0
10
52.158788655129619
20
-36.807732859460586
30
0
0
SPLINE
5
377
100
AcDbEntity
8
0
100
AcDbSpline
70
0
71
2
72
6
73
3
74
0
42
0.000000001
43
0.0000000001
44
0.0000000001
40
0
40
0
40
0
40
1
40
1
40
1
10
52.158788655129619
20
-36.807732859460586
30
0
10
52.11626351068
20
-37.087768120063565
30
0
10
52.087946533489209
20
-37.255784187942695
30
0
0
LINE
5
378
100
AcDbEntity
8
0
100
AcDbLine
10
52.087946533489209
20
-37.255784187942695
30
0
11
51.197887286089305
21
-41.497872283407645
31
0
0
LINE
5
379
100
AcDbEntity
8
0
100
AcDbLine
10
51.197887286089305
20
-41.497872283407645
30
0
11
53.186681194197654
21
-41.501484110212871
31
0
0
LINE
5
380
100
AcDbEntity
8
0
100
AcDbLine
10
53.186681194197654
20
-41.501484110212871
30
0
11
54.090745125839028
21
-37.259421448501378
31
0
0
SPLINE
5
381
100
AcDbEntity
8
0
100
AcDbSpline
70
0
71
2
72
6
73
3
74
0
42
0.000000001
43
0.0000000001
44
0.0000000001
40
0
40
0
40
0
40
1
40
1
40
1
10
54.090745125839028
20
-37.259421448501378
30
0
10
54.104927858261902
20
-37.16140753606448
30
0
10
54.133219399534298
20
-37.007397344517734
30
0
0
SPLINE
5
382
100
AcDbEntity
8
0
100
AcDbSpline
70
0
71
2
72
6
73
3
74
0
42
0.000000001
43
0.0000000001
44
0.0000000001
40
0
40
0
40
0
40
1
40
1
40
1
10
54.133219399534298
20
-37.007397344517734
30
0
10
54.175541060966559
20
-36.839406710392069
30
0
10
54.203883474075774
20
-36.657384766180535
30
0
0
SPLINE
5
383
100
AcDbEntity
8
0
100
AcDbSpline
70
0
71
2
72
6
73
3
74
0
42
0.000000001
43
0.0000000001
44
0.0000000001
40
0
40
0
40
0
40
1
40
1
40
1
10
54.203883474075774
20
-36.657384766180535
30
0
10
54.246230570343954
20
-36.475388851767931
30
0
10
54.274545163352897
20
-36.307372779558911
30
0
0
SPLINE
5
384
100
AcDbEntity
8
0
100
AcDbSpline
70
0
71
2
72
6
73
3
74
0
42
0.000000001
43
0.0000000001
44
0.0000000001
40
0
40
0
40
0
40
1
40
1
40
1
10
54.274545163352897
20
-36.307372779558911
30
0
10
54.302887576462098
20
-36.12535083534739
30
0
10
54.303091059479456
20
-36.013306208870091
30
0
0
SPLINE
5
385
100
AcDbEntity
8
0
100
AcDbSpline
70
0
71
2
72
6
73
3
74
0
42
0.000000001
43
0.0000000001
44
0.0000000001
40
0
40
0
40
0
40
1
40
1
40
1
10
54.303091059479456
20
-36.013306208870091
30
0
10
54.306626577446977
20
-34.066530525804389
30
0
10
52.191783358619873
20
-34.062689782228361
30
0
0
SPLINE
5
386
100
AcDbEntity
8
0
100
AcDbSpline
70
0
71
2
72
6
73
3
74
0
42
0.000000001
43
0.0000000001
44
0.0000000001
40
0
40
0
40
0
40
1
40
1
40
1
10
52.191783358619873
20
-34.062689782228361
30
0
10
50.623158587937773
20
-34.059841019985583
30
0
10
49.654588327211343
20
-35.262566313426042
30
0
0
LINE
5
387
100
AcDbEntity
8
0
100
AcDbLine
10
49.654588327211343
20
-35.262566313426042
30
0
11
49.626576574546569
21
-35.262515441589237
31
0
0
LINE
5
388
100
AcDbEntity
8
0
100
AcDbLine
10
49.626576574546569
20
-35.262515441589237
30
0
11
49.852497175739678
21
-34.254520173282806
31
0
0
LINE
5
389
100
AcDbEntity
8
0
100
AcDbLine
10
49.852497175739678
20
-34.254520173282806
30
0
11
47.947738525625702
21
-34.251060961988003
31
0
0
LINE
5
390
100
AcDbEntity
8
0
100
AcDbLine
10
23.594737965374442
20
-48.142432807024008
30
0
11
21.503751356839761
21
-58.138651880059584
31
0
0
LINE
5
391
100
AcDbEntity
8
0
100
AcDbLine
10
21.503751356839761
20
-58.138651880059584
30
0
11
23.478538056826636
21
-58.142238268527755
31
0
0
LINE
5
392
100
AcDbEntity
8
0
100
AcDbLine
10
23.478538056826636
20
-58.142238268527755
30
0
11
24.29785647597825
21
-54.292179783539858
31
0
0
SPLINE
5
393
100
AcDbEntity
8
0
100
AcDbSpline
70
0
71
2
72
6
73
3
74
0
42
0.000000001
43
0.0000000001
44
0.0000000001
40
0
40
0
40
0
40
1
40
1
40
1
10
24.29785647597825
20
-54.292179783539851
30
0
10
24.382576700478506
20
-53.914182079464723
30
0
10
24.537299382773618
20
-53.550316236516892
30
0
0
SPLINE
5
394
100
AcDbEntity
8
0
100
AcDbSpline
70
0
71
2
72
6
73
3
74
0
42
0.000000001
43
0.0000000001
44
0.0000000001
40
0
40
0
40
0
40
1
40
1
40
1
10
24.537299382773618
20
-53.550316236516892
30
0
10
24.706027643378391
20
-53.186475828946236
30
0
10
24.944631180021055
20
-52.906797856255785
30
0
0
SPLINE
5
395
100
AcDbEntity
8
0
100
AcDbSpline
70
0
71
2
72
6
73
3
74
0
42
0.000000001
43
0.0000000001
44
0.0000000001
40
0
40
0
40
0
40
1
40
1
40
1
10
24.944631180021055
20
-52.906797856255785
30
0
10
25.19724029930325
20
-52.627142934760649
30
0
10
25.533679401096201
20
-52.45968763618766
30
0
0
SPLINE
5
396
100
AcDbEntity
8
0
100
AcDbSpline
70
0
71
2
72
6
73
3
74
0
42
0.000000001
43
0.0000000001
44
0.0000000001
40
0
40
0
40
0
40
1
40
1
40
1
10
25.533679401096201
20
-52.45968763618766
30
0
10
25.884149519282165
20
-52.278250704568507
30
0
10
26.332328025191337
20
-52.279064636637891
30
0
0
SPLINE
5
397
100
AcDbEntity
8
0
100
AcDbSpline
70
0
71
2
72
6
73
3
74
0
42
0.000000001
43
0.0000000001
44
0.0000000001
40
0
40
0
40
0
40
1
40
1
40
1
10
26.332328025191337
20
-52.279064636637891
30
0
10
26.682467780955612
20
-52.279700521608305
30
0
10
26.976203099484437
20
-52.490316848518852
30
0
0
SPLINE
5
398
100
AcDbEntity
8
0
100
AcDbSpline
70
0
71
2
72
6
73
3
74
0
42
0.000000001
43
0.0000000001
44
0.0000000001
40
0
40
0
40
0
40
1
40
1
40
1
10
26.976203099484437
20
-52.490316848518852
30
0
10
27.283944290015771
20
-52.70096099552967
30
0
10
27.283359279047094
20
-53.023087806538236
30
0
0
SPLINE
5
399
100
AcDbEntity
8
0
100
AcDbSpline
70
0
71
2
72
6
73
3
74
0
42
0.000000001
43
0.0000000001
44
0.0000000001
40
0
40
0
40
0
40
1
40
1
40
1
10
27.283359279047094
20
-53.023087806538236
30
0
10
27.283079486109596
20
-53.177151254103634
30
0
10
27.226548467492545
20
-53.457159886697276
30
0
0
SPLINE
5
400
100
AcDbEntity
8
0
100
AcDbSpline
70
0
71
2
72
6
73
3
74
0
42
0.000000001
43
0.0000000001
44
0.0000000001
40
0
40
0
40
0
40
1
40
1
40
1
10
27.226548467492545
20
-53.457159886697276
30
0
10
27.184023320877987
20
-53.737196339391176
30
0
10
27.155706941897613
20
-53.905211216261826
30
0
0
LINE
5
401
100
AcDbEntity
8
0
100
AcDbLine
10
27.155706941897613
20
-53.905211216261826
30
0
11
26.265648289460678
21
-58.147299908854741
31
0
0
LINE
5
402
100
AcDbEntity
8
0
100
AcDbLine
10
26.265648289460678
20
-58.147299908854741
30
0
11
28.25444040943264
21
-58.150911732412538
31
0
0
LINE
5
403
100
AcDbEntity
8
0
100
AcDbLine
10
28.25444040943264
20
-58.150911732412538
30
0
11
29.158504938201961
21
-53.908848475738068
31
0
0
SPLINE
5
404
100
AcDbEntity
8
0
100
AcDbSpline
70
0
71
2
72
6
73
3
74
0
42
0.000000001
43
0.0000000001
44
0.0000000001
40
0
40
0
40
0
40
1
40
1
40
1
10
29.158504938201961
20
-53.908848475738047
30
0
10
29.172688263422874
20
-53.810836352520028
30
0
10
29.200979208649809
20
-53.656826159890798
30
0
0
SPLINE
5
405
100
AcDbEntity
8
0
100
AcDbSpline
70
0
71
2
72
6
73
3
74
0
42
0.000000001
43
0.0000000001
44
0.0000000001
40
0
40
0
40
0
40
1
40
1
40
1
10
29.200979208649809
20
-53.656826159890798
30
0
10
29.24330146829249
20
-53.48883433475666
30
0
10
29.271643285356216
20
-53.30681238946265
30
0
0
SPLINE
5
406
100
AcDbEntity
8
0
100
AcDbSpline
70
0
71
2
72
6
73
3
74
0
42
0.000000001
43
0.0000000001
44
0.0000000001
40
0
40
0
40
0
40
1
40
1
40
1
10
29.271643285356216
20
-53.30681238946265
30
0
10
29.313990382706891
20
-53.124815879004601
30
0
10
29.342306761687283
20
-52.956801002133929
30
0
0
SPLINE
5
407
100
AcDbEntity
8
0
100
AcDbSpline
70
0
71
2
72
6
73
3
74
0
42
0.000000001
43
0.0000000001
44
0.0000000001
40
0
40
0
40
0
40
1
40
1
40
1
10
29.342306761687283
20
-52.956801002133929
30
0
10
29.37064857875102
20
-52.774779056839932
30
0
10
29.37085206176836
20
-52.662734430362647
30
0
0
SPLINE
5
408
100
AcDbEntity
8
0
100
AcDbSpline
70
0
71
2
72
6
73
3
74
0
42
0.000000001
43
0.0000000001
44
0.0000000001
40
0
40
0
40
0
40
1
40
1
40
1
10
29.37085206176836
20
-52.662734430362647
30
0
10
29.374387582983317
20
-50.715956959160536
30
0
10
27.259544960201673
20
-50.712116216666978
30
0
0
SPLINE
5
409
100
AcDbEntity
8
0
100
AcDbSpline
70
0
71
2
72
6
73
3
74
0
42
0.000000001
43
0.0000000001
44
0.0000000001
40
0
40
0
40
0
40
1
40
1
40
1
10
27.259544960201673
20
-50.712116216666978
30
0
10
26.769350017386238
20
-50.711225979007352
30
0
10
26.376990039345749
20
-50.822560798564574
30
0
0
SPLINE
5
410
100
AcDbEntity
8
0
100
AcDbSpline
70
0
71
2
72
6
73
3
74
0
42
0.000000001
43
0.0000000001
44
0.0000000001
40
0
40
0
40
0
40
1
40
1
40
1
10
26.376990039345749
20
-50.822560798564574
30
0
10
25.98465580174123
20
-50.919886166057857
30
0
10
25.690258868630732
20
-51.073413086520873
30
0
0
SPLINE
5
411
100
AcDbEntity
8
0
100
AcDbSpline
70
0
71
2
72
6
73
3
74
0
42
0.000000001
43
0.0000000001
44
0.0000000001
40
0
40
0
40
0
40
1
40
1
40
1
10
25.690258868630732
20
-51.073413086520873
30
0
10
25.395861935520223
20
-51.226940006983895
30
0
10
25.185447596101
20
-51.408633676556576
30
0
0
SPLINE
5
412
100
AcDbEntity
8
0
100
AcDbSpline
70
0
71
2
72
6
73
3
74
0
42
0.000000001
43
0.0000000001
44
0.0000000001
40
0
40
0
40
0
40
1
40
1
40
1
10
25.185447596101
20
-51.408633676556576
30
0
10
24.975033265341548
20
-51.590322577765534
30
0
10
24.862708850256642
20
-51.744180158131741
30
0
0
LINE
5
413
100
AcDbEntity
8
0
100
AcDbLine
10
24.862708850256642
20
-51.744180158131741
30
0
11
24.834697693637324
21
-51.744129287377405
31
0
0
LINE
5
414
100
AcDbEntity
8
0
100
AcDbLine
10
24.834697693637324
20
-51.744129287377405
30
0
11
25.583530234357774
21
-48.14604463085243
31
0
0
LINE
5
415
100
AcDbEntity
8
0
100
AcDbLine
10
25.583530234357774
20
-48.14604463085243
30
0
11
23.594737965374442
21
-48.142432807024008
31
0
0
LINE
5
416
100
AcDbEntity
8
0
100
AcDbLine
10
35.81143412587614
20
-53.766869215967901
30
0
11
32.49211176846358
21
-53.760841031037934
31
0
0
SPLINE
5
417
100
AcDbEntity
8
0
100
AcDbSpline
70
0
71
2
72
6
73
3
74
0
42
0.000000001
43
0.0000000001
44
0.0000000001
40
0
40
0
40
0
40
1
40
1
40
1
10
32.492111768463587
20
-53.760841031037941
30
0
10
32.604715972156093
20
-53.452922387288183
30
0
10
32.759286937338871
20
-53.173089419776581
30
0
0
SPLINE
5
418
100
AcDbEntity
8
0
100
AcDbSpline
70
0
71
2
72
6
73
3
74
0
42
0.000000001
43
0.0000000001
44
0.0000000001
40
0
40
0
40
0
40
1
40
1
40
1
10
32.759286937338871
20
-53.173089419776581
30
0
10
32.927862582433214
20
-52.893284270200283
30
0
10
33.166338051910486
20
-52.683632101275307
30
0
0
SPLINE
5
419
100
AcDbEntity
8
0
100
AcDbSpline
70
0
71
2
72
6
73
3
74
0
42
0.000000001
43
0.0000000001
44
0.0000000001
40
0
40
0
40
0
40
1
40
1
40
1
10
33.166338051910486
20
-52.683632101275307
30
0
10
33.404814709148809
20
-52.473982318697125
30
0
10
33.727172825439908
20
-52.348515639095069
30
0
0
SPLINE
5
420
100
AcDbEntity
8
0
100
AcDbSpline
70
0
71
2
72
6
73
3
74
0
42
0.000000001
43
0.0000000001
44
0.0000000001
40
0
40
0
40
0
40
1
40
1
40
1
10
33.727172825439908
20
-52.348515639095069
30
0
10
34.049529745310195
20
-52.223051341509944
30
0
10
34.469696498554597
20
-52.223814401742494
30
0
0
SPLINE
5
421
100
AcDbEntity
8
0
100
AcDbSpline
70
0
71
2
72
6
73
3
74
0
42
0.000000001
43
0.0000000001
44
0.0000000001
40
0
40
0
40
0
40
1
40
1
40
1
10
34.469696498554597
20
-52.223814401742494
30
0
10
34.903870320222296
20
-52.2246029000584
30
0
10
35.169721659558874
20
-52.36514016664357
30
0
0
SPLINE
5
422
100
AcDbEntity
8
0
100
AcDbSpline
70
0
71
2
72
6
73
3
74
0
42
0.000000001
43
0.0000000001
44
0.0000000001
40
0
40
0
40
0
40
1
40
1
40
1
10
35.169721659558874
20
-52.36514016664357
30
0
10
35.435598428319025
20
-52.491675133169139
30
0
10
35.575247841426417
20
-52.716018740977866
30
0
0
SPLINE
5
423
100
AcDbEntity
8
0
100
AcDbSpline
70
0
71
2
72
6
73
3
74
0
42
0.000000001
43
0.0000000001
44
0.0000000001
40
0
40
0
40
0
40
1
40
1
40
1
10
35.575247841426417
20
-52.716018740977866
30
0
10
35.71489606244289
20
-52.940362346621669
30
0
10
35.756403789640849
20
-53.2205514104961
30
0
0
SPLINE
5
424
100
AcDbEntity
8
0
100
AcDbSpline
70
0
71
2
72
6
73
3
74
0
42
0.000000001
43
0.0000000001
44
0.0000000001
40
0
40
0
40
0
40
1
40
1
40
1
10
35.756403789640849
20
-53.2205514104961
30
0
10
35.811942831254548
20
-53.486758841865594
30
0
10
35.81143412587614
20
-53.766869215967901
30
0
0
LINE
5
425
100
AcDbEntity
8
0
100
AcDbLine
10
32.279739206813829
20
-55.020962144836673
30
0
11
37.615864840817672
21
-55.030653024078774
31
0
0
SPLINE
5
426
100
AcDbEntity
8
0
100
AcDbSpline
70
0
71
2
72
6
73
3
74
0
42
0.000000001
43
0.0000000001
44
0.0000000001
40
0
40
0
40
0
40
1
40
1
40
1
10
37.615864840817672
20
-55.030653024078774
30
0
10
37.729003187971934
20
-54.428616937803405
30
0
10
37.729969731221843
20
-53.896405558081739
30
0
0
SPLINE
5
427
100
AcDbEntity
8
0
100
AcDbSpline
70
0
71
2
72
6
73
3
74
0
42
0.000000001
43
0.0000000001
44
0.0000000001
40
0
40
0
40
0
40
1
40
1
40
1
10
37.729969731221843
20
-53.896405558081739
30
0
10
37.731394116673101
20
-53.112090788558817
30
0
10
37.480362585738284
20
-52.523400451982873
30
0
0
SPLINE
5
428
100
AcDbEntity
8
0
100
AcDbSpline
70
0
71
2
72
6
73
3
74
0
42
0.000000001
43
0.0000000001
44
0.0000000001
40
0
40
0
40
0
40
1
40
1
40
1
10
37.480362585738284
20
-52.523400451982873
30
0
10
37.24336118145817
20
-51.920726096555221
30
0
10
36.795894863944739
20
-51.52775716390623
30
0
0
SPLINE
5
429
100
AcDbEntity
8
0
100
AcDbSpline
70
0
71
2
72
6
73
3
74
0
42
0.000000001
43
0.0000000001
44
0.0000000001
40
0
40
0
40
0
40
1
40
1
40
1
10
36.795894863944739
20
-51.52775716390623
30
0
10
36.362459860847061
20
-51.120806598752353
30
0
10
35.732564633087442
20
-50.923584505948789
30
0
0
SPLINE
5
430
100
AcDbEntity
8
0
100
AcDbSpline
70
0
71
2
72
6
73
3
74
0
42
0.000000001
43
0.0000000001
44
0.0000000001
40
0
40
0
40
0
40
1
40
1
40
1
10
35.732564633087442
20
-50.923584505948789
30
0
10
35.116675285990077
20
-50.726385464881744
30
0
10
34.360373461222878
20
-50.725011953432229
30
0
0
SPLINE
5
431
100
AcDbEntity
8
0
100
AcDbSpline
70
0
71
2
72
6
73
3
74
0
42
0.000000001
43
0.0000000001
44
0.0000000001
40
0
40
0
40
0
40
1
40
1
40
1
10
34.360373461222878
20
-50.725011953432229
30
0
10
33.436005888830671
20
-50.723333219621622
30
0
10
32.69302318142369
20
-51.100137844610515
30
0
0
SPLINE
5
432
100
AcDbEntity
8
0
100
AcDbSpline
70
0
71
2
72
6
73
3
74
0
42
0.000000001
43
0.0000000001
44
0.0000000001
40
0
40
0
40
0
40
1
40
1
40
1
10
32.69302318142369
20
-51.100137844610515
30
0
10
31.950065916429949
20
-51.462933016994192
30
0
10
31.430715220151534
20
-52.092245614719573
30
0
0
SPLINE
5
433
100
AcDbEntity
8
0
100
AcDbSpline
70
0
71
2
72
6
73
3
74
0
42
0.000000001
43
0.0000000001
44
0.0000000001
40
0
40
0
40
0
40
1
40
1
40
1
10
31.430715220151534
20
-52.092245614719573
30
0
10
30.925395246573274
20
-52.707574194675729
30
0
10
30.643808427421853
20
-53.519389625138217
30
0
0
SPLINE
5
434
100
AcDbEntity
8
0
100
AcDbSpline
70
0
71
2
72
6
73
3
74
0
42
0.000000001
43
0.0000000001
44
0.0000000001
40
0
40
0
40
0
40
1
40
1
40
1
10
30.643808427421853
20
-53.519389625138217
30
0
10
30.362247046353765
20
-54.317197987177394
30
0
10
30.360670054051837
20
-55.185543246330951
30
0
0
SPLINE
5
435
100
AcDbEntity
8
0
100
AcDbSpline
70
0
71
2
72
6
73
3
74
0
42
0.000000001
43
0.0000000001
44
0.0000000001
40
0
40
0
40
0
40
1
40
1
40
1
10
30.360670054051837
20
-55.185543246330951
30
0
10
30.359245672930459
20
-55.969855631672011
30
0
10
30.582266638961535
20
-56.558497482757943
30
0
0
SPLINE
5
436
100
AcDbEntity
8
0
100
AcDbSpline
70
0
71
2
72
6
73
3
74
0
42
0.000000001
43
0.0000000001
44
0.0000000001
40
0
40
0
40
0
40
1
40
1
40
1
10
30.582266638961535
20
-56.558497482757943
30
0
10
30.81929288527953
20
-57.147164768679829
30
0
10
31.238722608090285
20
-57.554089898997773
30
0
0
SPLINE
5
437
100
AcDbEntity
8
0
100
AcDbSpline
70
0
71
2
72
6
73
3
74
0
42
0.000000001
43
0.0000000001
44
0.0000000001
40
0
40
0
40
0
40
1
40
1
40
1
10
31.238722608090285
20
-57.554089898997773
30
0
10
31.658177768984395
20
-57.947007960892392
30
0
10
32.246056555507877
20
-58.144156132287563
30
0
0
SPLINE
5
438
100
AcDbEntity
8
0
100
AcDbSpline
70
0
71
2
72
6
73
3
74
0
42
0.000000001
43
0.0000000001
44
0.0000000001
40
0
40
0
40
0
40
1
40
1
40
1
10
32.246056555507877
20
-58.144156132287563
30
0
10
32.847940030602729
20
-58.341327353254357
30
0
10
33.576230102705139
20
-58.342649992867059
30
0
0
SPLINE
5
439
100
AcDbEntity
8
0
100
AcDbSpline
70
0
71
2
72
6
73
3
74
0
42
0.000000001
43
0.0000000001
44
0.0000000001
40
0
40
0
40
0
40
1
40
1
40
1
10
33.576230102705139
20
-58.342649992867059
30
0
10
34.360542488046185
20
-58.344074373988441
30
0
10
34.949057161705056
20
-58.191081597528409
30
0
0
SPLINE
5
440
100
AcDbEntity
8
0
100
AcDbSpline
70
0
71
2
72
6
73
3
74
0
42
0.000000001
43
0.0000000001
44
0.0000000001
40
0
40
0
40
0
40
1
40
1
40
1
10
34.949057161705056
20
-58.191081597528409
30
0
10
35.551576519605376
20
-58.038114254821835
30
0
10
36.00031460705965
20
-57.730803675942248
30
0
0
SPLINE
5
441
100
AcDbEntity
8
0
100
AcDbSpline
70
0
71
2
72
6
73
3
74
0
42
0.000000001
43
0.0000000001
44
0.0000000001
40
0
40
0
40
0
40
1
40
1
40
1
10
36.00031460705965
20
-57.730803675942248
30
0
10
36.449078123937504
20
-57.409490797003066
30
0
10
36.772045497189715
20
-56.947890235804188
30
0
0
SPLINE
5
442
100
AcDbEntity
8
0
100
AcDbSpline
70
0
71
2
72
6
73
3
74
0
42
0.000000001
43
0.0000000001
44
0.0000000001
40
0
40
0
40
0
40
1
40
1
40
1
10
36.772045497189715
20
-56.947890235804188
30
0
10
37.095012866112015
20
-56.486292058787171
30
0
10
37.334227154159322
20
-55.870477823024217
30
0
0
LINE
5
443
100
AcDbEntity
8
0
100
AcDbLine
10
37.334227154159322
20
-55.870477823024217
30
0
11
35.345435630232828
21
-55.866866000548889
31
0
0
SPLINE
5
444
100
AcDbEntity
8
0
100
AcDbSpline
70
0
71
2
72
6
73
3
74
0
42
0.000000001
43
0.0000000001
44
0.0000000001
40
0
40
0
40
0
40
1
40
1
40
1
10
35.345435630232828
20
-55.86686600054886
30
0
10
35.233085777064574
20
-56.0347306493384
30
0
10
35.092698737478074
20
-56.216549110532583
30
0
0
SPLINE
5
445
100
AcDbEntity
8
0
100
AcDbSpline
70
0
71
2
72
6
73
3
74
0
42
0.000000001
43
0.0000000001
44
0.0000000001
40
0
40
0
40
0
40
1
40
1
40
1
10
35.092698737478074
20
-56.216549110532583
30
0
10
34.966317574223979
20
-56.398393007645176
30
0
10
34.783991599742308
20
-56.538116344325921
30
0
0
SPLINE
5
446
100
AcDbEntity
8
0
100
AcDbSpline
70
0
71
2
72
6
73
3
74
0
42
0.000000001
43
0.0000000001
44
0.0000000001
40
0
40
0
40
0
40
1
40
1
40
1
10
34.783991599742308
20
-56.538116344325921
30
0
10
34.61567030517223
20
-56.677867498942007
30
0
10
34.377397126621354
20
-56.77547503922473
30
0
0
SPLINE
5
447
100
AcDbEntity
8
0
100
AcDbSpline
70
0
71
2
72
6
73
3
74
0
42
0.000000001
43
0.0000000001
44
0.0000000001
40
0
40
0
40
0
40
1
40
1
40
1
10
34.377397126621354
20
-56.77547503922473
30
0
10
34.153155262486237
20
-56.859100947002574
30
0
10
33.859037819960605
20
-56.85856680354081
30
0
0
SPLINE
5
448
100
AcDbEntity
8
0
100
AcDbSpline
70
0
71
2
72
6
73
3
74
0
42
0.000000001
43
0.0000000001
44
0.0000000001
40
0
40
0
40
0
40
1
40
1
40
1
10
33.859037819960605
20
-56.85856680354081
30
0
10
33.04671368195477
20
-56.857091550582616
30
0
10
32.655269677679982
20
-56.464224359442312
30
0
0
SPLINE
5
449
100
AcDbEntity
8
0
100
AcDbSpline
70
0
71
2
72
6
73
3
74
0
42
0.000000001
43
0.0000000001
44
0.0000000001
40
0
40
0
40
0
40
1
40
1
40
1
10
32.655269677679982
20
-56.464224359442312
30
0
10
32.263825677735099
20
-56.07135478412016
30
0
10
32.264970270248881
20
-55.441103462162658
30
0
0
LINE
5
450
100
AcDbEntity
8
0
100
AcDbLine
10
32.264970270248881
20
-55.441103462162658
30
0
11
32.265300930693286
21
-55.259030646114333
31
0
0
SPLINE
5
451
100
AcDbEntity
8
0
100
AcDbSpline
70
0
71
2
72
6
73
3
74
0
42
0.000000001
43
0.0000000001
44
0.0000000001
40
0
40
0
40
0
40
1
40
1
40
1
10
32.265300930693286
20
-55.259030646114311
30
0
10
32.26540267003702
20
-55.203009524966603
30
0
10
32.26550441371063
20
-55.146986019637019
30
0
0
SPLINE
5
452
100
AcDbEntity
8
0
100
AcDbSpline
70
0
71
2
72
6
73
3
74
0
42
0.000000001
43
0.0000000001
44
0.0000000001
40
0
40
0
40
0
40
1
40
1
40
1
10
32.26550441371063
20
-55.146986019637019
30
0
10
32.265606153054364
20
-55.090964898489304
30
0
10
32.279739206813829
20
-55.020962144836673
30
0
0
LINE
5
453
100
AcDbEntity
8
0
100
AcDbLine
10
39.612110122886456
20
-50.930630105965463
30
0
11
38.100363451238472
21
-58.168792805267586
31
0
0
LINE
5
454
100
AcDbEntity
8
0
100
AcDbLine
10
38.100363451238472
20
-58.168792805267586
30
0
11
40.075150290923517
21
-58.172379193989457
31
0
0
LINE
5
455
100
AcDbEntity
8
0
100
AcDbLine
10
40.075150290923517
20
-58.172379193989457
30
0
11
40.753242751699901
21
-54.966322361158248
31
0
0
SPLINE
5
456
100
AcDbEntity
8
0
100
AcDbSpline
70
0
71
2
72
6
73
3
74
0
42
0.000000001
43
0.0000000001
44
0.0000000001
40
0
40
0
40
0
40
1
40
1
40
1
10
40.753242751699901
20
-54.966322361158248
30
0
10
40.852120867667608
20
-54.504317218106536
30
0
10
41.006946187704536
20
-54.084427871452846
30
0
0
SPLINE
5
457
100
AcDbEntity
8
0
100
AcDbSpline
70
0
71
2
72
6
73
3
74
0
42
0.000000001
43
0.0000000001
44
0.0000000001
40
0
40
0
40
0
40
1
40
1
40
1
10
41.006946187704536
20
-54.084427871452846
30
0
10
41.175801621406492
20
-53.650561658493025
30
0
10
41.442517760319362
20
-53.314911050686092
30
0
0
SPLINE
5
458
100
AcDbEntity
8
0
100
AcDbSpline
70
0
71
2
72
6
73
3
74
0
42
0.000000001
43
0.0000000001
44
0.0000000001
40
0
40
0
40
0
40
1
40
1
40
1
10
41.442517760319362
20
-53.314911050686092
30
0
10
41.723239775564608
20
-52.97928587879754
30
0
10
42.11575087034209
20
-52.783920566903518
30
0
0
SPLINE
5
459
100
AcDbEntity
8
0
100
AcDbSpline
70
0
71
2
72
6
73
3
74
0
42
0.000000001
43
0.0000000001
44
0.0000000001
40
0
40
0
40
0
40
1
40
1
40
1
10
42.11575087034209
20
-52.783920566903518
30
0
10
42.522269037872761
20
-52.58857830891094
30
0
10
43.096499238682568
20
-52.589621162081002
30
0
0
SPLINE
5
460
100
AcDbEntity
8
0
100
AcDbSpline
70
0
71
2
72
6
73
3
74
0
42
0.000000001
43
0.0000000001
44
0.0000000001
40
0
40
0
40
0
40
1
40
1
40
1
10
43.096499238682568
20
-52.589621162081002
30
0
10
43.306581423213828
20
-52.590002690032343
30
0
10
43.51658968633668
20
-52.632400659219812
30
0
0
SPLINE
5
461
100
AcDbEntity
8
0
100
AcDbSpline
70
0
71
2
72
6
73
3
74
0
42
0.000000001
43
0.0000000001
44
0.0000000001
40
0
40
0
40
0
40
1
40
1
40
1
10
43.51658968633668
20
-52.632400659219812
30
0
10
43.726597949459531
20
-52.674798628407295
30
0
10
43.936603824070644
20
-52.717198977446735
30
0
0
LINE
5
462
100
AcDbEntity
8
0
100
AcDbLine
10
43.936603824070644
20
-52.717198977446735
30
0
11
44.346275976205177
21
-50.785166201147049
31
0
0
SPLINE
5
463
100
AcDbEntity
8
0
100
AcDbSpline
70
0
71
2
72
6
73
3
74
0
42
0.000000001
43
0.0000000001
44
0.0000000001
40
0
40
0
40
0
40
1
40
1
40
1
10
44.346275976205177
20
-50.785166201147064
30
0
10
44.038230159358243
20
-50.74258780284373
30
0
10
43.730108032591161
20
-50.742028225628516
30
0
0
SPLINE
5
464
100
AcDbEntity
8
0
100
AcDbSpline
70
0
71
2
72
6
73
3
74
0
42
0.000000001
43
0.0000000001
44
0.0000000001
40
0
40
0
40
0
40
1
40
1
40
1
10
43.730108032591161
20
-50.742028225628516
30
0
10
42.931788578826755
20
-50.740578406423765
30
0
10
42.244803942995908
20
-51.131489459327724
30
0
0
SPLINE
5
465
100
AcDbEntity
8
0
100
AcDbSpline
70
0
71
2
72
6
73
3
74
0
42
0.000000001
43
0.0000000001
44
0.0000000001
40
0
40
0
40
0
40
1
40
1
40
1
10
42.244803942995908
20
-51.131489459327724
30
0
10
41.571849429489859
20
-51.508418877561809
30
0
10
41.234342036443508
20
-52.264111445367917
30
0
0
LINE
5
466
100
AcDbEntity
8
0
100
AcDbLine
10
41.234342036443508
20
-52.264111445367917
30
0
11
41.206381155615539
21
-52.236048820866316
31
0
0
LINE
5
467
100
AcDbEntity
8
0
100
AcDbLine
10
41.206381155615539
20
-52.236048820866316
30
0
11
41.502864088758969
21
-50.934063883506809
31
0
0
LINE
5
468
100
AcDbEntity
8
0
100
AcDbLine
10
41.502864088758969
20
-50.934063883506809
30
0
11
39.612110122886456
21
-50.930630105965463
31
0
0
LINE
5
469
100
AcDbEntity
8
0
100
AcDbLine
10
49.298808124239471
20
-53.791363487969036
30
0
11
45.979485766826926
21
-53.785335303039048
31
0
0
SPLINE
5
470
100
AcDbEntity
8
0
100
AcDbSpline
70
0
71
2
72
6
73
3
74
0
42
0.000000001
43
0.0000000001
44
0.0000000001
40
0
40
0
40
0
40
1
40
1
40
1
10
45.979485766826905
20
-53.785335303039048
30
0
10
46.092089970519439
20
-53.477416659289297
30
0
10
46.246659743611275
20
-53.197583689612742
30
0
0
SPLINE
5
471
100
AcDbEntity
8
0
100
AcDbSpline
70
0
71
2
72
6
73
3
74
0
42
0.000000001
43
0.0000000001
44
0.0000000001
40
0
40
0
40
0
40
1
40
1
40
1
10
46.246659743611275
20
-53.197583689612742
30
0
10
46.415236580796567
20
-52.917778542201397
30
0
10
46.653712050273832
20
-52.708126373276414
30
0
0
SPLINE
5
472
100
AcDbEntity
8
0
100
AcDbSpline
70
0
71
2
72
6
73
3
74
0
42
0.000000001
43
0.0000000001
44
0.0000000001
40
0
40
0
40
0
40
1
40
1
40
1
10
46.653712050273832
20
-52.708126373276414
30
0
10
46.89218751542122
20
-52.498476588533293
30
0
10
47.214545631712319
20
-52.373009908931245
30
0
0
SPLINE
5
473
100
AcDbEntity
8
0
100
AcDbSpline
70
0
71
2
72
6
73
3
74
0
42
0.000000001
43
0.0000000001
44
0.0000000001
40
0
40
0
40
0
40
1
40
1
40
1
10
47.214545631712319
20
-52.373009908931245
30
0
10
47.536903743673534
20
-52.247545613511036
30
0
10
47.957070496917922
20
-52.248308673743608
30
0
0
SPLINE
5
474
100
AcDbEntity
8
0
100
AcDbSpline
70
0
71
2
72
6
73
3
74
0
42
0.000000001
43
0.0000000001
44
0.0000000001
40
0
40
0
40
0
40
1
40
1
40
1
10
47.957070496917922
20
-52.248308673743608
30
0
10
48.391244318585642
20
-52.249097172059507
30
0
10
48.657095657922227
20
-52.389634438644677
30
0
0
SPLINE
5
475
100
AcDbEntity
8
0
100
AcDbSpline
70
0
71
2
72
6
73
3
74
0
42
0.000000001
43
0.0000000001
44
0.0000000001
40
0
40
0
40
0
40
1
40
1
40
1
10
48.657095657922227
20
-52.389634438644677
30
0
10
48.922972426682364
20
-52.516169405170253
30
0
10
49.06262183978977
20
-52.740513012978965
30
0
0
SPLINE
5
476
100
AcDbEntity
8
0
100
AcDbSpline
70
0
71
2
72
6
73
3
74
0
42
0.000000001
43
0.0000000001
44
0.0000000001
40
0
40
0
40
0
40
1
40
1
40
1
10
49.06262183978977
20
-52.740513012978965
30
0
10
49.202268868715322
20
-52.964856616457837
30
0
10
49.243776595913261
20
-53.245045680332261
30
0
0
SPLINE
5
477
100
AcDbEntity
8
0
100
AcDbSpline
70
0
71
2
72
6
73
3
74
0
42
0.000000001
43
0.0000000001
44
0.0000000001
40
0
40
0
40
0
40
1
40
1
40
1
10
49.243776595913261
20
-53.245045680332261
30
0
10
49.299316829617879
20
-53.511253113866708
30
0
10
49.298808124239471
20
-53.791363487969036
30
0
0
LINE
5
478
100
AcDbEntity
8
0
100
AcDbLine
10
45.767112013086255
20
-55.045456414672842
30
0
11
51.103237647090083
21
-55.055147293914956
31
0
0
SPLINE
5
479
100
AcDbEntity
8
0
100
AcDbSpline
70
0
71
2
72
6
73
3
74
0
42
0.000000001
43
0.0000000001
44
0.0000000001
40
0
40
0
40
0
40
1
40
1
40
1
10
51.103237647090083
20
-55.055147293914956
30
0
10
51.216375994244352
20
-54.45311120763958
30
0
10
51.217342537494247
20
-53.920899827917893
30
0
0
SPLINE
5
480
100
AcDbEntity
8
0
100
AcDbSpline
70
0
71
2
72
6
73
3
74
0
42
0.000000001
43
0.0000000001
44
0.0000000001
40
0
40
0
40
0
40
1
40
1
40
1
10
51.217342537494247
20
-53.920899827917893
30
0
10
51.218766922945527
20
-53.136585058394978
30
0
10
50.967736584101637
20
-52.547894723983987
30
0
0
SPLINE
5
481
100
AcDbEntity
8
0
100
AcDbSpline
70
0
71
2
72
6
73
3
74
0
42
0.000000001
43
0.0000000001
44
0.0000000001
40
0
40
0
40
0
40
1
40
1
40
1
10
50.967736584101637
20
-52.547894723983987
30
0
10
50.730733987730581
20
-51.945220366391382
30
0
10
50.283267670217157
20
-51.55225143374242
30
0
0
SPLINE
5
482
100
AcDbEntity
8
0
100
AcDbSpline
70
0
71
2
72
6
73
3
74
0
42
0.000000001
43
0.0000000001
44
0.0000000001
40
0
40
0
40
0
40
1
40
1
40
1
10
50.283267670217157
20
-51.55225143374242
30
0
10
49.849833859210406
20
-51.145300870753459
30
0
10
49.219938631450759
20
-50.948078777949888
30
0
0
SPLINE
5
483
100
AcDbEntity
8
0
100
AcDbSpline
70
0
71
2
72
6
73
3
74
0
42
0.000000001
43
0.0000000001
44
0.0000000001
40
0
40
0
40
0
40
1
40
1
40
1
10
49.219938631450759
20
-50.948078777949888
30
0
10
48.604048092262495
20
-50.750879734717898
30
0
10
47.847747459586223
20
-50.749506225433329
30
0
0
SPLINE
5
484
100
AcDbEntity
8
0
100
AcDbSpline
70
0
71
2
72
6
73
3
74
0
42
0.000000001
43
0.0000000001
44
0.0000000001
40
0
40
0
40
0
40
1
40
1
40
1
10
47.847747459586223
20
-50.749506225433329
30
0
10
46.923378695103075
20
-50.747827489457791
30
0
10
46.180395987696102
20
-51.124632114446669
30
0
0
SPLINE
5
485
100
AcDbEntity
8
0
100
AcDbSpline
70
0
71
2
72
6
73
3
74
0
42
0.000000001
43
0.0000000001
44
0.0000000001
40
0
40
0
40
0
40
1
40
1
40
1
10
46.180395987696102
20
-51.124632114446669
30
0
10
45.437438722702353
20
-51.487427286830339
30
0
10
44.918087430378463
20
-52.116739883473279
30
0
0
SPLINE
5
486
100
AcDbEntity
8
0
100
AcDbSpline
70
0
71
2
72
6
73
3
74
0
42
0.000000001
43
0.0000000001
44
0.0000000001
40
0
40
0
40
0
40
1
40
1
40
1
10
44.918087430378463
20
-52.116739883473279
30
0
10
44.412768648891145
20
-52.732068465594367
30
0
10
44.131180637648782
20
-53.543883893891923
30
0
0
SPLINE
5
487
100
AcDbEntity
8
0
100
AcDbSpline
70
0
71
2
72
6
73
3
74
0
42
0.000000001
43
0.0000000001
44
0.0000000001
40
0
40
0
40
0
40
1
40
1
40
1
10
44.131180637648782
20
-53.543883893891923
30
0
10
43.849620448671651
20
-54.341692258096032
30
0
10
43.848043456369716
20
-55.210037517249603
30
0
0
SPLINE
5
488
100
AcDbEntity
8
0
100
AcDbSpline
70
0
71
2
72
6
73
3
74
0
42
0.000000001
43
0.0000000001
44
0.0000000001
40
0
40
0
40
0
40
1
40
1
40
1
10
43.848043456369716
20
-55.210037517249603
30
0
10
43.846619075248334
20
-55.994349902590642
30
0
10
44.069640041279399
20
-56.582991753676595
30
0
0
SPLINE
5
489
100
AcDbEntity
8
0
100
AcDbSpline
70
0
71
2
72
6
73
3
74
0
42
0.000000001
43
0.0000000001
44
0.0000000001
40
0
40
0
40
0
40
1
40
1
40
1
10
44.069640041279399
20
-56.582991753676595
30
0
10
44.306665691551942
20
-57.171659038515976
30
0
10
44.726097202499091
20
-57.578584172081364
30
0
0
SPLINE
5
490
100
AcDbEntity
8
0
100
AcDbSpline
70
0
71
2
72
6
73
3
74
0
42
0.000000001
43
0.0000000001
44
0.0000000001
40
0
40
0
40
0
40
1
40
1
40
1
10
44.726097202499091
20
-57.578584172081364
30
0
10
45.145551767347733
20
-57.971502232893506
30
0
10
45.73343055387123
20
-58.168650404288684
30
0
0
SPLINE
5
491
100
AcDbEntity
8
0
100
AcDbSpline
70
0
71
2
72
6
73
3
74
0
42
0.000000001
43
0.0000000001
44
0.0000000001
40
0
40
0
40
0
40
1
40
1
40
1
10
45.73343055387123
20
-58.168650404288684
30
0
10
46.335314028966074
20
-58.365821625255442
30
0
10
47.063602908977543
20
-58.367144262703221
30
0
0
SPLINE
5
492
100
AcDbEntity
8
0
100
AcDbSpline
70
0
71
2
72
6
73
3
74
0
42
0.000000001
43
0.0000000001
44
0.0000000001
40
0
40
0
40
0
40
1
40
1
40
1
10
47.063602908977543
20
-58.367144262703221
30
0
10
47.847915294318597
20
-58.368568643824609
30
0
10
48.436429967977467
20
-58.215575867364578
30
0
0
SPLINE
5
493
100
AcDbEntity
8
0
100
AcDbSpline
70
0
71
2
72
6
73
3
74
0
42
0.000000001
43
0.0000000001
44
0.0000000001
40
0
40
0
40
0
40
1
40
1
40
1
10
48.436429967977467
20
-58.215575867364578
30
0
10
49.038949325877788
20
-58.062608524658003
30
0
10
49.487687413332068
20
-57.755297945778416
30
0
0
SPLINE
5
494
100
AcDbEntity
8
0
100
AcDbSpline
70
0
71
2
72
6
73
3
74
0
42
0.000000001
43
0.0000000001
44
0.0000000001
40
0
40
0
40
0
40
1
40
1
40
1
10
49.487687413332068
20
-57.755297945778416
30
0
10
49.936450930209908
20
-57.433985066839234
30
0
10
50.259419495553047
20
-56.972384507805288
30
0
0
SPLINE
5
495
100
AcDbEntity
8
0
100
AcDbSpline
70
0
71
2
72
6
73
3
74
0
42
0.000000001
43
0.0000000001
44
0.0000000001
40
0
40
0
40
0
40
1
40
1
40
1
10
50.259419495553047
20
-56.972384507805288
30
0
10
50.582385672384433
20
-56.51078632862334
30
0
10
50.821601152522661
20
-55.894972095025317
30
0
0
LINE
5
496
100
AcDbEntity
8
0
100
AcDbLine
10
50.821601152522661
20
-55.894972095025317
30
0
11
48.832809628596152
21
-55.891360272549974
31
0
0
SPLINE
5
497
100
AcDbEntity
8
0
100
AcDbSpline
70
0
71
2
72
6
73
3
74
0
42
0.000000001
43
0.0000000001
44
0.0000000001
40
0
40
0
40
0
40
1
40
1
40
1
10
48.832809628596152
20
-55.891360272549974
30
0
10
48.720459775427905
20
-56.059224921339521
30
0
10
48.580072735841426
20
-56.241043382533704
30
0
0
SPLINE
5
498
100
AcDbEntity
8
0
100
AcDbSpline
70
0
71
2
72
6
73
3
74
0
42
0.000000001
43
0.0000000001
44
0.0000000001
40
0
40
0
40
0
40
1
40
1
40
1
10
48.580072735841426
20
-56.241043382533704
30
0
10
48.453690380496397
20
-56.422887277481344
30
0
10
48.271365598105653
20
-56.562610616327042
30
0
0
SPLINE
5
499
100
AcDbEntity
8
0
100
AcDbSpline
70
0
71
2
72
6
73
3
74
0
42
0.000000001
43
0.0000000001
44
0.0000000001
40
0
40
0
40
0
40
1
40
1
40
1
10
48.271365598105653
20
-56.562610616327042
30
0
10
48.103043111444634
20
-56.702361768778154
30
0
10
47.864771124984706
20
-56.799969311225851
30
0
0
SPLINE
5
500
100
AcDbEntity
8
0
100
AcDbSpline
70
0
71
2
72
6
73
3
74
0
42
0.000000001
43
0.0000000001
44
0.0000000001
40
0
40
0
40
0
40
1
40
1
40
1
10
47.864771124984706
20
-56.799969311225851
30
0
10
47.640529260849583
20
-56.883595219003681
30
0
10
47.346411818323936
20
-56.883061075541931
30
0
0
SPLINE
5
501
100
AcDbEntity
8
0
100
AcDbSpline
70
0
71
2
72
6
73
3
74
0
42
0.000000001
43
0.0000000001
44
0.0000000001
40
0
40
0
40
0
40
1
40
1
40
1
10
47.346411818323936
20
-56.883061075541931
30
0
10
46.534087680318095
20
-56.881585822583716
30
0
10
46.142642483952379
20
-56.48871862927848
30
0
0
SPLINE
5
502
100
AcDbEntity
8
0
100
AcDbSpline
70
0
71
2
72
6
73
3
74
0
42
0.000000001
43
0.0000000001
44
0.0000000001
40
0
40
0
40
0
40
1
40
1
40
1
10
46.142642483952379
20
-56.48871862927848
30
0
10
45.751199676098445
20
-56.095849056121274
30
0
10
45.752344268612219
20
-55.465597734163772
30
0
0
LINE
5
503
100
AcDbEntity
8
0
100
AcDbLine
10
45.752344268612219
20
-55.465597734163772
30
0
11
45.752674929056631
21
-55.283524918115425
31
0
0
SPLINE
5
504
100
AcDbEntity
8
0
100
AcDbSpline
70
0
71
2
72
6
73
3
74
0
42
0.000000001
43
0.0000000001
44
0.0000000001
40
0
40
0
40
0
40
1
40
1
40
1
10
45.752674929056631
20
-55.283524918115425
30
0
10
45.752776668400365
20
-55.22750379696771
30
0
10
45.752878412073976
20
-55.171480291638133
30
0
0
SPLINE
5
505
100
AcDbEntity
8
0
100
AcDbSpline
70
0
71
2
72
6
73
3
74
0
42
0.000000001
43
0.0000000001
44
0.0000000001
40
0
40
0
40
0
40
1
40
1
40
1
10
45.752878412073976
20
-55.171480291638133
30
0
10
45.752980151417702
20
-55.115459170490418
30
0
10
45.767112013086255
20
-55.045456414672842
30
0
0
LINE
5
506
100
AcDbEntity
8
1
100
AcDbLine
10
-105.73639765229737
20
19.561999712402624
30
0
11
-35.00069577375946
21
20.181530333357685
31
0
0
LINE
5
507
100
AcDbEntity
8
1
100
AcDbLine
10
-35.00069577375946
20
20.181530333357685
30
0
11
-35.200392052936579
21
42.982108694359766
31
0
0
LINE
5
508
100
AcDbEntity
8
1
100
AcDbLine
10
-35.200392052936579
20
42.982108694359766
30
0
11
-105.93609393147447
21
42.362578073404713
31
0
0
LINE
5
509
100
AcDbEntity
8
1
100
AcDbLine
10
-105.93609393147447
20
42.362578073404713
30
0
11
-105.73639765229737
21
19.561999712402624
31
0
0
LINE
5
510
100
AcDbEntity
8
1
100
AcDbLine
10
21.528697005287217
20
-44.402734755128151
30
0
11
54.70144282412177
21
-44.462979415001065
31
0
0
LINE
5
511
100
AcDbEntity
8
1
100
AcDbLine
10
54.70144282412177
20
-44.462979415001065
30
0
11
54.724977009968185
21
-31.504261301489983
31
0
0
LINE
5
512
100
AcDbEntity
8
1
100
AcDbLine
10
54.724977009968185
20
-31.504261301489983
30
0
11
21.552231191133675
21
-31.444016641617075
31
0
0
LINE
5
513
100
AcDbEntity
8
1
100
AcDbLine
10
21.552231191133675
20
-31.444016641617075
30
0
11
21.528697005287217
21
-44.402734755128151
31
0
0
LINE
5
514
100
AcDbEntity
8
1
100
AcDbLine
10
35.86349564448404
20
-17.487276321032937
30
0
11
36.194649405309448
21
-70
31
0
0
ENDSEC
0
SECTION
2
OBJECTS
0
DICTIONARY
5
C
100
AcDbDictionary
3
ACAD_GROUP
350
D
3
ACAD_MLINESTYLE
350
17
0
DICTIONARY
5
D
100
AcDbDictionary
0
DICTIONARY
5
1A
330
C
100
AcDbDictionary
0
DICTIONARY
5
17
100
AcDbDictionary
0
ENDSEC
0
EOF
