999
Generated by Autodesk CAM - http://cam.autodesk.com
999
UNIT = MM
999
THICKNESS = 9.2
0
SECTION
2
HEADER
9
$ACADVER
1
AC1006
9
$ANGBASE
50
0
9
$ANGDIR
70
0
0
ENDSEC
0
SECTION
2
BLOCKS
0
ENDSEC
9
$EXTMIN
10
-213.26
20
-482.335
30
0
9
$EXTMAX
10
213.26
20
482.335
30
15
0
SECTION
2
ENTITIES
0
LINE
8
0
62
1
10
56.91
20
-212.45
30
0
11
56.91
21
-219.75
31
0
0
LINE
8
0
62
1
10
56.91
20
-219.75
30
0
11
56.907
21
-219.772
31
0
0
LINE
8
0
62
1
10
56.907
20
-219.772
30
0
11
56.899
21
-219.793
31
0
0
LINE
8
0
62
1
10
56.899
20
-219.793
30
0
11
56.885
21
-219.81
31
0
0
LINE
8
0
62
1
10
56.885
20
-219.81
30
0
11
56.868
21
-219.824
31
0
0
LINE
8
0
62
1
10
56.868
20
-219.824
30
0
11
56.847
21
-219.832
31
0
0
LINE
8
0
62
1
10
56.847
20
-219.832
30
0
11
56.825
21
-219.835
31
0
0
LINE
8
0
62
1
10
56.825
20
-219.835
30
0
11
48.71
21
-219.835
31
0
0
LINE
8
0
62
1
10
48.71
20
-219.835
30
0
11
48.71
21
-249.665
31
0
0
LINE
8
0
62
1
10
48.71
20
-249.665
30
0
11
56.825
21
-249.665
31
0
0
LINE
8
0
62
1
10
56.825
20
-249.665
30
0
11
56.847
21
-249.668
31
0
0
LINE
8
0
62
1
10
56.847
20
-249.668
30
0
11
56.868
21
-249.676
31
0
0
LINE
8
0
62
1
10
56.868
20
-249.676
30
0
11
56.885
21
-249.69
31
0
0
LINE
8
0
62
1
10
56.885
20
-249.69
30
0
11
56.899
21
-249.707
31
0
0
LINE
8
0
62
1
10
56.899
20
-249.707
30
0
11
56.907
21
-249.728
31
0
0
LINE
8
0
62
1
10
56.907
20
-249.728
30
0
11
56.91
21
-249.75
31
0
0
LINE
8
0
62
1
10
56.91
20
-249.75
30
0
11
56.91
21
-307.25
31
0
0
LINE
8
0
62
1
10
56.91
20
-307.25
30
0
11
56.907
21
-307.272
31
0
0
LINE
8
0
62
1
10
56.907
20
-307.272
30
0
11
56.899
21
-307.292
31
0
0
LINE
8
0
62
1
10
56.899
20
-307.292
30
0
11
56.885
21
-307.31
31
0
0
LINE
8
0
62
1
10
56.885
20
-307.31
30
0
11
56.867
21
-307.324
31
0
0
LINE
8
0
62
1
10
56.867
20
-307.324
30
0
11
56.847
21
-307.332
31
0
0
LINE
8
0
62
1
10
56.847
20
-307.332
30
0
11
56.825
21
-307.335
31
0
0
LINE
8
0
62
1
10
56.825
20
-307.335
30
0
11
48.71
21
-307.335
31
0
0
LINE
8
0
62
1
10
48.71
20
-307.335
30
0
11
48.71
21
-337.165
31
0
0
LINE
8
0
62
1
10
48.71
20
-337.165
30
0
11
56.825
21
-337.165
31
0
0
LINE
8
0
62
1
10
56.825
20
-337.165
30
0
11
56.847
21
-337.168
31
0
0
LINE
8
0
62
1
10
56.847
20
-337.168
30
0
11
56.867
21
-337.176
31
0
0
LINE
8
0
62
1
10
56.867
20
-337.176
30
0
11
56.885
21
-337.19
31
0
0
LINE
8
0
62
1
10
56.885
20
-337.19
30
0
11
56.899
21
-337.208
31
0
0
LINE
8
0
62
1
10
56.899
20
-337.208
30
0
11
56.907
21
-337.228
31
0
0
LINE
8
0
62
1
10
56.907
20
-337.228
30
0
11
56.91
21
-337.25
31
0
0
LINE
8
0
62
1
10
56.91
20
-337.25
30
0
11
56.91
21
-394.75
31
0
0
LINE
8
0
62
1
10
56.91
20
-394.75
30
0
11
56.907
21
-394.772
31
0
0
LINE
8
0
62
1
10
56.907
20
-394.772
30
0
11
56.899
21
-394.792
31
0
0
LINE
8
0
62
1
10
56.899
20
-394.792
30
0
11
56.885
21
-394.81
31
0
0
LINE
8
0
62
1
10
56.885
20
-394.81
30
0
11
56.867
21
-394.824
31
0
0
LINE
8
0
62
1
10
56.867
20
-394.824
30
0
11
56.847
21
-394.832
31
0
0
LINE
8
0
62
1
10
56.847
20
-394.832
30
0
11
56.825
21
-394.835
31
0
0
LINE
8
0
62
1
10
56.825
20
-394.835
30
0
11
48.71
21
-394.835
31
0
0
LINE
8
0
62
1
10
48.71
20
-394.835
30
0
11
48.71
21
-424.665
31
0
0
LINE
8
0
62
1
10
48.71
20
-424.665
30
0
11
56.825
21
-424.665
31
0
0
LINE
8
0
62
1
10
56.825
20
-424.665
30
0
11
56.847
21
-424.668
31
0
0
LINE
8
0
62
1
10
56.847
20
-424.668
30
0
11
56.867
21
-424.676
31
0
0
LINE
8
0
62
1
10
56.867
20
-424.676
30
0
11
56.885
21
-424.69
31
0
0
LINE
8
0
62
1
10
56.885
20
-424.69
30
0
11
56.899
21
-424.708
31
0
0
LINE
8
0
62
1
10
56.899
20
-424.708
30
0
11
56.907
21
-424.728
31
0
0
LINE
8
0
62
1
10
56.907
20
-424.728
30
0
11
56.91
21
-424.75
31
0
0
LINE
8
0
62
1
10
56.91
20
-424.75
30
0
11
56.91
21
-482.25
31
0
0
LINE
8
0
62
1
10
56.91
20
-482.25
30
0
11
56.907
21
-482.272
31
0
0
LINE
8
0
62
1
10
56.907
20
-482.272
30
0
11
56.899
21
-482.292
31
0
0
LINE
8
0
62
1
10
56.899
20
-482.292
30
0
11
56.885
21
-482.31
31
0
0
LINE
8
0
62
1
10
56.885
20
-482.31
30
0
11
56.867
21
-482.324
31
0
0
LINE
8
0
62
1
10
56.867
20
-482.324
30
0
11
56.847
21
-482.332
31
0
0
LINE
8
0
62
1
10
56.847
20
-482.332
30
0
11
56.825
21
-482.335
31
0
0
LINE
8
0
62
1
10
56.825
20
-482.335
30
0
11
11.825
21
-482.335
31
0
0
LINE
8
0
62
1
10
11.825
20
-482.335
30
0
11
11.803
21
-482.332
31
0
0
LINE
8
0
62
1
10
11.803
20
-482.332
30
0
11
11.783
21
-482.324
31
0
0
LINE
8
0
62
1
10
11.783
20
-482.324
30
0
11
11.765
21
-482.31
31
0
0
LINE
8
0
62
1
10
11.765
20
-482.31
30
0
11
11.751
21
-482.292
31
0
0
LINE
8
0
62
1
10
11.751
20
-482.292
30
0
11
11.743
21
-482.272
31
0
0
LINE
8
0
62
1
10
11.743
20
-482.272
30
0
11
11.74
21
-482.25
31
0
0
LINE
8
0
62
1
10
11.74
20
-482.25
30
0
11
11.74
21
-474.135
31
0
0
LINE
8
0
62
1
10
11.74
20
-474.135
30
0
11
-18.09
21
-474.135
31
0
0
LINE
8
0
62
1
10
-18.09
20
-474.135
30
0
11
-18.09
21
-482.25
31
0
0
LINE
8
0
62
1
10
-18.09
20
-482.25
30
0
11
-18.093
21
-482.272
31
0
0
LINE
8
0
62
1
10
-18.093
20
-482.272
30
0
11
-18.101
21
-482.292
31
0
0
LINE
8
0
62
1
10
-18.101
20
-482.292
30
0
11
-18.115
21
-482.31
31
0
0
LINE
8
0
62
1
10
-18.115
20
-482.31
30
0
11
-18.133
21
-482.324
31
0
0
LINE
8
0
62
1
10
-18.133
20
-482.324
30
0
11
-18.153
21
-482.332
31
0
0
LINE
8
0
62
1
10
-18.153
20
-482.332
30
0
11
-18.175
21
-482.335
31
0
0
LINE
8
0
62
1
10
-18.175
20
-482.335
30
0
11
-63.175
21
-482.335
31
0
0
LINE
8
0
62
1
10
-63.175
20
-482.335
30
0
11
-63.197
21
-482.332
31
0
0
LINE
8
0
62
1
10
-63.197
20
-482.332
30
0
11
-63.217
21
-482.324
31
0
0
LINE
8
0
62
1
10
-63.217
20
-482.324
30
0
11
-63.235
21
-482.31
31
0
0
LINE
8
0
62
1
10
-63.235
20
-482.31
30
0
11
-63.249
21
-482.292
31
0
0
LINE
8
0
62
1
10
-63.249
20
-482.292
30
0
11
-63.257
21
-482.272
31
0
0
LINE
8
0
62
1
10
-63.257
20
-482.272
30
0
11
-63.26
21
-482.25
31
0
0
LINE
8
0
62
1
10
-63.26
20
-482.25
30
0
11
-63.26
21
-474.135
31
0
0
LINE
8
0
62
1
10
-63.26
20
-474.135
30
0
11
-93.09
21
-474.135
31
0
0
LINE
8
0
62
1
10
-93.09
20
-474.135
30
0
11
-93.09
21
-482.25
31
0
0
LINE
8
0
62
1
10
-93.09
20
-482.25
30
0
11
-93.093
21
-482.272
31
0
0
LINE
8
0
62
1
10
-93.093
20
-482.272
30
0
11
-93.101
21
-482.293
31
0
0
LINE
8
0
62
1
10
-93.101
20
-482.293
30
0
11
-93.115
21
-482.31
31
0
0
LINE
8
0
62
1
10
-93.115
20
-482.31
30
0
11
-93.133
21
-482.324
31
0
0
LINE
8
0
62
1
10
-93.133
20
-482.324
30
0
11
-93.153
21
-482.332
31
0
0
LINE
8
0
62
1
10
-93.153
20
-482.332
30
0
11
-93.175
21
-482.335
31
0
0
LINE
8
0
62
1
10
-93.175
20
-482.335
30
0
11
-138.175
21
-482.335
31
0
0
LINE
8
0
62
1
10
-138.175
20
-482.335
30
0
11
-138.197
21
-482.332
31
0
0
LINE
8
0
62
1
10
-138.197
20
-482.332
30
0
11
-138.217
21
-482.324
31
0
0
LINE
8
0
62
1
10
-138.217
20
-482.324
30
0
11
-138.235
21
-482.31
31
0
0
LINE
8
0
62
1
10
-138.235
20
-482.31
30
0
11
-138.249
21
-482.292
31
0
0
LINE
8
0
62
1
10
-138.249
20
-482.292
30
0
11
-138.257
21
-482.272
31
0
0
LINE
8
0
62
1
10
-138.257
20
-482.272
30
0
11
-138.26
21
-482.25
31
0
0
LINE
8
0
62
1
10
-138.26
20
-482.25
30
0
11
-138.26
21
-474.135
31
0
0
LINE
8
0
62
1
10
-138.26
20
-474.135
30
0
11
-168.09
21
-474.135
31
0
0
LINE
8
0
62
1
10
-168.09
20
-474.135
30
0
11
-168.09
21
-482.25
31
0
0
LINE
8
0
62
1
10
-168.09
20
-482.25
30
0
11
-168.093
21
-482.272
31
0
0
LINE
8
0
62
1
10
-168.093
20
-482.272
30
0
11
-168.101
21
-482.293
31
0
0
LINE
8
0
62
1
10
-168.101
20
-482.293
30
0
11
-168.115
21
-482.31
31
0
0
LINE
8
0
62
1
10
-168.115
20
-482.31
30
0
11
-168.133
21
-482.324
31
0
0
LINE
8
0
62
1
10
-168.133
20
-482.324
30
0
11
-168.153
21
-482.332
31
0
0
LINE
8
0
62
1
10
-168.153
20
-482.332
30
0
11
-168.175
21
-482.335
31
0
0
LINE
8
0
62
1
10
-168.175
20
-482.335
30
0
11
-213.175
21
-482.335
31
0
0
LINE
8
0
62
1
10
-213.175
20
-482.335
30
0
11
-213.197
21
-482.332
31
0
0
LINE
8
0
62
1
10
-213.197
20
-482.332
30
0
11
-213.217
21
-482.324
31
0
0
LINE
8
0
62
1
10
-213.217
20
-482.324
30
0
11
-213.235
21
-482.31
31
0
0
LINE
8
0
62
1
10
-213.235
20
-482.31
30
0
11
-213.249
21
-482.292
31
0
0
LINE
8
0
62
1
10
-213.249
20
-482.292
30
0
11
-213.257
21
-482.272
31
0
0
LINE
8
0
62
1
10
-213.257
20
-482.272
30
0
11
-213.26
21
-482.25
31
0
0
LINE
8
0
62
1
10
-213.26
20
-482.25
30
0
11
-213.26
21
-424.75
31
0
0
LINE
8
0
62
1
10
-213.26
20
-424.75
30
0
11
-213.257
21
-424.728
31
0
0
LINE
8
0
62
1
10
-213.257
20
-424.728
30
0
11
-213.249
21
-424.708
31
0
0
LINE
8
0
62
1
10
-213.249
20
-424.708
30
0
11
-213.235
21
-424.69
31
0
0
LINE
8
0
62
1
10
-213.235
20
-424.69
30
0
11
-213.217
21
-424.676
31
0
0
LINE
8
0
62
1
10
-213.217
20
-424.676
30
0
11
-213.197
21
-424.668
31
0
0
LINE
8
0
62
1
10
-213.197
20
-424.668
30
0
11
-213.175
21
-424.665
31
0
0
LINE
8
0
62
1
10
-213.175
20
-424.665
30
0
11
-205.06
21
-424.665
31
0
0
LINE
8
0
62
1
10
-205.06
20
-424.665
30
0
11
-205.06
21
-394.835
31
0
0
LINE
8
0
62
1
10
-205.06
20
-394.835
30
0
11
-213.175
21
-394.835
31
0
0
LINE
8
0
62
1
10
-213.175
20
-394.835
30
0
11
-213.197
21
-394.832
31
0
0
LINE
8
0
62
1
10
-213.197
20
-394.832
30
0
11
-213.217
21
-394.824
31
0
0
LINE
8
0
62
1
10
-213.217
20
-394.824
30
0
11
-213.235
21
-394.81
31
0
0
LINE
8
0
62
1
10
-213.235
20
-394.81
30
0
11
-213.249
21
-394.792
31
0
0
LINE
8
0
62
1
10
-213.249
20
-394.792
30
0
11
-213.257
21
-394.772
31
0
0
LINE
8
0
62
1
10
-213.257
20
-394.772
30
0
11
-213.26
21
-394.75
31
0
0
LINE
8
0
62
1
10
-213.26
20
-394.75
30
0
11
-213.26
21
-337.25
31
0
0
LINE
8
0
62
1
10
-213.26
20
-337.25
30
0
11
-213.257
21
-337.228
31
0
0
LINE
8
0
62
1
10
-213.257
20
-337.228
30
0
11
-213.249
21
-337.208
31
0
0
LINE
8
0
62
1
10
-213.249
20
-337.208
30
0
11
-213.235
21
-337.19
31
0
0
LINE
8
0
62
1
10
-213.235
20
-337.19
30
0
11
-213.217
21
-337.176
31
0
0
LINE
8
0
62
1
10
-213.217
20
-337.176
30
0
11
-213.197
21
-337.168
31
0
0
LINE
8
0
62
1
10
-213.197
20
-337.168
30
0
11
-213.175
21
-337.165
31
0
0
LINE
8
0
62
1
10
-213.175
20
-337.165
30
0
11
-205.06
21
-337.165
31
0
0
LINE
8
0
62
1
10
-205.06
20
-337.165
30
0
11
-205.06
21
-307.335
31
0
0
LINE
8
0
62
1
10
-205.06
20
-307.335
30
0
11
-213.175
21
-307.335
31
0
0
LINE
8
0
62
1
10
-213.175
20
-307.335
30
0
11
-213.197
21
-307.332
31
0
0
LINE
8
0
62
1
10
-213.197
20
-307.332
30
0
11
-213.217
21
-307.324
31
0
0
LINE
8
0
62
1
10
-213.217
20
-307.324
30
0
11
-213.235
21
-307.31
31
0
0
LINE
8
0
62
1
10
-213.235
20
-307.31
30
0
11
-213.249
21
-307.292
31
0
0
LINE
8
0
62
1
10
-213.249
20
-307.292
30
0
11
-213.257
21
-307.272
31
0
0
LINE
8
0
62
1
10
-213.257
20
-307.272
30
0
11
-213.26
21
-307.25
31
0
0
LINE
8
0
62
1
10
-213.26
20
-307.25
30
0
11
-213.26
21
-249.75
31
0
0
LINE
8
0
62
1
10
-213.26
20
-249.75
30
0
11
-213.257
21
-249.728
31
0
0
LINE
8
0
62
1
10
-213.257
20
-249.728
30
0
11
-213.249
21
-249.708
31
0
0
LINE
8
0
62
1
10
-213.249
20
-249.708
30
0
11
-213.235
21
-249.69
31
0
0
LINE
8
0
62
1
10
-213.235
20
-249.69
30
0
11
-213.218
21
-249.676
31
0
0
LINE
8
0
62
1
10
-213.218
20
-249.676
30
0
11
-213.197
21
-249.668
31
0
0
LINE
8
0
62
1
10
-213.197
20
-249.668
30
0
11
-213.175
21
-249.665
31
0
0
LINE
8
0
62
1
10
-213.175
20
-249.665
30
0
11
-205.06
21
-249.665
31
0
0
LINE
8
0
62
1
10
-205.06
20
-249.665
30
0
11
-205.06
21
-219.835
31
0
0
LINE
8
0
62
1
10
-205.06
20
-219.835
30
0
11
-213.175
21
-219.835
31
0
0
LINE
8
0
62
1
10
-213.175
20
-219.835
30
0
11
-213.197
21
-219.832
31
0
0
LINE
8
0
62
1
10
-213.197
20
-219.832
30
0
11
-213.218
21
-219.824
31
0
0
LINE
8
0
62
1
10
-213.218
20
-219.824
30
0
11
-213.235
21
-219.81
31
0
0
LINE
8
0
62
1
10
-213.235
20
-219.81
30
0
11
-213.249
21
-219.792
31
0
0
LINE
8
0
62
1
10
-213.249
20
-219.792
30
0
11
-213.257
21
-219.772
31
0
0
LINE
8
0
62
1
10
-213.257
20
-219.772
30
0
11
-213.26
21
-219.75
31
0
0
LINE
8
0
62
1
10
-213.26
20
-219.75
30
0
11
-213.26
21
-170.45
31
0
0
LINE
8
0
62
1
10
-213.26
20
-170.45
30
0
11
-213.257
21
-170.428
31
0
0
LINE
8
0
62
1
10
-213.257
20
-170.428
30
0
11
-213.249
21
-170.408
31
0
0
LINE
8
0
62
1
10
-213.249
20
-170.408
30
0
11
-213.235
21
-170.39
31
0
0
LINE
8
0
62
1
10
-213.235
20
-170.39
30
0
11
-213.217
21
-170.376
31
0
0
LINE
8
0
62
1
10
-213.217
20
-170.376
30
0
11
-213.197
21
-170.368
31
0
0
LINE
8
0
62
1
10
-213.197
20
-170.368
30
0
11
-213.175
21
-170.365
31
0
0
LINE
8
0
62
1
10
-213.175
20
-170.365
30
0
11
56.825
21
-170.365
31
0
0
LINE
8
0
62
1
10
56.825
20
-170.365
30
0
11
56.847
21
-170.368
31
0
0
LINE
8
0
62
1
10
56.847
20
-170.368
30
0
11
56.867
21
-170.376
31
0
0
LINE
8
0
62
1
10
56.867
20
-170.376
30
0
11
56.885
21
-170.39
31
0
0
LINE
8
0
62
1
10
56.885
20
-170.39
30
0
11
56.899
21
-170.407
31
0
0
LINE
8
0
62
1
10
56.899
20
-170.407
30
0
11
56.907
21
-170.428
31
0
0
LINE
8
0
62
1
10
56.907
20
-170.428
30
0
11
56.91
21
-170.45
31
0
0
LINE
8
0
62
1
10
56.91
20
-170.45
30
0
11
56.91
21
-212.45
31
0
0
LINE
8
0
62
1
10
63.175
20
-212.165
30
0
11
213.175
21
-212.165
31
0
0
LINE
8
0
62
1
10
213.175
20
-212.165
30
0
11
213.197
21
-212.168
31
0
0
LINE
8
0
62
1
10
213.197
20
-212.168
30
0
11
213.218
21
-212.176
31
0
0
LINE
8
0
62
1
10
213.218
20
-212.176
30
0
11
213.235
21
-212.19
31
0
0
LINE
8
0
62
1
10
213.235
20
-212.19
30
0
11
213.249
21
-212.208
31
0
0
LINE
8
0
62
1
10
213.249
20
-212.208
30
0
11
213.257
21
-212.228
31
0
0
LINE
8
0
62
1
10
213.257
20
-212.228
30
0
11
213.26
21
-212.25
31
0
0
LINE
8
0
62
1
10
213.26
20
-212.25
30
0
11
213.26
21
-482.25
31
0
0
LINE
8
0
62
1
10
213.26
20
-482.25
30
0
11
213.257
21
-482.272
31
0
0
LINE
8
0
62
1
10
213.257
20
-482.272
30
0
11
213.249
21
-482.292
31
0
0
LINE
8
0
62
1
10
213.249
20
-482.292
30
0
11
213.235
21
-482.31
31
0
0
LINE
8
0
62
1
10
213.235
20
-482.31
30
0
11
213.217
21
-482.324
31
0
0
LINE
8
0
62
1
10
213.217
20
-482.324
30
0
11
213.197
21
-482.332
31
0
0
LINE
8
0
62
1
10
213.197
20
-482.332
30
0
11
213.175
21
-482.335
31
0
0
LINE
8
0
62
1
10
213.175
20
-482.335
30
0
11
63.175
21
-482.335
31
0
0
LINE
8
0
62
1
10
63.175
20
-482.335
30
0
11
63.153
21
-482.332
31
0
0
LINE
8
0
62
1
10
63.153
20
-482.332
30
0
11
63.133
21
-482.324
31
0
0
LINE
8
0
62
1
10
63.133
20
-482.324
30
0
11
63.115
21
-482.31
31
0
0
LINE
8
0
62
1
10
63.115
20
-482.31
30
0
11
63.101
21
-482.292
31
0
0
LINE
8
0
62
1
10
63.101
20
-482.292
30
0
11
63.093
21
-482.272
31
0
0
LINE
8
0
62
1
10
63.093
20
-482.272
30
0
11
63.09
21
-482.25
31
0
0
LINE
8
0
62
1
10
63.09
20
-482.25
30
0
11
63.09
21
-212.25
31
0
0
LINE
8
0
62
1
10
63.09
20
-212.25
30
0
11
63.093
21
-212.228
31
0
0
LINE
8
0
62
1
10
63.093
20
-212.228
30
0
11
63.101
21
-212.207
31
0
0
LINE
8
0
62
1
10
63.101
20
-212.207
30
0
11
63.115
21
-212.19
31
0
0
LINE
8
0
62
1
10
63.115
20
-212.19
30
0
11
63.132
21
-212.176
31
0
0
LINE
8
0
62
1
10
63.132
20
-212.176
30
0
11
63.153
21
-212.168
31
0
0
LINE
8
0
62
1
10
63.153
20
-212.168
30
0
11
63.175
21
-212.165
31
0
0
LINE
8
0
62
1
10
63.09
20
-160.9
30
0
11
63.09
21
-130.9
31
0
0
LINE
8
0
62
1
10
63.09
20
-130.9
30
0
11
63.093
21
-130.878
31
0
0
LINE
8
0
62
1
10
63.093
20
-130.878
30
0
11
63.101
21
-130.857
31
0
0
LINE
8
0
62
1
10
63.101
20
-130.857
30
0
11
63.115
21
-130.84
31
0
0
LINE
8
0
62
1
10
63.115
20
-130.84
30
0
11
63.133
21
-130.826
31
0
0
LINE
8
0
62
1
10
63.133
20
-130.826
30
0
11
63.153
21
-130.818
31
0
0
LINE
8
0
62
1
10
63.153
20
-130.818
30
0
11
63.175
21
-130.815
31
0
0
LINE
8
0
62
1
10
63.175
20
-130.815
30
0
11
71.29
21
-130.815
31
0
0
LINE
8
0
62
1
10
71.29
20
-130.815
30
0
11
71.29
21
-85.985
31
0
0
LINE
8
0
62
1
10
71.29
20
-85.985
30
0
11
63.175
21
-85.985
31
0
0
LINE
8
0
62
1
10
63.175
20
-85.985
30
0
11
63.153
21
-85.982
31
0
0
LINE
8
0
62
1
10
63.153
20
-85.982
30
0
11
63.132
21
-85.974
31
0
0
LINE
8
0
62
1
10
63.132
20
-85.974
30
0
11
63.115
21
-85.96
31
0
0
LINE
8
0
62
1
10
63.115
20
-85.96
30
0
11
63.101
21
-85.943
31
0
0
LINE
8
0
62
1
10
63.101
20
-85.943
30
0
11
63.093
21
-85.922
31
0
0
LINE
8
0
62
1
10
63.093
20
-85.922
30
0
11
63.09
21
-85.9
31
0
0
LINE
8
0
62
1
10
63.09
20
-85.9
30
0
11
63.09
21
-55.9
31
0
0
LINE
8
0
62
1
10
63.09
20
-55.9
30
0
11
63.093
21
-55.878
31
0
0
LINE
8
0
62
1
10
63.093
20
-55.878
30
0
11
63.101
21
-55.858
31
0
0
LINE
8
0
62
1
10
63.101
20
-55.858
30
0
11
63.115
21
-55.84
31
0
0
LINE
8
0
62
1
10
63.115
20
-55.84
30
0
11
63.132
21
-55.826
31
0
0
LINE
8
0
62
1
10
63.132
20
-55.826
30
0
11
63.153
21
-55.818
31
0
0
LINE
8
0
62
1
10
63.153
20
-55.818
30
0
11
63.175
21
-55.815
31
0
0
LINE
8
0
62
1
10
63.175
20
-55.815
30
0
11
71.29
21
-55.815
31
0
0
LINE
8
0
62
1
10
71.29
20
-55.815
30
0
11
71.29
21
-10.985
31
0
0
LINE
8
0
62
1
10
71.29
20
-10.985
30
0
11
63.175
21
-10.985
31
0
0
LINE
8
0
62
1
10
63.175
20
-10.985
30
0
11
63.153
21
-10.982
31
0
0
LINE
8
0
62
1
10
63.153
20
-10.982
30
0
11
63.132
21
-10.974
31
0
0
LINE
8
0
62
1
10
63.132
20
-10.974
30
0
11
63.115
21
-10.96
31
0
0
LINE
8
0
62
1
10
63.115
20
-10.96
30
0
11
63.101
21
-10.942
31
0
0
LINE
8
0
62
1
10
63.101
20
-10.942
30
0
11
63.093
21
-10.922
31
0
0
LINE
8
0
62
1
10
63.093
20
-10.922
30
0
11
63.09
21
-10.9
31
0
0
LINE
8
0
62
1
10
63.09
20
-10.9
30
0
11
63.09
21
19.1
31
0
0
LINE
8
0
62
1
10
63.09
20
19.1
30
0
11
63.093
21
19.122
31
0
0
LINE
8
0
62
1
10
63.093
20
19.122
30
0
11
63.101
21
19.142
31
0
0
LINE
8
0
62
1
10
63.101
20
19.142
30
0
11
63.115
21
19.16
31
0
0
LINE
8
0
62
1
10
63.115
20
19.16
30
0
11
63.132
21
19.174
31
0
0
LINE
8
0
62
1
10
63.132
20
19.174
30
0
11
63.153
21
19.182
31
0
0
LINE
8
0
62
1
10
63.153
20
19.182
30
0
11
63.175
21
19.185
31
0
0
LINE
8
0
62
1
10
63.175
20
19.185
30
0
11
71.29
21
19.185
31
0
0
LINE
8
0
62
1
10
71.29
20
19.185
30
0
11
71.29
21
55.9
31
0
0
LINE
8
0
62
1
10
71.29
20
55.9
30
0
11
71.293
21
55.922
31
0
0
LINE
8
0
62
1
10
71.293
20
55.922
30
0
11
71.301
21
55.943
31
0
0
LINE
8
0
62
1
10
71.301
20
55.943
30
0
11
71.315
21
55.96
31
0
0
LINE
8
0
62
1
10
71.315
20
55.96
30
0
11
71.333
21
55.974
31
0
0
LINE
8
0
62
1
10
71.333
20
55.974
30
0
11
71.353
21
55.982
31
0
0
LINE
8
0
62
1
10
71.353
20
55.982
30
0
11
71.375
21
55.985
31
0
0
LINE
8
0
62
1
10
71.375
20
55.985
30
0
11
93.09
21
55.985
31
0
0
LINE
8
0
62
1
10
93.09
20
55.985
30
0
11
93.09
21
64.1
31
0
0
LINE
8
0
62
1
10
93.09
20
64.1
30
0
11
93.093
21
64.122
31
0
0
LINE
8
0
62
1
10
93.093
20
64.122
30
0
11
93.101
21
64.143
31
0
0
LINE
8
0
62
1
10
93.101
20
64.143
30
0
11
93.115
21
64.16
31
0
0
LINE
8
0
62
1
10
93.115
20
64.16
30
0
11
93.133
21
64.174
31
0
0
LINE
8
0
62
1
10
93.133
20
64.174
30
0
11
93.153
21
64.182
31
0
0
LINE
8
0
62
1
10
93.153
20
64.182
30
0
11
93.175
21
64.185
31
0
0
LINE
8
0
62
1
10
93.175
20
64.185
30
0
11
123.175
21
64.185
31
0
0
LINE
8
0
62
1
10
123.175
20
64.185
30
0
11
123.197
21
64.182
31
0
0
LINE
8
0
62
1
10
123.197
20
64.182
30
0
11
123.218
21
64.174
31
0
0
LINE
8
0
62
1
10
123.218
20
64.174
30
0
11
123.235
21
64.16
31
0
0
LINE
8
0
62
1
10
123.235
20
64.16
30
0
11
123.249
21
64.142
31
0
0
LINE
8
0
62
1
10
123.249
20
64.142
30
0
11
123.257
21
64.122
31
0
0
LINE
8
0
62
1
10
123.257
20
64.122
30
0
11
123.26
21
64.1
31
0
0
LINE
8
0
62
1
10
123.26
20
64.1
30
0
11
123.26
21
55.985
31
0
0
LINE
8
0
62
1
10
123.26
20
55.985
30
0
11
153.09
21
55.985
31
0
0
LINE
8
0
62
1
10
153.09
20
55.985
30
0
11
153.09
21
64.1
31
0
0
LINE
8
0
62
1
10
153.09
20
64.1
30
0
11
153.093
21
64.122
31
0
0
LINE
8
0
62
1
10
153.093
20
64.122
30
0
11
153.101
21
64.143
31
0
0
LINE
8
0
62
1
10
153.101
20
64.143
30
0
11
153.115
21
64.16
31
0
0
LINE
8
0
62
1
10
153.115
20
64.16
30
0
11
153.133
21
64.174
31
0
0
LINE
8
0
62
1
10
153.133
20
64.174
30
0
11
153.153
21
64.182
31
0
0
LINE
8
0
62
1
10
153.153
20
64.182
30
0
11
153.175
21
64.185
31
0
0
LINE
8
0
62
1
10
153.175
20
64.185
30
0
11
183.175
21
64.185
31
0
0
LINE
8
0
62
1
10
183.175
20
64.185
30
0
11
183.197
21
64.182
31
0
0
LINE
8
0
62
1
10
183.197
20
64.182
30
0
11
183.218
21
64.174
31
0
0
LINE
8
0
62
1
10
183.218
20
64.174
30
0
11
183.235
21
64.16
31
0
0
LINE
8
0
62
1
10
183.235
20
64.16
30
0
11
183.249
21
64.142
31
0
0
LINE
8
0
62
1
10
183.249
20
64.142
30
0
11
183.257
21
64.122
31
0
0
LINE
8
0
62
1
10
183.257
20
64.122
30
0
11
183.26
21
64.1
31
0
0
LINE
8
0
62
1
10
183.26
20
64.1
30
0
11
183.26
21
55.985
31
0
0
LINE
8
0
62
1
10
183.26
20
55.985
30
0
11
204.975
21
55.985
31
0
0
LINE
8
0
62
1
10
204.975
20
55.985
30
0
11
204.997
21
55.982
31
0
0
LINE
8
0
62
1
10
204.997
20
55.982
30
0
11
205.018
21
55.974
31
0
0
LINE
8
0
62
1
10
205.018
20
55.974
30
0
11
205.035
21
55.96
31
0
0
LINE
8
0
62
1
10
205.035
20
55.96
30
0
11
205.049
21
55.942
31
0
0
LINE
8
0
62
1
10
205.049
20
55.942
30
0
11
205.057
21
55.922
31
0
0
LINE
8
0
62
1
10
205.057
20
55.922
30
0
11
205.06
21
55.9
31
0
0
LINE
8
0
62
1
10
205.06
20
55.9
30
0
11
205.06
21
19.185
31
0
0
LINE
8
0
62
1
10
205.06
20
19.185
30
0
11
213.175
21
19.185
31
0
0
LINE
8
0
62
1
10
213.175
20
19.185
30
0
11
213.197
21
19.182
31
0
0
LINE
8
0
62
1
10
213.197
20
19.182
30
0
11
213.218
21
19.174
31
0
0
LINE
8
0
62
1
10
213.218
20
19.174
30
0
11
213.235
21
19.16
31
0
0
LINE
8
0
62
1
10
213.235
20
19.16
30
0
11
213.249
21
19.142
31
0
0
LINE
8
0
62
1
10
213.249
20
19.142
30
0
11
213.257
21
19.122
31
0
0
LINE
8
0
62
1
10
213.257
20
19.122
30
0
11
213.26
21
19.1
31
0
0
LINE
8
0
62
1
10
213.26
20
19.1
30
0
11
213.26
21
-10.9
31
0
0
LINE
8
0
62
1
10
213.26
20
-10.9
30
0
11
213.257
21
-10.922
31
0
0
LINE
8
0
62
1
10
213.257
20
-10.922
30
0
11
213.249
21
-10.942
31
0
0
LINE
8
0
62
1
10
213.249
20
-10.942
30
0
11
213.235
21
-10.96
31
0
0
LINE
8
0
62
1
10
213.235
20
-10.96
30
0
11
213.218
21
-10.974
31
0
0
LINE
8
0
62
1
10
213.218
20
-10.974
30
0
11
213.197
21
-10.982
31
0
0
LINE
8
0
62
1
10
213.197
20
-10.982
30
0
11
213.175
21
-10.985
31
0
0
LINE
8
0
62
1
10
213.175
20
-10.985
30
0
11
205.06
21
-10.985
31
0
0
LINE
8
0
62
1
10
205.06
20
-10.985
30
0
11
205.06
21
-55.815
31
0
0
LINE
8
0
62
1
10
205.06
20
-55.815
30
0
11
213.175
21
-55.815
31
0
0
LINE
8
0
62
1
10
213.175
20
-55.815
30
0
11
213.197
21
-55.818
31
0
0
LINE
8
0
62
1
10
213.197
20
-55.818
30
0
11
213.218
21
-55.826
31
0
0
LINE
8
0
62
1
10
213.218
20
-55.826
30
0
11
213.235
21
-55.84
31
0
0
LINE
8
0
62
1
10
213.235
20
-55.84
30
0
11
213.249
21
-55.858
31
0
0
LINE
8
0
62
1
10
213.249
20
-55.858
30
0
11
213.257
21
-55.878
31
0
0
LINE
8
0
62
1
10
213.257
20
-55.878
30
0
11
213.26
21
-55.9
31
0
0
LINE
8
0
62
1
10
213.26
20
-55.9
30
0
11
213.26
21
-85.9
31
0
0
LINE
8
0
62
1
10
213.26
20
-85.9
30
0
11
213.257
21
-85.922
31
0
0
LINE
8
0
62
1
10
213.257
20
-85.922
30
0
11
213.249
21
-85.942
31
0
0
LINE
8
0
62
1
10
213.249
20
-85.942
30
0
11
213.235
21
-85.96
31
0
0
LINE
8
0
62
1
10
213.235
20
-85.96
30
0
11
213.218
21
-85.974
31
0
0
LINE
8
0
62
1
10
213.218
20
-85.974
30
0
11
213.197
21
-85.982
31
0
0
LINE
8
0
62
1
10
213.197
20
-85.982
30
0
11
213.175
21
-85.985
31
0
0
LINE
8
0
62
1
10
213.175
20
-85.985
30
0
11
205.06
21
-85.985
31
0
0
LINE
8
0
62
1
10
205.06
20
-85.985
30
0
11
205.06
21
-130.815
31
0
0
LINE
8
0
62
1
10
205.06
20
-130.815
30
0
11
213.175
21
-130.815
31
0
0
LINE
8
0
62
1
10
213.175
20
-130.815
30
0
11
213.197
21
-130.818
31
0
0
LINE
8
0
62
1
10
213.197
20
-130.818
30
0
11
213.217
21
-130.826
31
0
0
LINE
8
0
62
1
10
213.217
20
-130.826
30
0
11
213.235
21
-130.84
31
0
0
LINE
8
0
62
1
10
213.235
20
-130.84
30
0
11
213.249
21
-130.857
31
0
0
LINE
8
0
62
1
10
213.249
20
-130.857
30
0
11
213.257
21
-130.878
31
0
0
LINE
8
0
62
1
10
213.257
20
-130.878
30
0
11
213.26
21
-130.9
31
0
0
LINE
8
0
62
1
10
213.26
20
-130.9
30
0
11
213.26
21
-160.9
31
0
0
LINE
8
0
62
1
10
213.26
20
-160.9
30
0
11
213.257
21
-160.922
31
0
0
LINE
8
0
62
1
10
213.257
20
-160.922
30
0
11
213.249
21
-160.942
31
0
0
LINE
8
0
62
1
10
213.249
20
-160.942
30
0
11
213.235
21
-160.96
31
0
0
LINE
8
0
62
1
10
213.235
20
-160.96
30
0
11
213.218
21
-160.974
31
0
0
LINE
8
0
62
1
10
213.218
20
-160.974
30
0
11
213.197
21
-160.982
31
0
0
LINE
8
0
62
1
10
213.197
20
-160.982
30
0
11
213.175
21
-160.985
31
0
0
LINE
8
0
62
1
10
213.175
20
-160.985
30
0
11
205.06
21
-160.985
31
0
0
LINE
8
0
62
1
10
205.06
20
-160.985
30
0
11
205.06
21
-197.7
31
0
0
LINE
8
0
62
1
10
205.06
20
-197.7
30
0
11
205.057
21
-197.722
31
0
0
LINE
8
0
62
1
10
205.057
20
-197.722
30
0
11
205.049
21
-197.742
31
0
0
LINE
8
0
62
1
10
205.049
20
-197.742
30
0
11
205.035
21
-197.76
31
0
0
LINE
8
0
62
1
10
205.035
20
-197.76
30
0
11
205.018
21
-197.774
31
0
0
LINE
8
0
62
1
10
205.018
20
-197.774
30
0
11
204.997
21
-197.782
31
0
0
LINE
8
0
62
1
10
204.997
20
-197.782
30
0
11
204.975
21
-197.785
31
0
0
LINE
8
0
62
1
10
204.975
20
-197.785
30
0
11
183.26
21
-197.785
31
0
0
LINE
8
0
62
1
10
183.26
20
-197.785
30
0
11
183.26
21
-205.9
31
0
0
LINE
8
0
62
1
10
183.26
20
-205.9
30
0
11
183.257
21
-205.922
31
0
0
LINE
8
0
62
1
10
183.257
20
-205.922
30
0
11
183.249
21
-205.942
31
0
0
LINE
8
0
62
1
10
183.249
20
-205.942
30
0
11
183.235
21
-205.96
31
0
0
LINE
8
0
62
1
10
183.235
20
-205.96
30
0
11
183.218
21
-205.974
31
0
0
LINE
8
0
62
1
10
183.218
20
-205.974
30
0
11
183.197
21
-205.982
31
0
0
LINE
8
0
62
1
10
183.197
20
-205.982
30
0
11
183.175
21
-205.985
31
0
0
LINE
8
0
62
1
10
183.175
20
-205.985
30
0
11
153.175
21
-205.985
31
0
0
LINE
8
0
62
1
10
153.175
20
-205.985
30
0
11
153.153
21
-205.982
31
0
0
LINE
8
0
62
1
10
153.153
20
-205.982
30
0
11
153.132
21
-205.974
31
0
0
LINE
8
0
62
1
10
153.132
20
-205.974
30
0
11
153.115
21
-205.96
31
0
0
LINE
8
0
62
1
10
153.115
20
-205.96
30
0
11
153.101
21
-205.942
31
0
0
LINE
8
0
62
1
10
153.101
20
-205.942
30
0
11
153.093
21
-205.922
31
0
0
LINE
8
0
62
1
10
153.093
20
-205.922
30
0
11
153.09
21
-205.9
31
0
0
LINE
8
0
62
1
10
153.09
20
-205.9
30
0
11
153.09
21
-197.785
31
0
0
LINE
8
0
62
1
10
153.09
20
-197.785
30
0
11
123.26
21
-197.785
31
0
0
LINE
8
0
62
1
10
123.26
20
-197.785
30
0
11
123.26
21
-205.9
31
0
0
LINE
8
0
62
1
10
123.26
20
-205.9
30
0
11
123.257
21
-205.922
31
0
0
LINE
8
0
62
1
10
123.257
20
-205.922
30
0
11
123.249
21
-205.942
31
0
0
LINE
8
0
62
1
10
123.249
20
-205.942
30
0
11
123.235
21
-205.96
31
0
0
LINE
8
0
62
1
10
123.235
20
-205.96
30
0
11
123.218
21
-205.974
31
0
0
LINE
8
0
62
1
10
123.218
20
-205.974
30
0
11
123.197
21
-205.982
31
0
0
LINE
8
0
62
1
10
123.197
20
-205.982
30
0
11
123.175
21
-205.985
31
0
0
LINE
8
0
62
1
10
123.175
20
-205.985
30
0
11
93.175
21
-205.985
31
0
0
LINE
8
0
62
1
10
93.175
20
-205.985
30
0
11
93.153
21
-205.982
31
0
0
LINE
8
0
62
1
10
93.153
20
-205.982
30
0
11
93.132
21
-205.974
31
0
0
LINE
8
0
62
1
10
93.132
20
-205.974
30
0
11
93.115
21
-205.96
31
0
0
LINE
8
0
62
1
10
93.115
20
-205.96
30
0
11
93.101
21
-205.942
31
0
0
LINE
8
0
62
1
10
93.101
20
-205.942
30
0
11
93.093
21
-205.922
31
0
0
LINE
8
0
62
1
10
93.093
20
-205.922
30
0
11
93.09
21
-205.9
31
0
0
LINE
8
0
62
1
10
93.09
20
-205.9
30
0
11
93.09
21
-197.785
31
0
0
LINE
8
0
62
1
10
93.09
20
-197.785
30
0
11
71.375
21
-197.785
31
0
0
LINE
8
0
62
1
10
71.375
20
-197.785
30
0
11
71.353
21
-197.782
31
0
0
LINE
8
0
62
1
10
71.353
20
-197.782
30
0
11
71.332
21
-197.774
31
0
0
LINE
8
0
62
1
10
71.332
20
-197.774
30
0
11
71.315
21
-197.76
31
0
0
LINE
8
0
62
1
10
71.315
20
-197.76
30
0
11
71.301
21
-197.742
31
0
0
LINE
8
0
62
1
10
71.301
20
-197.742
30
0
11
71.293
21
-197.722
31
0
0
LINE
8
0
62
1
10
71.293
20
-197.722
30
0
11
71.29
21
-197.7
31
0
0
LINE
8
0
62
1
10
71.29
20
-197.7
30
0
11
71.29
21
-160.985
31
0
0
LINE
8
0
62
1
10
71.29
20
-160.985
30
0
11
63.175
21
-160.985
31
0
0
LINE
8
0
62
1
10
63.175
20
-160.985
30
0
11
63.153
21
-160.982
31
0
0
LINE
8
0
62
1
10
63.153
20
-160.982
30
0
11
63.132
21
-160.974
31
0
0
LINE
8
0
62
1
10
63.132
20
-160.974
30
0
11
63.115
21
-160.96
31
0
0
LINE
8
0
62
1
10
63.115
20
-160.96
30
0
11
63.101
21
-160.942
31
0
0
LINE
8
0
62
1
10
63.101
20
-160.942
30
0
11
63.093
21
-160.922
31
0
0
LINE
8
0
62
1
10
63.093
20
-160.922
30
0
11
63.09
21
-160.9
31
0
0
LINE
8
0
62
1
10
56.91
20
-10.9
30
0
11
56.91
21
-68.4
31
0
0
LINE
8
0
62
1
10
56.91
20
-68.4
30
0
11
56.907
21
-68.422
31
0
0
LINE
8
0
62
1
10
56.907
20
-68.422
30
0
11
56.899
21
-68.443
31
0
0
LINE
8
0
62
1
10
56.899
20
-68.443
30
0
11
56.885
21
-68.46
31
0
0
LINE
8
0
62
1
10
56.885
20
-68.46
30
0
11
56.868
21
-68.474
31
0
0
LINE
8
0
62
1
10
56.868
20
-68.474
30
0
11
56.847
21
-68.482
31
0
0
LINE
8
0
62
1
10
56.847
20
-68.482
30
0
11
56.825
21
-68.485
31
0
0
LINE
8
0
62
1
10
56.825
20
-68.485
30
0
11
48.71
21
-68.485
31
0
0
LINE
8
0
62
1
10
48.71
20
-68.485
30
0
11
48.71
21
-98.315
31
0
0
LINE
8
0
62
1
10
48.71
20
-98.315
30
0
11
56.825
21
-98.315
31
0
0
LINE
8
0
62
1
10
56.825
20
-98.315
30
0
11
56.847
21
-98.318
31
0
0
LINE
8
0
62
1
10
56.847
20
-98.318
30
0
11
56.868
21
-98.326
31
0
0
LINE
8
0
62
1
10
56.868
20
-98.326
30
0
11
56.885
21
-98.34
31
0
0
LINE
8
0
62
1
10
56.885
20
-98.34
30
0
11
56.899
21
-98.358
31
0
0
LINE
8
0
62
1
10
56.899
20
-98.358
30
0
11
56.907
21
-98.378
31
0
0
LINE
8
0
62
1
10
56.907
20
-98.378
30
0
11
56.91
21
-98.4
31
0
0
LINE
8
0
62
1
10
56.91
20
-98.4
30
0
11
56.91
21
-147.7
31
0
0
LINE
8
0
62
1
10
56.91
20
-147.7
30
0
11
56.907
21
-147.722
31
0
0
LINE
8
0
62
1
10
56.907
20
-147.722
30
0
11
56.899
21
-147.742
31
0
0
LINE
8
0
62
1
10
56.899
20
-147.742
30
0
11
56.885
21
-147.76
31
0
0
LINE
8
0
62
1
10
56.885
20
-147.76
30
0
11
56.868
21
-147.774
31
0
0
LINE
8
0
62
1
10
56.868
20
-147.774
30
0
11
56.847
21
-147.782
31
0
0
LINE
8
0
62
1
10
56.847
20
-147.782
30
0
11
56.825
21
-147.785
31
0
0
LINE
8
0
62
1
10
56.825
20
-147.785
30
0
11
-213.175
21
-147.785
31
0
0
LINE
8
0
62
1
10
-213.175
20
-147.785
30
0
11
-213.197
21
-147.782
31
0
0
LINE
8
0
62
1
10
-213.197
20
-147.782
30
0
11
-213.218
21
-147.774
31
0
0
LINE
8
0
62
1
10
-213.218
20
-147.774
30
0
11
-213.235
21
-147.76
31
0
0
LINE
8
0
62
1
10
-213.235
20
-147.76
30
0
11
-213.249
21
-147.742
31
0
0
LINE
8
0
62
1
10
-213.249
20
-147.742
30
0
11
-213.257
21
-147.722
31
0
0
LINE
8
0
62
1
10
-213.257
20
-147.722
30
0
11
-213.26
21
-147.7
31
0
0
LINE
8
0
62
1
10
-213.26
20
-147.7
30
0
11
-213.26
21
-98.4
31
0
0
LINE
8
0
62
1
10
-213.26
20
-98.4
30
0
11
-213.257
21
-98.378
31
0
0
LINE
8
0
62
1
10
-213.257
20
-98.378
30
0
11
-213.249
21
-98.358
31
0
0
LINE
8
0
62
1
10
-213.249
20
-98.358
30
0
11
-213.235
21
-98.34
31
0
0
LINE
8
0
62
1
10
-213.235
20
-98.34
30
0
11
-213.218
21
-98.326
31
0
0
LINE
8
0
62
1
10
-213.218
20
-98.326
30
0
11
-213.197
21
-98.318
31
0
0
LINE
8
0
62
1
10
-213.197
20
-98.318
30
0
11
-213.175
21
-98.315
31
0
0
LINE
8
0
62
1
10
-213.175
20
-98.315
30
0
11
-205.06
21
-98.315
31
0
0
LINE
8
0
62
1
10
-205.06
20
-98.315
30
0
11
-205.06
21
-68.485
31
0
0
LINE
8
0
62
1
10
-205.06
20
-68.485
30
0
11
-213.175
21
-68.485
31
0
0
LINE
8
0
62
1
10
-213.175
20
-68.485
30
0
11
-213.197
21
-68.482
31
0
0
LINE
8
0
62
1
10
-213.197
20
-68.482
30
0
11
-213.218
21
-68.474
31
0
0
LINE
8
0
62
1
10
-213.218
20
-68.474
30
0
11
-213.235
21
-68.46
31
0
0
LINE
8
0
62
1
10
-213.235
20
-68.46
30
0
11
-213.249
21
-68.442
31
0
0
LINE
8
0
62
1
10
-213.249
20
-68.442
30
0
11
-213.257
21
-68.422
31
0
0
LINE
8
0
62
1
10
-213.257
20
-68.422
30
0
11
-213.26
21
-68.4
31
0
0
LINE
8
0
62
1
10
-213.26
20
-68.4
30
0
11
-213.26
21
-10.9
31
0
0
LINE
8
0
62
1
10
-213.26
20
-10.9
30
0
11
-213.257
21
-10.878
31
0
0
LINE
8
0
62
1
10
-213.257
20
-10.878
30
0
11
-213.249
21
-10.858
31
0
0
LINE
8
0
62
1
10
-213.249
20
-10.858
30
0
11
-213.235
21
-10.84
31
0
0
LINE
8
0
62
1
10
-213.235
20
-10.84
30
0
11
-213.218
21
-10.826
31
0
0
LINE
8
0
62
1
10
-213.218
20
-10.826
30
0
11
-213.197
21
-10.818
31
0
0
LINE
8
0
62
1
10
-213.197
20
-10.818
30
0
11
-213.175
21
-10.815
31
0
0
LINE
8
0
62
1
10
-213.175
20
-10.815
30
0
11
-205.06
21
-10.815
31
0
0
LINE
8
0
62
1
10
-205.06
20
-10.815
30
0
11
-205.06
21
19.015
31
0
0
LINE
8
0
62
1
10
-205.06
20
19.015
30
0
11
-213.175
21
19.015
31
0
0
LINE
8
0
62
1
10
-213.175
20
19.015
30
0
11
-213.197
21
19.018
31
0
0
LINE
8
0
62
1
10
-213.197
20
19.018
30
0
11
-213.218
21
19.026
31
0
0
LINE
8
0
62
1
10
-213.218
20
19.026
30
0
11
-213.235
21
19.04
31
0
0
LINE
8
0
62
1
10
-213.235
20
19.04
30
0
11
-213.249
21
19.058
31
0
0
LINE
8
0
62
1
10
-213.249
20
19.058
30
0
11
-213.257
21
19.078
31
0
0
LINE
8
0
62
1
10
-213.257
20
19.078
30
0
11
-213.26
21
19.1
31
0
0
LINE
8
0
62
1
10
-213.26
20
19.1
30
0
11
-213.26
21
76.6
31
0
0
LINE
8
0
62
1
10
-213.26
20
76.6
30
0
11
-213.257
21
76.622
31
0
0
LINE
8
0
62
1
10
-213.257
20
76.622
30
0
11
-213.249
21
76.642
31
0
0
LINE
8
0
62
1
10
-213.249
20
76.642
30
0
11
-213.235
21
76.66
31
0
0
LINE
8
0
62
1
10
-213.235
20
76.66
30
0
11
-213.218
21
76.674
31
0
0
LINE
8
0
62
1
10
-213.218
20
76.674
30
0
11
-213.197
21
76.682
31
0
0
LINE
8
0
62
1
10
-213.197
20
76.682
30
0
11
-213.175
21
76.685
31
0
0
LINE
8
0
62
1
10
-213.175
20
76.685
30
0
11
-205.06
21
76.685
31
0
0
LINE
8
0
62
1
10
-205.06
20
76.685
30
0
11
-205.06
21
106.515
31
0
0
LINE
8
0
62
1
10
-205.06
20
106.515
30
0
11
-213.175
21
106.515
31
0
0
LINE
8
0
62
1
10
-213.175
20
106.515
30
0
11
-213.197
21
106.518
31
0
0
LINE
8
0
62
1
10
-213.197
20
106.518
30
0
11
-213.218
21
106.526
31
0
0
LINE
8
0
62
1
10
-213.218
20
106.526
30
0
11
-213.235
21
106.54
31
0
0
LINE
8
0
62
1
10
-213.235
20
106.54
30
0
11
-213.249
21
106.558
31
0
0
LINE
8
0
62
1
10
-213.249
20
106.558
30
0
11
-213.257
21
106.578
31
0
0
LINE
8
0
62
1
10
-213.257
20
106.578
30
0
11
-213.26
21
106.6
31
0
0
LINE
8
0
62
1
10
-213.26
20
106.6
30
0
11
-213.26
21
164.1
31
0
0
LINE
8
0
62
1
10
-213.26
20
164.1
30
0
11
-213.257
21
164.122
31
0
0
LINE
8
0
62
1
10
-213.257
20
164.122
30
0
11
-213.249
21
164.143
31
0
0
LINE
8
0
62
1
10
-213.249
20
164.143
30
0
11
-213.235
21
164.16
31
0
0
LINE
8
0
62
1
10
-213.235
20
164.16
30
0
11
-213.217
21
164.174
31
0
0
LINE
8
0
62
1
10
-213.217
20
164.174
30
0
11
-213.197
21
164.182
31
0
0
LINE
8
0
62
1
10
-213.197
20
164.182
30
0
11
-213.175
21
164.185
31
0
0
LINE
8
0
62
1
10
-213.175
20
164.185
30
0
11
-168.175
21
164.185
31
0
0
LINE
8
0
62
1
10
-168.175
20
164.185
30
0
11
-168.153
21
164.182
31
0
0
LINE
8
0
62
1
10
-168.153
20
164.182
30
0
11
-168.133
21
164.174
31
0
0
LINE
8
0
62
1
10
-168.133
20
164.174
30
0
11
-168.115
21
164.16
31
0
0
LINE
8
0
62
1
10
-168.115
20
164.16
30
0
11
-168.101
21
164.143
31
0
0
LINE
8
0
62
1
10
-168.101
20
164.143
30
0
11
-168.093
21
164.122
31
0
0
LINE
8
0
62
1
10
-168.093
20
164.122
30
0
11
-168.09
21
164.1
31
0
0
LINE
8
0
62
1
10
-168.09
20
164.1
30
0
11
-168.09
21
155.985
31
0
0
LINE
8
0
62
1
10
-168.09
20
155.985
30
0
11
-138.26
21
155.985
31
0
0
LINE
8
0
62
1
10
-138.26
20
155.985
30
0
11
-138.26
21
164.1
31
0
0
LINE
8
0
62
1
10
-138.26
20
164.1
30
0
11
-138.257
21
164.122
31
0
0
LINE
8
0
62
1
10
-138.257
20
164.122
30
0
11
-138.249
21
164.143
31
0
0
LINE
8
0
62
1
10
-138.249
20
164.143
30
0
11
-138.235
21
164.16
31
0
0
LINE
8
0
62
1
10
-138.235
20
164.16
30
0
11
-138.217
21
164.174
31
0
0
LINE
8
0
62
1
10
-138.217
20
164.174
30
0
11
-138.197
21
164.182
31
0
0
LINE
8
0
62
1
10
-138.197
20
164.182
30
0
11
-138.175
21
164.185
31
0
0
LINE
8
0
62
1
10
-138.175
20
164.185
30
0
11
-93.175
21
164.185
31
0
0
LINE
8
0
62
1
10
-93.175
20
164.185
30
0
11
-93.153
21
164.182
31
0
0
LINE
8
0
62
1
10
-93.153
20
164.182
30
0
11
-93.133
21
164.174
31
0
0
LINE
8
0
62
1
10
-93.133
20
164.174
30
0
11
-93.115
21
164.16
31
0
0
LINE
8
0
62
1
10
-93.115
20
164.16
30
0
11
-93.101
21
164.143
31
0
0
LINE
8
0
62
1
10
-93.101
20
164.143
30
0
11
-93.093
21
164.122
31
0
0
LINE
8
0
62
1
10
-93.093
20
164.122
30
0
11
-93.09
21
164.1
31
0
0
LINE
8
0
62
1
10
-93.09
20
164.1
30
0
11
-93.09
21
155.985
31
0
0
LINE
8
0
62
1
10
-93.09
20
155.985
30
0
11
-63.26
21
155.985
31
0
0
LINE
8
0
62
1
10
-63.26
20
155.985
30
0
11
-63.26
21
164.1
31
0
0
LINE
8
0
62
1
10
-63.26
20
164.1
30
0
11
-63.257
21
164.122
31
0
0
LINE
8
0
62
1
10
-63.257
20
164.122
30
0
11
-63.249
21
164.143
31
0
0
LINE
8
0
62
1
10
-63.249
20
164.143
30
0
11
-63.235
21
164.16
31
0
0
LINE
8
0
62
1
10
-63.235
20
164.16
30
0
11
-63.217
21
164.174
31
0
0
LINE
8
0
62
1
10
-63.217
20
164.174
30
0
11
-63.197
21
164.182
31
0
0
LINE
8
0
62
1
10
-63.197
20
164.182
30
0
11
-63.175
21
164.185
31
0
0
LINE
8
0
62
1
10
-63.175
20
164.185
30
0
11
-18.175
21
164.185
31
0
0
LINE
8
0
62
1
10
-18.175
20
164.185
30
0
11
-18.153
21
164.182
31
0
0
LINE
8
0
62
1
10
-18.153
20
164.182
30
0
11
-18.133
21
164.174
31
0
0
LINE
8
0
62
1
10
-18.133
20
164.174
30
0
11
-18.115
21
164.16
31
0
0
LINE
8
0
62
1
10
-18.115
20
164.16
30
0
11
-18.101
21
164.143
31
0
0
LINE
8
0
62
1
10
-18.101
20
164.143
30
0
11
-18.093
21
164.122
31
0
0
LINE
8
0
62
1
10
-18.093
20
164.122
30
0
11
-18.09
21
164.1
31
0
0
LINE
8
0
62
1
10
-18.09
20
164.1
30
0
11
-18.09
21
155.985
31
0
0
LINE
8
0
62
1
10
-18.09
20
155.985
30
0
11
11.74
21
155.985
31
0
0
LINE
8
0
62
1
10
11.74
20
155.985
30
0
11
11.74
21
164.1
31
0
0
LINE
8
0
62
1
10
11.74
20
164.1
30
0
11
11.743
21
164.122
31
0
0
LINE
8
0
62
1
10
11.743
20
164.122
30
0
11
11.751
21
164.143
31
0
0
LINE
8
0
62
1
10
11.751
20
164.143
30
0
11
11.765
21
164.16
31
0
0
LINE
8
0
62
1
10
11.765
20
164.16
30
0
11
11.783
21
164.174
31
0
0
LINE
8
0
62
1
10
11.783
20
164.174
30
0
11
11.803
21
164.182
31
0
0
LINE
8
0
62
1
10
11.803
20
164.182
30
0
11
11.825
21
164.185
31
0
0
LINE
8
0
62
1
10
11.825
20
164.185
30
0
11
56.825
21
164.185
31
0
0
LINE
8
0
62
1
10
56.825
20
164.185
30
0
11
56.847
21
164.182
31
0
0
LINE
8
0
62
1
10
56.847
20
164.182
30
0
11
56.867
21
164.174
31
0
0
LINE
8
0
62
1
10
56.867
20
164.174
30
0
11
56.885
21
164.16
31
0
0
LINE
8
0
62
1
10
56.885
20
164.16
30
0
11
56.899
21
164.143
31
0
0
LINE
8
0
62
1
10
56.899
20
164.143
30
0
11
56.907
21
164.122
31
0
0
LINE
8
0
62
1
10
56.907
20
164.122
30
0
11
56.91
21
164.1
31
0
0
LINE
8
0
62
1
10
56.91
20
164.1
30
0
11
56.91
21
106.6
31
0
0
LINE
8
0
62
1
10
56.91
20
106.6
30
0
11
56.907
21
106.578
31
0
0
LINE
8
0
62
1
10
56.907
20
106.578
30
0
11
56.899
21
106.557
31
0
0
LINE
8
0
62
1
10
56.899
20
106.557
30
0
11
56.885
21
106.54
31
0
0
LINE
8
0
62
1
10
56.885
20
106.54
30
0
11
56.868
21
106.526
31
0
0
LINE
8
0
62
1
10
56.868
20
106.526
30
0
11
56.847
21
106.518
31
0
0
LINE
8
0
62
1
10
56.847
20
106.518
30
0
11
56.825
21
106.515
31
0
0
LINE
8
0
62
1
10
56.825
20
106.515
30
0
11
48.71
21
106.515
31
0
0
LINE
8
0
62
1
10
48.71
20
106.515
30
0
11
48.71
21
76.685
31
0
0
LINE
8
0
62
1
10
48.71
20
76.685
30
0
11
56.825
21
76.685
31
0
0
LINE
8
0
62
1
10
56.825
20
76.685
30
0
11
56.847
21
76.682
31
0
0
LINE
8
0
62
1
10
56.847
20
76.682
30
0
11
56.868
21
76.674
31
0
0
LINE
8
0
62
1
10
56.868
20
76.674
30
0
11
56.885
21
76.66
31
0
0
LINE
8
0
62
1
10
56.885
20
76.66
30
0
11
56.899
21
76.642
31
0
0
LINE
8
0
62
1
10
56.899
20
76.642
30
0
11
56.907
21
76.622
31
0
0
LINE
8
0
62
1
10
56.907
20
76.622
30
0
11
56.91
21
76.6
31
0
0
LINE
8
0
62
1
10
56.91
20
76.6
30
0
11
56.91
21
19.1
31
0
0
LINE
8
0
62
1
10
56.91
20
19.1
30
0
11
56.907
21
19.078
31
0
0
LINE
8
0
62
1
10
56.907
20
19.078
30
0
11
56.899
21
19.058
31
0
0
LINE
8
0
62
1
10
56.899
20
19.058
30
0
11
56.885
21
19.04
31
0
0
LINE
8
0
62
1
10
56.885
20
19.04
30
0
11
56.868
21
19.026
31
0
0
LINE
8
0
62
1
10
56.868
20
19.026
30
0
11
56.847
21
19.018
31
0
0
LINE
8
0
62
1
10
56.847
20
19.018
30
0
11
56.825
21
19.015
31
0
0
LINE
8
0
62
1
10
56.825
20
19.015
30
0
11
48.71
21
19.015
31
0
0
LINE
8
0
62
1
10
48.71
20
19.015
30
0
11
48.71
21
-10.815
31
0
0
LINE
8
0
62
1
10
48.71
20
-10.815
30
0
11
56.825
21
-10.815
31
0
0
LINE
8
0
62
1
10
56.825
20
-10.815
30
0
11
56.847
21
-10.818
31
0
0
LINE
8
0
62
1
10
56.847
20
-10.818
30
0
11
56.868
21
-10.826
31
0
0
LINE
8
0
62
1
10
56.868
20
-10.826
30
0
11
56.885
21
-10.84
31
0
0
LINE
8
0
62
1
10
56.885
20
-10.84
30
0
11
56.899
21
-10.857
31
0
0
LINE
8
0
62
1
10
56.899
20
-10.857
30
0
11
56.907
21
-10.878
31
0
0
LINE
8
0
62
1
10
56.907
20
-10.878
30
0
11
56.91
21
-10.9
31
0
0
LINE
8
0
62
1
10
-48.625
20
170.365
30
0
11
-48.647
21
170.368
31
0
0
LINE
8
0
62
1
10
-48.647
20
170.368
30
0
11
-48.667
21
170.376
31
0
0
LINE
8
0
62
1
10
-48.667
20
170.376
30
0
11
-48.685
21
170.39
31
0
0
LINE
8
0
62
1
10
-48.685
20
170.39
30
0
11
-48.699
21
170.407
31
0
0
LINE
8
0
62
1
10
-48.699
20
170.407
30
0
11
-48.707
21
170.428
31
0
0
LINE
8
0
62
1
10
-48.707
20
170.428
30
0
11
-48.71
21
170.45
31
0
0
LINE
8
0
62
1
10
-48.71
20
170.45
30
0
11
-48.71
21
227.865
31
0
0
LINE
8
0
62
1
10
-48.71
20
227.865
30
0
11
-56.825
21
227.865
31
0
0
LINE
8
0
62
1
10
-56.825
20
227.865
30
0
11
-56.847
21
227.868
31
0
0
LINE
8
0
62
1
10
-56.847
20
227.868
30
0
11
-56.867
21
227.876
31
0
0
LINE
8
0
62
1
10
-56.867
20
227.876
30
0
11
-56.885
21
227.89
31
0
0
LINE
8
0
62
1
10
-56.885
20
227.89
30
0
11
-56.899
21
227.907
31
0
0
LINE
8
0
62
1
10
-56.899
20
227.907
30
0
11
-56.907
21
227.928
31
0
0
LINE
8
0
62
1
10
-56.907
20
227.928
30
0
11
-56.91
21
227.95
31
0
0
LINE
8
0
62
1
10
-56.91
20
227.95
30
0
11
-56.91
21
257.95
31
0
0
LINE
8
0
62
1
10
-56.91
20
257.95
30
0
11
-56.907
21
257.972
31
0
0
LINE
8
0
62
1
10
-56.907
20
257.972
30
0
11
-56.899
21
257.993
31
0
0
LINE
8
0
62
1
10
-56.899
20
257.993
30
0
11
-56.885
21
258.01
31
0
0
LINE
8
0
62
1
10
-56.885
20
258.01
30
0
11
-56.867
21
258.024
31
0
0
LINE
8
0
62
1
10
-56.867
20
258.024
30
0
11
-56.847
21
258.032
31
0
0
LINE
8
0
62
1
10
-56.847
20
258.032
30
0
11
-56.825
21
258.035
31
0
0
LINE
8
0
62
1
10
-56.825
20
258.035
30
0
11
-48.71
21
258.035
31
0
0
LINE
8
0
62
1
10
-48.71
20
258.035
30
0
11
-48.71
21
315.365
31
0
0
LINE
8
0
62
1
10
-48.71
20
315.365
30
0
11
-56.825
21
315.365
31
0
0
LINE
8
0
62
1
10
-56.825
20
315.365
30
0
11
-56.847
21
315.368
31
0
0
LINE
8
0
62
1
10
-56.847
20
315.368
30
0
11
-56.868
21
315.376
31
0
0
LINE
8
0
62
1
10
-56.868
20
315.376
30
0
11
-56.885
21
315.39
31
0
0
LINE
8
0
62
1
10
-56.885
20
315.39
30
0
11
-56.899
21
315.408
31
0
0
LINE
8
0
62
1
10
-56.899
20
315.408
30
0
11
-56.907
21
315.428
31
0
0
LINE
8
0
62
1
10
-56.907
20
315.428
30
0
11
-56.91
21
315.45
31
0
0
LINE
8
0
62
1
10
-56.91
20
315.45
30
0
11
-56.91
21
345.45
31
0
0
LINE
8
0
62
1
10
-56.91
20
345.45
30
0
11
-56.907
21
345.472
31
0
0
LINE
8
0
62
1
10
-56.907
20
345.472
30
0
11
-56.899
21
345.493
31
0
0
LINE
8
0
62
1
10
-56.899
20
345.493
30
0
11
-56.885
21
345.51
31
0
0
LINE
8
0
62
1
10
-56.885
20
345.51
30
0
11
-56.867
21
345.524
31
0
0
LINE
8
0
62
1
10
-56.867
20
345.524
30
0
11
-56.847
21
345.532
31
0
0
LINE
8
0
62
1
10
-56.847
20
345.532
30
0
11
-56.825
21
345.535
31
0
0
LINE
8
0
62
1
10
-56.825
20
345.535
30
0
11
-48.71
21
345.535
31
0
0
LINE
8
0
62
1
10
-48.71
20
345.535
30
0
11
-48.71
21
402.865
31
0
0
LINE
8
0
62
1
10
-48.71
20
402.865
30
0
11
-56.825
21
402.865
31
0
0
LINE
8
0
62
1
10
-56.825
20
402.865
30
0
11
-56.847
21
402.868
31
0
0
LINE
8
0
62
1
10
-56.847
20
402.868
30
0
11
-56.868
21
402.876
31
0
0
LINE
8
0
62
1
10
-56.868
20
402.876
30
0
11
-56.885
21
402.89
31
0
0
LINE
8
0
62
1
10
-56.885
20
402.89
30
0
11
-56.899
21
402.908
31
0
0
LINE
8
0
62
1
10
-56.899
20
402.908
30
0
11
-56.907
21
402.928
31
0
0
LINE
8
0
62
1
10
-56.907
20
402.928
30
0
11
-56.91
21
402.95
31
0
0
LINE
8
0
62
1
10
-56.91
20
402.95
30
0
11
-56.91
21
432.95
31
0
0
LINE
8
0
62
1
10
-56.91
20
432.95
30
0
11
-56.907
21
432.972
31
0
0
LINE
8
0
62
1
10
-56.907
20
432.972
30
0
11
-56.899
21
432.993
31
0
0
LINE
8
0
62
1
10
-56.899
20
432.993
30
0
11
-56.885
21
433.01
31
0
0
LINE
8
0
62
1
10
-56.885
20
433.01
30
0
11
-56.867
21
433.024
31
0
0
LINE
8
0
62
1
10
-56.867
20
433.024
30
0
11
-56.847
21
433.032
31
0
0
LINE
8
0
62
1
10
-56.847
20
433.032
30
0
11
-56.825
21
433.035
31
0
0
LINE
8
0
62
1
10
-56.825
20
433.035
30
0
11
-48.71
21
433.035
31
0
0
LINE
8
0
62
1
10
-48.71
20
433.035
30
0
11
-48.71
21
482.25
31
0
0
LINE
8
0
62
1
10
-48.71
20
482.25
30
0
11
-48.707
21
482.272
31
0
0
LINE
8
0
62
1
10
-48.707
20
482.272
30
0
11
-48.699
21
482.292
31
0
0
LINE
8
0
62
1
10
-48.699
20
482.292
30
0
11
-48.685
21
482.31
31
0
0
LINE
8
0
62
1
10
-48.685
20
482.31
30
0
11
-48.667
21
482.324
31
0
0
LINE
8
0
62
1
10
-48.667
20
482.324
30
0
11
-48.647
21
482.332
31
0
0
LINE
8
0
62
1
10
-48.647
20
482.332
30
0
11
-48.625
21
482.335
31
0
0
LINE
8
0
62
1
10
-48.625
20
482.335
30
0
11
84.975
21
482.335
31
0
0
LINE
8
0
62
1
10
84.975
20
482.335
30
0
11
84.997
21
482.332
31
0
0
LINE
8
0
62
1
10
84.997
20
482.332
30
0
11
85.017
21
482.324
31
0
0
LINE
8
0
62
1
10
85.017
20
482.324
30
0
11
85.035
21
482.31
31
0
0
LINE
8
0
62
1
10
85.035
20
482.31
30
0
11
85.049
21
482.292
31
0
0
LINE
8
0
62
1
10
85.049
20
482.292
30
0
11
85.057
21
482.272
31
0
0
LINE
8
0
62
1
10
85.057
20
482.272
30
0
11
85.06
21
482.25
31
0
0
LINE
8
0
62
1
10
85.06
20
482.25
30
0
11
85.06
21
433.035
31
0
0
LINE
8
0
62
1
10
85.06
20
433.035
30
0
11
93.175
21
433.035
31
0
0
LINE
8
0
62
1
10
93.175
20
433.035
30
0
11
93.197
21
433.032
31
0
0
LINE
8
0
62
1
10
93.197
20
433.032
30
0
11
93.218
21
433.024
31
0
0
LINE
8
0
62
1
10
93.218
20
433.024
30
0
11
93.235
21
433.01
31
0
0
LINE
8
0
62
1
10
93.235
20
433.01
30
0
11
93.249
21
432.993
31
0
0
LINE
8
0
62
1
10
93.249
20
432.993
30
0
11
93.257
21
432.972
31
0
0
LINE
8
0
62
1
10
93.257
20
432.972
30
0
11
93.26
21
432.95
31
0
0
LINE
8
0
62
1
10
93.26
20
432.95
30
0
11
93.26
21
402.95
31
0
0
LINE
8
0
62
1
10
93.26
20
402.95
30
0
11
93.257
21
402.928
31
0
0
LINE
8
0
62
1
10
93.257
20
402.928
30
0
11
93.249
21
402.908
31
0
0
LINE
8
0
62
1
10
93.249
20
402.908
30
0
11
93.235
21
402.89
31
0
0
LINE
8
0
62
1
10
93.235
20
402.89
30
0
11
93.218
21
402.876
31
0
0
LINE
8
0
62
1
10
93.218
20
402.876
30
0
11
93.197
21
402.868
31
0
0
LINE
8
0
62
1
10
93.197
20
402.868
30
0
11
93.175
21
402.865
31
0
0
LINE
8
0
62
1
10
93.175
20
402.865
30
0
11
85.06
21
402.865
31
0
0
LINE
8
0
62
1
10
85.06
20
402.865
30
0
11
85.06
21
345.535
31
0
0
LINE
8
0
62
1
10
85.06
20
345.535
30
0
11
93.175
21
345.535
31
0
0
LINE
8
0
62
1
10
93.175
20
345.535
30
0
11
93.197
21
345.532
31
0
0
LINE
8
0
62
1
10
93.197
20
345.532
30
0
11
93.218
21
345.524
31
0
0
LINE
8
0
62
1
10
93.218
20
345.524
30
0
11
93.235
21
345.51
31
0
0
LINE
8
0
62
1
10
93.235
20
345.51
30
0
11
93.249
21
345.493
31
0
0
LINE
8
0
62
1
10
93.249
20
345.493
30
0
11
93.257
21
345.472
31
0
0
LINE
8
0
62
1
10
93.257
20
345.472
30
0
11
93.26
21
345.45
31
0
0
LINE
8
0
62
1
10
93.26
20
345.45
30
0
11
93.26
21
315.45
31
0
0
LINE
8
0
62
1
10
93.26
20
315.45
30
0
11
93.257
21
315.428
31
0
0
LINE
8
0
62
1
10
93.257
20
315.428
30
0
11
93.249
21
315.408
31
0
0
LINE
8
0
62
1
10
93.249
20
315.408
30
0
11
93.235
21
315.39
31
0
0
LINE
8
0
62
1
10
93.235
20
315.39
30
0
11
93.218
21
315.376
31
0
0
LINE
8
0
62
1
10
93.218
20
315.376
30
0
11
93.197
21
315.368
31
0
0
LINE
8
0
62
1
10
93.197
20
315.368
30
0
11
93.175
21
315.365
31
0
0
LINE
8
0
62
1
10
93.175
20
315.365
30
0
11
85.06
21
315.365
31
0
0
LINE
8
0
62
1
10
85.06
20
315.365
30
0
11
85.06
21
258.035
31
0
0
LINE
8
0
62
1
10
85.06
20
258.035
30
0
11
93.175
21
258.035
31
0
0
LINE
8
0
62
1
10
93.175
20
258.035
30
0
11
93.197
21
258.032
31
0
0
LINE
8
0
62
1
10
93.197
20
258.032
30
0
11
93.218
21
258.024
31
0
0
LINE
8
0
62
1
10
93.218
20
258.024
30
0
11
93.235
21
258.01
31
0
0
LINE
8
0
62
1
10
93.235
20
258.01
30
0
11
93.249
21
257.993
31
0
0
LINE
8
0
62
1
10
93.249
20
257.993
30
0
11
93.257
21
257.972
31
0
0
LINE
8
0
62
1
10
93.257
20
257.972
30
0
11
93.26
21
257.95
31
0
0
LINE
8
0
62
1
10
93.26
20
257.95
30
0
11
93.26
21
227.95
31
0
0
LINE
8
0
62
1
10
93.26
20
227.95
30
0
11
93.257
21
227.928
31
0
0
LINE
8
0
62
1
10
93.257
20
227.928
30
0
11
93.249
21
227.907
31
0
0
LINE
8
0
62
1
10
93.249
20
227.907
30
0
11
93.235
21
227.89
31
0
0
LINE
8
0
62
1
10
93.235
20
227.89
30
0
11
93.218
21
227.876
31
0
0
LINE
8
0
62
1
10
93.218
20
227.876
30
0
11
93.197
21
227.868
31
0
0
LINE
8
0
62
1
10
93.197
20
227.868
30
0
11
93.175
21
227.865
31
0
0
LINE
8
0
62
1
10
93.175
20
227.865
30
0
11
85.06
21
227.865
31
0
0
LINE
8
0
62
1
10
85.06
20
227.865
30
0
11
85.06
21
170.45
31
0
0
LINE
8
0
62
1
10
85.06
20
170.45
30
0
11
85.057
21
170.428
31
0
0
LINE
8
0
62
1
10
85.057
20
170.428
30
0
11
85.049
21
170.407
31
0
0
LINE
8
0
62
1
10
85.049
20
170.407
30
0
11
85.035
21
170.39
31
0
0
LINE
8
0
62
1
10
85.035
20
170.39
30
0
11
85.017
21
170.376
31
0
0
LINE
8
0
62
1
10
85.017
20
170.376
30
0
11
84.997
21
170.368
31
0
0
LINE
8
0
62
1
10
84.997
20
170.368
30
0
11
84.975
21
170.365
31
0
0
LINE
8
0
62
1
10
84.975
20
170.365
30
0
11
63.175
21
170.365
31
0
0
LINE
8
0
62
1
10
63.175
20
170.365
30
0
11
63.153
21
170.368
31
0
0
LINE
8
0
62
1
10
63.153
20
170.368
30
0
11
63.133
21
170.376
31
0
0
LINE
8
0
62
1
10
63.133
20
170.376
30
0
11
63.115
21
170.39
31
0
0
LINE
8
0
62
1
10
63.115
20
170.39
30
0
11
63.101
21
170.407
31
0
0
LINE
8
0
62
1
10
63.101
20
170.407
30
0
11
63.093
21
170.428
31
0
0
LINE
8
0
62
1
10
63.093
20
170.428
30
0
11
63.09
21
170.45
31
0
0
LINE
8
0
62
1
10
63.09
20
170.45
30
0
11
63.09
21
178.565
31
0
0
LINE
8
0
62
1
10
63.09
20
178.565
30
0
11
33.26
21
178.565
31
0
0
LINE
8
0
62
1
10
33.26
20
178.565
30
0
11
33.26
21
170.45
31
0
0
LINE
8
0
62
1
10
33.26
20
170.45
30
0
11
33.257
21
170.428
31
0
0
LINE
8
0
62
1
10
33.257
20
170.428
30
0
11
33.249
21
170.407
31
0
0
LINE
8
0
62
1
10
33.249
20
170.407
30
0
11
33.235
21
170.39
31
0
0
LINE
8
0
62
1
10
33.235
20
170.39
30
0
11
33.217
21
170.376
31
0
0
LINE
8
0
62
1
10
33.217
20
170.376
30
0
11
33.197
21
170.368
31
0
0
LINE
8
0
62
1
10
33.197
20
170.368
30
0
11
33.175
21
170.365
31
0
0
LINE
8
0
62
1
10
33.175
20
170.365
30
0
11
11.825
21
170.365
31
0
0
LINE
8
0
62
1
10
11.825
20
170.365
30
0
11
3.175
21
170.365
31
0
0
LINE
8
0
62
1
10
3.175
20
170.365
30
0
11
3.153
21
170.368
31
0
0
LINE
8
0
62
1
10
3.153
20
170.368
30
0
11
3.133
21
170.376
31
0
0
LINE
8
0
62
1
10
3.133
20
170.376
30
0
11
3.115
21
170.39
31
0
0
LINE
8
0
62
1
10
3.115
20
170.39
30
0
11
3.101
21
170.407
31
0
0
LINE
8
0
62
1
10
3.101
20
170.407
30
0
11
3.093
21
170.428
31
0
0
LINE
8
0
62
1
10
3.093
20
170.428
30
0
11
3.09
21
170.45
31
0
0
LINE
8
0
62
1
10
3.09
20
170.45
30
0
11
3.09
21
178.565
31
0
0
LINE
8
0
62
1
10
3.09
20
178.565
30
0
11
-26.74
21
178.565
31
0
0
LINE
8
0
62
1
10
-26.74
20
178.565
30
0
11
-26.74
21
170.45
31
0
0
LINE
8
0
62
1
10
-26.74
20
170.45
30
0
11
-26.743
21
170.428
31
0
0
LINE
8
0
62
1
10
-26.743
20
170.428
30
0
11
-26.751
21
170.407
31
0
0
LINE
8
0
62
1
10
-26.751
20
170.407
30
0
11
-26.765
21
170.39
31
0
0
LINE
8
0
62
1
10
-26.765
20
170.39
30
0
11
-26.783
21
170.376
31
0
0
LINE
8
0
62
1
10
-26.783
20
170.376
30
0
11
-26.803
21
170.368
31
0
0
LINE
8
0
62
1
10
-26.803
20
170.368
30
0
11
-26.825
21
170.365
31
0
0
LINE
8
0
62
1
10
-26.825
20
170.365
30
0
11
-48.625
21
170.365
31
0
0
LINE
8
0
62
1
10
-71.29
20
170.45
30
0
11
-71.293
21
170.428
31
0
0
LINE
8
0
62
1
10
-71.293
20
170.428
30
0
11
-71.301
21
170.407
31
0
0
LINE
8
0
62
1
10
-71.301
20
170.407
30
0
11
-71.315
21
170.39
31
0
0
LINE
8
0
62
1
10
-71.315
20
170.39
30
0
11
-71.333
21
170.376
31
0
0
LINE
8
0
62
1
10
-71.333
20
170.376
30
0
11
-71.353
21
170.368
31
0
0
LINE
8
0
62
1
10
-71.353
20
170.368
30
0
11
-71.375
21
170.365
31
0
0
LINE
8
0
62
1
10
-71.375
20
170.365
30
0
11
-93.175
21
170.365
31
0
0
LINE
8
0
62
1
10
-93.175
20
170.365
30
0
11
-93.197
21
170.368
31
0
0
LINE
8
0
62
1
10
-93.197
20
170.368
30
0
11
-93.218
21
170.376
31
0
0
LINE
8
0
62
1
10
-93.218
20
170.376
30
0
11
-93.235
21
170.39
31
0
0
LINE
8
0
62
1
10
-93.235
20
170.39
30
0
11
-93.249
21
170.407
31
0
0
LINE
8
0
62
1
10
-93.249
20
170.407
30
0
11
-93.257
21
170.428
31
0
0
LINE
8
0
62
1
10
-93.257
20
170.428
30
0
11
-93.26
21
170.45
31
0
0
LINE
8
0
62
1
10
-93.26
20
170.45
30
0
11
-93.26
21
178.565
31
0
0
LINE
8
0
62
1
10
-93.26
20
178.565
30
0
11
-123.09
21
178.565
31
0
0
LINE
8
0
62
1
10
-123.09
20
178.565
30
0
11
-123.09
21
170.45
31
0
0
LINE
8
0
62
1
10
-123.09
20
170.45
30
0
11
-123.093
21
170.428
31
0
0
LINE
8
0
62
1
10
-123.093
20
170.428
30
0
11
-123.101
21
170.407
31
0
0
LINE
8
0
62
1
10
-123.101
20
170.407
30
0
11
-123.115
21
170.39
31
0
0
LINE
8
0
62
1
10
-123.115
20
170.39
30
0
11
-123.133
21
170.376
31
0
0
LINE
8
0
62
1
10
-123.133
20
170.376
30
0
11
-123.153
21
170.368
31
0
0
LINE
8
0
62
1
10
-123.153
20
170.368
30
0
11
-123.175
21
170.365
31
0
0
LINE
8
0
62
1
10
-123.175
20
170.365
30
0
11
-153.175
21
170.365
31
0
0
LINE
8
0
62
1
10
-153.175
20
170.365
30
0
11
-153.197
21
170.368
31
0
0
LINE
8
0
62
1
10
-153.197
20
170.368
30
0
11
-153.217
21
170.376
31
0
0
LINE
8
0
62
1
10
-153.217
20
170.376
30
0
11
-153.235
21
170.39
31
0
0
LINE
8
0
62
1
10
-153.235
20
170.39
30
0
11
-153.249
21
170.408
31
0
0
LINE
8
0
62
1
10
-153.249
20
170.408
30
0
11
-153.257
21
170.428
31
0
0
LINE
8
0
62
1
10
-153.257
20
170.428
30
0
11
-153.26
21
170.45
31
0
0
LINE
8
0
62
1
10
-153.26
20
170.45
30
0
11
-153.26
21
178.565
31
0
0
LINE
8
0
62
1
10
-153.26
20
178.565
30
0
11
-183.09
21
178.565
31
0
0
LINE
8
0
62
1
10
-183.09
20
178.565
30
0
11
-183.09
21
170.45
31
0
0
LINE
8
0
62
1
10
-183.09
20
170.45
30
0
11
-183.093
21
170.428
31
0
0
LINE
8
0
62
1
10
-183.093
20
170.428
30
0
11
-183.101
21
170.407
31
0
0
LINE
8
0
62
1
10
-183.101
20
170.407
30
0
11
-183.115
21
170.39
31
0
0
LINE
8
0
62
1
10
-183.115
20
170.39
30
0
11
-183.133
21
170.376
31
0
0
LINE
8
0
62
1
10
-183.133
20
170.376
30
0
11
-183.153
21
170.368
31
0
0
LINE
8
0
62
1
10
-183.153
20
170.368
30
0
11
-183.175
21
170.365
31
0
0
LINE
8
0
62
1
10
-183.175
20
170.365
30
0
11
-204.975
21
170.365
31
0
0
LINE
8
0
62
1
10
-204.975
20
170.365
30
0
11
-204.997
21
170.368
31
0
0
LINE
8
0
62
1
10
-204.997
20
170.368
30
0
11
-205.018
21
170.376
31
0
0
LINE
8
0
62
1
10
-205.018
20
170.376
30
0
11
-205.035
21
170.39
31
0
0
LINE
8
0
62
1
10
-205.035
20
170.39
30
0
11
-205.049
21
170.408
31
0
0
LINE
8
0
62
1
10
-205.049
20
170.408
30
0
11
-205.057
21
170.428
31
0
0
LINE
8
0
62
1
10
-205.057
20
170.428
30
0
11
-205.06
21
170.45
31
0
0
LINE
8
0
62
1
10
-205.06
20
170.45
30
0
11
-205.06
21
227.865
31
0
0
LINE
8
0
62
1
10
-205.06
20
227.865
30
0
11
-213.175
21
227.865
31
0
0
LINE
8
0
62
1
10
-213.175
20
227.865
30
0
11
-213.197
21
227.868
31
0
0
LINE
8
0
62
1
10
-213.197
20
227.868
30
0
11
-213.217
21
227.876
31
0
0
LINE
8
0
62
1
10
-213.217
20
227.876
30
0
11
-213.235
21
227.89
31
0
0
LINE
8
0
62
1
10
-213.235
20
227.89
30
0
11
-213.249
21
227.908
31
0
0
LINE
8
0
62
1
10
-213.249
20
227.908
30
0
11
-213.257
21
227.928
31
0
0
LINE
8
0
62
1
10
-213.257
20
227.928
30
0
11
-213.26
21
227.95
31
0
0
LINE
8
0
62
1
10
-213.26
20
227.95
30
0
11
-213.26
21
257.95
31
0
0
LINE
8
0
62
1
10
-213.26
20
257.95
30
0
11
-213.257
21
257.972
31
0
0
LINE
8
0
62
1
10
-213.257
20
257.972
30
0
11
-213.249
21
257.993
31
0
0
LINE
8
0
62
1
10
-213.249
20
257.993
30
0
11
-213.235
21
258.01
31
0
0
LINE
8
0
62
1
10
-213.235
20
258.01
30
0
11
-213.217
21
258.024
31
0
0
LINE
8
0
62
1
10
-213.217
20
258.024
30
0
11
-213.197
21
258.032
31
0
0
LINE
8
0
62
1
10
-213.197
20
258.032
30
0
11
-213.175
21
258.035
31
0
0
LINE
8
0
62
1
10
-213.175
20
258.035
30
0
11
-205.06
21
258.035
31
0
0
LINE
8
0
62
1
10
-205.06
20
258.035
30
0
11
-205.06
21
315.365
31
0
0
LINE
8
0
62
1
10
-205.06
20
315.365
30
0
11
-213.175
21
315.365
31
0
0
LINE
8
0
62
1
10
-213.175
20
315.365
30
0
11
-213.197
21
315.368
31
0
0
LINE
8
0
62
1
10
-213.197
20
315.368
30
0
11
-213.218
21
315.376
31
0
0
LINE
8
0
62
1
10
-213.218
20
315.376
30
0
11
-213.235
21
315.39
31
0
0
LINE
8
0
62
1
10
-213.235
20
315.39
30
0
11
-213.249
21
315.408
31
0
0
LINE
8
0
62
1
10
-213.249
20
315.408
30
0
11
-213.257
21
315.428
31
0
0
LINE
8
0
62
1
10
-213.257
20
315.428
30
0
11
-213.26
21
315.45
31
0
0
LINE
8
0
62
1
10
-213.26
20
315.45
30
0
11
-213.26
21
345.45
31
0
0
LINE
8
0
62
1
10
-213.26
20
345.45
30
0
11
-213.257
21
345.472
31
0
0
LINE
8
0
62
1
10
-213.257
20
345.472
30
0
11
-213.249
21
345.493
31
0
0
LINE
8
0
62
1
10
-213.249
20
345.493
30
0
11
-213.235
21
345.51
31
0
0
LINE
8
0
62
1
10
-213.235
20
345.51
30
0
11
-213.217
21
345.524
31
0
0
LINE
8
0
62
1
10
-213.217
20
345.524
30
0
11
-213.197
21
345.532
31
0
0
LINE
8
0
62
1
10
-213.197
20
345.532
30
0
11
-213.175
21
345.535
31
0
0
LINE
8
0
62
1
10
-213.175
20
345.535
30
0
11
-205.06
21
345.535
31
0
0
LINE
8
0
62
1
10
-205.06
20
345.535
30
0
11
-205.06
21
402.865
31
0
0
LINE
8
0
62
1
10
-205.06
20
402.865
30
0
11
-213.175
21
402.865
31
0
0
LINE
8
0
62
1
10
-213.175
20
402.865
30
0
11
-213.197
21
402.868
31
0
0
LINE
8
0
62
1
10
-213.197
20
402.868
30
0
11
-213.218
21
402.876
31
0
0
LINE
8
0
62
1
10
-213.218
20
402.876
30
0
11
-213.235
21
402.89
31
0
0
LINE
8
0
62
1
10
-213.235
20
402.89
30
0
11
-213.249
21
402.908
31
0
0
LINE
8
0
62
1
10
-213.249
20
402.908
30
0
11
-213.257
21
402.928
31
0
0
LINE
8
0
62
1
10
-213.257
20
402.928
30
0
11
-213.26
21
402.95
31
0
0
LINE
8
0
62
1
10
-213.26
20
402.95
30
0
11
-213.26
21
432.95
31
0
0
LINE
8
0
62
1
10
-213.26
20
432.95
30
0
11
-213.257
21
432.972
31
0
0
LINE
8
0
62
1
10
-213.257
20
432.972
30
0
11
-213.249
21
432.993
31
0
0
LINE
8
0
62
1
10
-213.249
20
432.993
30
0
11
-213.235
21
433.01
31
0
0
LINE
8
0
62
1
10
-213.235
20
433.01
30
0
11
-213.217
21
433.024
31
0
0
LINE
8
0
62
1
10
-213.217
20
433.024
30
0
11
-213.197
21
433.032
31
0
0
LINE
8
0
62
1
10
-213.197
20
433.032
30
0
11
-213.175
21
433.035
31
0
0
LINE
8
0
62
1
10
-213.175
20
433.035
30
0
11
-205.06
21
433.035
31
0
0
LINE
8
0
62
1
10
-205.06
20
433.035
30
0
11
-205.06
21
482.25
31
0
0
LINE
8
0
62
1
10
-205.06
20
482.25
30
0
11
-205.057
21
482.272
31
0
0
LINE
8
0
62
1
10
-205.057
20
482.272
30
0
11
-205.049
21
482.292
31
0
0
LINE
8
0
62
1
10
-205.049
20
482.292
30
0
11
-205.035
21
482.31
31
0
0
LINE
8
0
62
1
10
-205.035
20
482.31
30
0
11
-205.018
21
482.324
31
0
0
LINE
8
0
62
1
10
-205.018
20
482.324
30
0
11
-204.997
21
482.332
31
0
0
LINE
8
0
62
1
10
-204.997
20
482.332
30
0
11
-204.975
21
482.335
31
0
0
LINE
8
0
62
1
10
-204.975
20
482.335
30
0
11
-71.375
21
482.335
31
0
0
LINE
8
0
62
1
10
-71.375
20
482.335
30
0
11
-71.353
21
482.332
31
0
0
LINE
8
0
62
1
10
-71.353
20
482.332
30
0
11
-71.333
21
482.324
31
0
0
LINE
8
0
62
1
10
-71.333
20
482.324
30
0
11
-71.315
21
482.31
31
0
0
LINE
8
0
62
1
10
-71.315
20
482.31
30
0
11
-71.301
21
482.292
31
0
0
LINE
8
0
62
1
10
-71.301
20
482.292
30
0
11
-71.293
21
482.272
31
0
0
LINE
8
0
62
1
10
-71.293
20
482.272
30
0
11
-71.29
21
482.25
31
0
0
LINE
8
0
62
1
10
-71.29
20
482.25
30
0
11
-71.29
21
433.035
31
0
0
LINE
8
0
62
1
10
-71.29
20
433.035
30
0
11
-63.175
21
433.035
31
0
0
LINE
8
0
62
1
10
-63.175
20
433.035
30
0
11
-63.153
21
433.032
31
0
0
LINE
8
0
62
1
10
-63.153
20
433.032
30
0
11
-63.133
21
433.024
31
0
0
LINE
8
0
62
1
10
-63.133
20
433.024
30
0
11
-63.115
21
433.01
31
0
0
LINE
8
0
62
1
10
-63.115
20
433.01
30
0
11
-63.101
21
432.993
31
0
0
LINE
8
0
62
1
10
-63.101
20
432.993
30
0
11
-63.093
21
432.972
31
0
0
LINE
8
0
62
1
10
-63.093
20
432.972
30
0
11
-63.09
21
432.95
31
0
0
LINE
8
0
62
1
10
-63.09
20
432.95
30
0
11
-63.09
21
402.95
31
0
0
LINE
8
0
62
1
10
-63.09
20
402.95
30
0
11
-63.093
21
402.928
31
0
0
LINE
8
0
62
1
10
-63.093
20
402.928
30
0
11
-63.101
21
402.908
31
0
0
LINE
8
0
62
1
10
-63.101
20
402.908
30
0
11
-63.115
21
402.89
31
0
0
LINE
8
0
62
1
10
-63.115
20
402.89
30
0
11
-63.132
21
402.876
31
0
0
LINE
8
0
62
1
10
-63.132
20
402.876
30
0
11
-63.153
21
402.868
31
0
0
LINE
8
0
62
1
10
-63.153
20
402.868
30
0
11
-63.175
21
402.865
31
0
0
LINE
8
0
62
1
10
-63.175
20
402.865
30
0
11
-71.29
21
402.865
31
0
0
LINE
8
0
62
1
10
-71.29
20
402.865
30
0
11
-71.29
21
345.535
31
0
0
LINE
8
0
62
1
10
-71.29
20
345.535
30
0
11
-63.175
21
345.535
31
0
0
LINE
8
0
62
1
10
-63.175
20
345.535
30
0
11
-63.153
21
345.532
31
0
0
LINE
8
0
62
1
10
-63.153
20
345.532
30
0
11
-63.133
21
345.524
31
0
0
LINE
8
0
62
1
10
-63.133
20
345.524
30
0
11
-63.115
21
345.51
31
0
0
LINE
8
0
62
1
10
-63.115
20
345.51
30
0
11
-63.101
21
345.493
31
0
0
LINE
8
0
62
1
10
-63.101
20
345.493
30
0
11
-63.093
21
345.472
31
0
0
LINE
8
0
62
1
10
-63.093
20
345.472
30
0
11
-63.09
21
345.45
31
0
0
LINE
8
0
62
1
10
-63.09
20
345.45
30
0
11
-63.09
21
315.45
31
0
0
LINE
8
0
62
1
10
-63.09
20
315.45
30
0
11
-63.093
21
315.428
31
0
0
LINE
8
0
62
1
10
-63.093
20
315.428
30
0
11
-63.101
21
315.408
31
0
0
LINE
8
0
62
1
10
-63.101
20
315.408
30
0
11
-63.115
21
315.39
31
0
0
LINE
8
0
62
1
10
-63.115
20
315.39
30
0
11
-63.132
21
315.376
31
0
0
LINE
8
0
62
1
10
-63.132
20
315.376
30
0
11
-63.153
21
315.368
31
0
0
LINE
8
0
62
1
10
-63.153
20
315.368
30
0
11
-63.175
21
315.365
31
0
0
LINE
8
0
62
1
10
-63.175
20
315.365
30
0
11
-71.29
21
315.365
31
0
0
LINE
8
0
62
1
10
-71.29
20
315.365
30
0
11
-71.29
21
258.035
31
0
0
LINE
8
0
62
1
10
-71.29
20
258.035
30
0
11
-63.175
21
258.035
31
0
0
LINE
8
0
62
1
10
-63.175
20
258.035
30
0
11
-63.153
21
258.032
31
0
0
LINE
8
0
62
1
10
-63.153
20
258.032
30
0
11
-63.133
21
258.024
31
0
0
LINE
8
0
62
1
10
-63.133
20
258.024
30
0
11
-63.115
21
258.01
31
0
0
LINE
8
0
62
1
10
-63.115
20
258.01
30
0
11
-63.101
21
257.993
31
0
0
LINE
8
0
62
1
10
-63.101
20
257.993
30
0
11
-63.093
21
257.972
31
0
0
LINE
8
0
62
1
10
-63.093
20
257.972
30
0
11
-63.09
21
257.95
31
0
0
LINE
8
0
62
1
10
-63.09
20
257.95
30
0
11
-63.09
21
227.95
31
0
0
LINE
8
0
62
1
10
-63.09
20
227.95
30
0
11
-63.093
21
227.928
31
0
0
LINE
8
0
62
1
10
-63.093
20
227.928
30
0
11
-63.101
21
227.907
31
0
0
LINE
8
0
62
1
10
-63.101
20
227.907
30
0
11
-63.115
21
227.89
31
0
0
LINE
8
0
62
1
10
-63.115
20
227.89
30
0
11
-63.133
21
227.876
31
0
0
LINE
8
0
62
1
10
-63.133
20
227.876
30
0
11
-63.153
21
227.868
31
0
0
LINE
8
0
62
1
10
-63.153
20
227.868
30
0
11
-63.175
21
227.865
31
0
0
LINE
8
0
62
1
10
-63.175
20
227.865
30
0
11
-71.29
21
227.865
31
0
0
LINE
8
0
62
1
10
-71.29
20
227.865
30
0
11
-71.29
21
170.45
31
0
0
ENDSEC
0
EOF
